<?xml version="1.0" encoding="UTF-8"?><svg id="a" xmlns="http://www.w3.org/2000/svg" width="640" height="140" viewBox="0 0 640 140"><path d="M125.01,.35h57.36V14.1h-57.36V.35Zm166.27,108.44c1.53-3.52,2.31-7.32,2.31-11.31V41.57h13.77v55.9c0,11.62-4.58,22.35-12.89,30.23-3.99,3.79-8.66,6.75-13.87,8.8-5.3,2.09-10.96,3.15-16.8,3.15s-11.5-1.06-16.8-3.15c-5.21-2.05-9.88-5.01-13.87-8.8-8.31-7.88-12.89-18.62-12.89-30.23V41.62h13.77v55.85c0,3.99,.78,7.79,2.31,11.31,1.47,3.37,3.58,6.38,6.29,8.94,5.55,5.27,13.08,8.17,21.2,8.17s15.64-2.9,21.2-8.17c2.7-2.56,4.82-5.57,6.29-8.94Zm64.32,29.15v-33.17h35.44l16.87,33.17h15.44l-20.02-39.36c1.24-.92,2.42-1.92,3.53-3.02,2.92-2.89,5.22-6.26,6.82-10.01,1.67-3.9,2.52-8.04,2.52-12.3s-.85-8.4-2.52-12.31c-1.61-3.76-3.9-7.14-6.81-10.04-2.91-2.9-6.3-5.18-10.06-6.78-3.91-1.66-8.05-2.5-12.31-2.5h-42.68v96.31h13.77Zm0-82.55h28.91c4.75,0,9.25,1.87,12.66,5.26,3.41,3.39,5.28,7.87,5.28,12.6s-1.87,9.17-5.26,12.53c-3.4,3.37-7.9,5.22-12.67,5.22h-28.91V55.38Zm101.86,82.55l28.89-75.58,28.89,75.58h14.74l-36.82-96.31h-13.62l-36.82,96.31h14.74ZM146.85,41.62l-36.82,96.31h14.74l28.89-75.58,28.89,75.58h14.74l-36.82-96.31h-13.62Z" style="fill:#1d2f50; fill-rule:evenodd;"/></svg>