<?xml version="1.0" encoding="UTF-8"?><svg id="a" xmlns="http://www.w3.org/2000/svg" width="640" height="140" viewBox="0 0 640 140"><path d="M221.72,110.75c8.17-11.36,13.03-25.23,13.15-40.28C235.14,31.82,204.04,.33,165.44,.05,126.79-.23,95.3,30.87,95.02,69.47c-.11,15.27,4.7,29.42,12.92,41,2.01,2.85,4.25,5.54,6.71,8.06h0c12.59,13.03,30.21,21.2,49.78,21.37,21.93,.17,41.51-9.79,54.43-25.45h0c1.01-1.23,1.96-2.46,2.85-3.69h0Z" style="fill:#fff;"/><path d="M154.98,17.45c8.95-6.15,21.26-2.8,25.9,6.99l40.78,86.26c8.17-11.36,13.03-25.23,13.15-40.28C235.14,31.82,204.04,.33,165.44,.05,126.79-.23,95.3,30.87,95.02,69.47c-.11,15.27,4.7,29.42,12.92,41l1.62-.34,26.63-5.87c.73-.17,1.17,.84,.5,1.23l-22.04,13.09c12.59,13.03,30.21,21.2,49.78,21.37,21.93,.17,41.51-9.79,54.43-25.45L152.19,44.18c-7.5-7.89-6.15-20.59,2.8-26.74m12.53,79.32l-42.96,3.75c-4.64,.39-8.56-3.47-8.22-8.11,.34-4.64,4.75-7.89,9.29-6.82l41.95,9.9c.78,.11,.73,1.23-.06,1.29m-19.86-37.76l52.08,42.12c.62,.5,.06,1.45-.67,1.17l-62.65-23.77c-6.54-2.52-9.34-10.29-5.87-16.33,3.52-6.1,11.64-7.61,17.12-3.19" style="fill:#ff7800;"/><path d="M539.33,62.36c3.08,0,5.54-2.52,5.54-5.54v-6.88h-17.34v-15.16h-9.57c-3.08,0-5.54,2.52-5.54,5.54v9.57h-2.8c-3.08,0-5.54,2.52-5.54,5.54v6.88h8.39v22.21c0,3.58,.06,6.82,.11,9.68,.06,2.85,.84,5.65,2.35,8.39,1.62,2.91,4.03,5.03,7.16,6.38s6.71,2.01,10.68,2.13,8.06-.22,12.19-1.01v-6.54c0-3.13-2.63-5.65-5.76-5.54-1.4,.06-2.69,0-3.97-.06-2.91-.17-5.09-1.34-6.38-3.47-.73-1.12-1.06-2.63-1.12-4.48s-.06-3.97-.06-6.32v-21.31h11.64Z" style="fill:#04121a;"/><path d="M302.49,30.03h-16.05l-28.86,80.05h12.25c2.35,0,4.42-1.45,5.2-3.64l4.87-13.03h35.69l4.87,13.03c.78,2.18,2.91,3.64,5.2,3.64h12.25l-26.68-73.95c-1.34-3.69-4.81-6.1-8.73-6.1m-17.51,49.62l12.75-34.35,12.75,34.35h-25.51Z" style="fill:#04121a;"/><path d="M417.61,48.44c-12.7,0-20.92,5.65-25.17,16.73l9.12,3.19c2.18,.78,4.64,.11,6.15-1.73,1.96-2.41,4.2-4.48,9.73-4.48,6.94,0,9.73,2.46,10.29,9.01l-18.57,3.19c-17.17,2.8-19.24,13.37-19.24,19.13s4.36,18.24,20.92,18.24c8.39,0,14.43-3.02,18.35-6.82,.22,2.91,2.63,5.15,5.54,5.15h7.78v-38.77c0-16.05-10.24-22.82-24.89-22.82m-4.25,51.41c-5.82,0-8.61-1.96-8.61-5.65s2.74-7.61,11.97-9.23c5.09-.9,9.17-1.62,11.86-2.13v3.8c0,7.72-7.78,13.2-15.22,13.2" style="fill:#04121a;"/><path d="M378.79,50c-2.35,0-4.42,1.45-5.2,3.64l-13.65,37.03-13.65-37.03c-.78-2.18-2.91-3.64-5.2-3.64h-11.64l22.93,60.08h15.1l22.93-60.08h-11.64Z" style="fill:#04121a;"/><path d="M500.96,92.68c0-6.1-3.08-11.47-7.78-14.66h0l-.5-.34h-.06c-.11-.06-.17-.11-.28-.17-.56-.34-1.12-.67-1.73-.95-2.18-1.06-4.59-1.96-4.59-1.96h0c-.95-.39-2.01-.73-3.08-1.12-10.29-3.41-15.22-4.31-15.22-7.72,0-3.02,3.64-4.59,7.5-4.59,2.46,0,5.93,.78,8.78,4.25l.06,.06c.06,.06,.11,.17,.17,.22,0,.06,.06,.06,.06,.11,1.01,1.01,2.41,1.68,3.92,1.68,.62,0,1.23-.11,1.79-.28h.06l8.39-2.91c-2.85-9.68-11.8-15.94-23.77-15.94-4.64,0-8.45,.73-11.47,1.96h0c-6.15,2.29-10.52,8.22-10.52,15.16,0,6.54,3.92,12.19,9.51,14.77,2.74,1.4,5.99,2.63,9.85,3.75,10.8,3.19,13.37,5.31,13.37,9.12,0,.45-.06,.9-.17,1.29-.22,.78-.62,1.45-1.12,2.01-1.51,1.57-4.31,2.35-8,2.35-4.59,0-8.73-1.9-11.58-6.66-1.34-2.24-4.08-3.19-6.54-2.35l-8.39,2.96c3.47,10.12,10.46,19.02,26.46,19.02,7.27,0,13.03-1.62,17.17-4.42v-.06c4.64-3.19,7.72-8.56,7.72-14.6" style="fill:#04121a;"/></svg>