<?xml version="1.0" encoding="UTF-8"?><svg id="a" xmlns="http://www.w3.org/2000/svg" width="640" height="140" viewBox="0 0 640 140"><path d="M259.14,55.19c-16.23-.69-29.95,11.91-30.63,28.14-.04,.92-.03,1.83,.01,2.75,0,18.52,13.61,30.89,33.21,30.89,5.37,.07,10.7-.93,15.69-2.92l8.35-13.98-1.11-.65c-6.64,3.6-14.05,5.56-21.61,5.71-10.12,0-18.88-5.12-19.85-13.96h44.76v-4.05c0-20.46-12.4-31.98-28.78-31.98m-15.98,25c.31-8.04,7.08-14.3,15.12-13.98h.06c9.19,0,14.82,5.4,14.92,13.98h-30.1Zm320.95-24.95c-16.22-.7-29.94,11.89-30.63,28.11-.04,.93-.04,1.86,.01,2.78,0,18.52,13.61,30.89,33.21,30.89,5.36,.07,10.68-.92,15.65-2.92l8.39-13.98-1.11-.6c-6.65,3.6-14.06,5.55-21.62,5.71-10.12,0-18.85-5.12-19.84-13.96h44.73c1.94-23.05-10.43-36.04-28.78-36.04m-15.97,25.01c.31-8.03,7.06-14.29,15.09-13.98h.05c9.19,0,14.82,5.4,14.94,13.98h-30.08Zm-189.17-25.01c-16.23-.69-29.95,11.91-30.63,28.14-.04,.92-.03,1.83,.01,2.75,0,18.52,13.61,30.89,33.21,30.89,5.37,.07,10.7-.92,15.69-2.92l8.35-13.98-1.12-.6c-6.64,3.6-14.04,5.56-21.58,5.71-10.12,0-18.88-5.12-19.85-13.96h44.78c1.94-23.05-10.45-36.04-28.82-36.04m-15.96,25.01c.31-8.04,7.08-14.3,15.12-13.98h.06c9.17,0,14.82,5.4,14.92,13.98h-30.1ZM55.71,69.76v-.24c8.86-2,15.13-9.91,15.04-18.99,0-15.82-13.46-21.82-26.52-21.82H0v1.29l4.45,3.78c5.34,4.36,6.02,5.2,6.02,9.14V115.52h31.22c16.36,0,32.78-5.88,32.78-24.77,.21-10.81-7.95-19.95-18.72-20.97m-29.89-27.84h12.71c8.61,0,11.26,1.19,13.87,3.68,1.98,1.97,3.03,4.69,2.89,7.49,.07,2.73-1.01,5.36-2.98,7.25-2.55,2.45-6.07,3.65-12.44,3.65h-14.05v-22.06Zm14.19,60.32h-14.19v-25h14.8c12.48,0,18.34,3.19,18.34,12.26,0,11.4-11.02,12.75-18.95,12.75M103.56,36.69c.32,5.2-3.64,9.68-8.85,10-5.2,.32-9.68-3.64-10-8.85s3.64-9.68,8.85-10c.19-.01,.37-.02,.56-.02,4.99-.27,9.25,3.55,9.52,8.54,0,.1,0,.19,.01,.29m-24.74,20.02h22.58v58.82h-14.7v-46.29c0-4.86-.27-5.64-5.55-9.72l-2.33-1.86v-.95Zm116.84-30.55l4.61,2.97c4.18,2.68,4.82,3.96,4.82,7.69v27.28h-.36c-4.84-5.99-12.25-9.32-19.94-8.95-16.76,0-28.39,13.49-28.39,30.89s10.91,30.89,29,30.89c8.07,.42,15.76-3.48,20.2-10.23h.24l1.53,8.83h12.4V25.06h-24.1v1.06Zm-7.33,77.56c-9.75,.21-17.82-7.52-18.03-17.26s7.52-17.82,17.26-18.03,17.82,7.52,18.03,17.26c0,.13,0,.25,0,.38,.32,9.42-7.05,17.31-16.46,17.64-.27,0-.54,.01-.81,0M500.24,26.12l2.04,1.35c7.08,4.48,7.96,5.78,7.96,13.43v23.23h-.37c-4.84-5.99-12.25-9.31-19.94-8.95-16.76,0-28.38,13.49-28.38,30.89s10.89,30.89,28.92,30.89c8.07,.43,15.76-3.47,20.2-10.23h.26l1.55,8.83h12.4V25.06h-24.67l.03,1.06Zm-6.8,77.56c-9.75,.22-17.82-7.5-18.04-17.25-.22-9.75,7.5-17.82,17.25-18.04s17.82,7.5,18.04,17.25c0,.13,0,.26,0,.4,.33,9.42-7.03,17.32-16.45,17.65-.27,0-.54,.01-.8,0m146.51-47.74v14.22c-2.31-.66-4.68-1.03-7.08-1.11-8.16-.54-15.21,5.63-15.76,13.79-.02,.35-.03,.7-.03,1.04v31.51h-14.67v-43.39c0-7.4-.39-8.52-6.36-12.29l-3.69-2.44v-.65h24.75v9.34h.26c3.14-6.72,9.95-10.96,17.37-10.79,1.78,.04,3.55,.33,5.26,.85m-325.99,.37h13.61v12.54h-13.61v46.53h-14.73v-41.48c0-4.93-.99-6.02-6.8-10.64l-7.49-6.1v-.86h14.31v-10.72c0-15.97,10.4-26.12,32.88-21.62l3.4,12.48-.71,.58c-11.76-4.64-20.86-1.71-20.86,8.52v10.76Zm139.06,21.92v37.16h-14.68v-32.74c0-6.48-1.69-14.32-11.91-14.32-9.66,0-13.46,7.11-13.46,14.95v32.11h-14.67v-43.5c0-7.4-.39-8.52-6.36-12.29l-3.57-2.44v-.65h23.99v8.97h.24c4.11-6.38,11.13-10.3,18.72-10.43,13.87,0,21.86,9.51,21.86,23.15m-301.28,25.37l.48,.31s-7.3,11.69-7.28,11.69c-11.91,3.26-25.42-.21-25.42-19.44v-23.87c0-3.8-.61-3.6-8.85-10.4l-5.32-4.62v-.7h14.26l5.36-17.03h9.31v17.05h15.7v12.48h-15.7v26.68c0,10.62,7.26,10.88,17.49,7.84"/></svg>