<svg width="62" height="41" viewBox="0 0 62 41" fill="none" xmlns="http://www.w3.org/2000/svg">
<path d="M48.6142 30.8125C47.8475 30.8125 47.226 30.1829 47.226 29.4062C47.226 28.6296 47.8475 28 48.6142 28C49.3809 28 50.0024 28.6296 50.0024 29.4062C50.0024 30.1829 49.3809 30.8125 48.6142 30.8125Z" fill="#9299D5"/>
<path d="M46.5058 39.4633C45.7391 39.4633 45.1176 38.8337 45.1176 38.057C45.1176 37.2804 45.7391 36.6508 46.5058 36.6508C47.2725 36.6508 47.894 37.2804 47.894 38.057C47.894 38.8337 47.2725 39.4633 46.5058 39.4633Z" fill="#9299D5"/>
<path d="M37.8434 33.9826C37.0867 33.8583 36.5727 33.1362 36.6954 32.3696C36.818 31.6031 37.5309 31.0824 38.2877 31.2066C39.0444 31.3309 39.5584 32.0531 39.4357 32.8196C39.3131 33.5862 38.6002 34.1068 37.8434 33.9826Z" fill="#9299D5"/>
<path d="M30.7216 40.1383C29.9549 40.1383 29.3334 39.5087 29.3334 38.7321C29.3334 37.9554 29.9549 37.3258 30.7216 37.3258C31.4883 37.3258 32.1099 37.9554 32.1099 38.7321C32.1099 39.5087 31.4883 40.1383 30.7216 40.1383Z" fill="#9299D5"/>
<path d="M42.5677 9.8125C43.3344 9.8125 43.9559 9.1829 43.9559 8.40625C43.9559 7.6296 43.3344 7 42.5677 7C41.801 7 41.1794 7.6296 41.1794 8.40625C41.1794 9.1829 41.801 9.8125 42.5677 9.8125Z" fill="#9299D5"/>
<path d="M44.6761 18.4633C45.4428 18.4633 46.0643 17.8337 46.0643 17.057C46.0643 16.2804 45.4428 15.6508 44.6761 15.6508C43.9094 15.6508 43.2878 16.2804 43.2878 17.057C43.2878 17.8337 43.9094 18.4633 44.6761 18.4633Z" fill="#9299D5"/>
<path d="M53.3385 12.9826C54.0952 12.8583 54.6092 12.1362 54.4865 11.3696C54.3638 10.6031 53.6509 10.0824 52.8942 10.2066C52.1375 10.3309 51.6235 11.0531 51.7462 11.8196C51.8688 12.5862 52.5817 13.1068 53.3385 12.9826Z" fill="#9299D5"/>
<path d="M60.4602 19.1383C61.2269 19.1383 61.8485 18.5087 61.8485 17.7321C61.8485 16.9554 61.2269 16.3258 60.4602 16.3258C59.6935 16.3258 59.072 16.9554 59.072 17.7321C59.072 18.5087 59.6935 19.1383 60.4602 19.1383Z" fill="#9299D5"/>
<path d="M12.5144 18.8241L12.5144 17.5829C12.5144 16.6023 11.7235 15.8031 10.7574 15.8031L8.16027 15.8031C7.19227 15.8031 6.40328 16.6023 6.40328 17.5829L6.40328 18.8241C3.07565 20.0795 0.7052 23.3256 0.7052 27.1339C0.7052 32.0309 4.62455 35.9992 9.45881 35.9992C14.2931 35.9992 18.2105 32.0309 18.2105 27.1339C18.2105 23.3257 15.8414 20.0796 12.5144 18.8241Z" fill="#1CC861"/>
<path d="M17.4899 23.6062C17.2224 23.7252 16.96 23.9217 16.7093 24.1959C16.2095 24.744 15.6842 24.744 15.1844 24.1959C14.299 23.2273 13.27 23.2273 12.3846 24.1959C11.8848 24.744 11.3595 24.744 10.8577 24.1959C9.97427 23.2273 8.94332 23.2273 8.05791 24.1959C7.55815 24.744 7.03278 24.744 6.53302 24.1959C5.64762 23.2273 4.6186 23.2273 3.7332 24.1959C3.23344 24.744 2.70612 24.744 2.20637 24.1959C1.95558 23.9216 1.69335 23.7251 1.42605 23.6062C0.962592 24.6873 0.705078 25.8799 0.705078 27.1338C0.705078 28.3933 0.964952 29.5911 1.43237 30.676C1.76609 30.5538 2.08858 30.3326 2.38142 30.0118C2.80247 29.5514 3.13696 29.5514 3.558 30.0118C4.50442 31.0482 5.75972 31.0482 6.70606 30.0118C7.12905 29.5514 7.4616 29.5514 7.88466 30.0118C8.83108 31.0482 10.0864 31.0482 11.0327 30.0118C11.4538 29.5514 11.7883 29.5514 12.2093 30.0118C13.1557 31.0482 14.411 31.0482 15.3574 30.0118C15.7804 29.5514 16.1148 29.5514 16.5359 30.0118C16.8284 30.3321 17.1503 30.5531 17.4836 30.6754C17.9506 29.5907 18.2103 28.3931 18.2103 27.1338C18.2104 25.88 17.9531 24.6873 17.4899 23.6062Z" fill="#92DD7A"/>
<path fill-rule="evenodd" clip-rule="evenodd" d="M13.7834 26.0077C14.3973 26.0077 14.8951 26.512 14.8951 27.1338C14.8951 27.7557 14.3973 28.2579 13.7834 28.2579C13.1715 28.2579 12.6737 27.7557 12.6737 27.1338C12.6736 26.5119 13.1715 26.0077 13.7834 26.0077ZM5.13201 26.0077C5.74588 26.0077 6.2437 26.512 6.2437 27.1338C6.2437 27.7557 5.74588 28.2579 5.13201 28.2579C4.52008 28.2579 4.02234 27.7557 4.02234 27.1338C4.02234 26.5119 4.52015 26.0077 5.13201 26.0077ZM9.45867 26.0077C10.0725 26.0077 10.5683 26.512 10.5683 27.1338C10.5683 27.7557 10.0725 28.2579 9.45867 28.2579C8.8448 28.2579 8.34698 27.7557 8.34698 27.1338C8.34705 26.5119 8.8448 26.0077 9.45867 26.0077Z" fill="white"/>
<path d="M9.45873 18.2685C10.5337 18.2685 11.5631 18.4652 12.5143 18.8241L12.5143 17.5829C12.5143 16.6023 11.7234 15.8031 10.7573 15.8031L8.1602 15.8031C7.19219 15.8031 6.4032 16.6023 6.4032 17.5829L6.4032 18.8241C7.35454 18.4651 8.38391 18.2685 9.45873 18.2685Z" fill="#448E44"/>
<path d="M9.91711 15.803L9.91711 0.56171C9.91711 0.250789 9.66918 -0.000366206 9.36224 -0.000366208C9.05531 -0.000366209 8.80737 0.250789 8.80737 0.56171L8.80737 15.803L9.91711 15.803L9.91711 15.803Z" fill="#9299D5"/>
<path d="M10.485 18.3292C11.1905 18.4128 11.8705 18.5811 12.5145 18.8241L12.5145 17.5829C12.5145 16.6023 11.7235 15.8031 10.7575 15.8031L9.93982 15.8031C10.2751 16.1275 10.485 16.5839 10.485 17.0888L10.485 18.3292Z" fill="#418441"/>
<path d="M30.5471 10.9951L30.5471 9.75394C30.5471 8.77336 29.7581 7.97412 28.7901 7.97412L26.1929 7.97412C25.2269 7.97412 24.4359 8.77336 24.4359 9.75394L24.4359 10.9955C21.1098 12.2512 18.7399 15.497 18.7399 19.3049C18.7399 24.202 22.6592 28.1703 27.4915 28.1703C32.3258 28.1703 36.2452 24.202 36.2452 19.3049C36.2451 15.4966 33.8746 12.2505 30.5471 10.9951Z" fill="#FF4236"/>
<path d="M27.4916 10.4396C28.5664 10.4396 29.5958 10.6361 30.5472 10.9951L30.5472 9.75394C30.5472 8.77336 29.7582 7.97412 28.7902 7.97412L26.193 7.97412C25.227 7.97412 24.436 8.77336 24.436 9.75394L24.436 10.9955C25.3873 10.6363 26.4167 10.4396 27.4916 10.4396Z" fill="#DD4747"/>
<path fill-rule="evenodd" clip-rule="evenodd" d="M31.8182 18.1807C32.432 18.1807 32.9278 18.6829 32.9278 19.3047C32.9278 19.9266 32.432 20.4288 31.8182 20.4288C31.2043 20.4288 30.7065 19.9266 30.7065 19.3047C30.7065 18.6829 31.2043 18.1807 31.8182 18.1807ZM23.1669 18.1807C23.7788 18.1807 24.2765 18.6829 24.2765 19.3047C24.2765 19.9266 23.7787 20.4288 23.1669 20.4288C22.553 20.4288 22.0552 19.9266 22.0552 19.3047C22.0552 18.6829 22.553 18.1807 23.1669 18.1807ZM27.4916 18.1807C28.1054 18.1807 28.6033 18.6829 28.6033 19.3047C28.6033 19.9266 28.1054 20.4288 27.4916 20.4288C26.8796 20.4288 26.3819 19.9266 26.3819 19.3047C26.3819 18.6829 26.8796 18.1807 27.4916 18.1807Z" fill="#FFA49E"/>
<path d="M28.5196 10.5002C29.2251 10.5838 29.905 10.7521 30.549 10.9952L30.549 9.75394C30.549 8.77336 29.7581 7.97412 28.792 7.97412L27.9744 7.97412C28.3096 8.29854 28.5196 8.75494 28.5196 9.25978L28.5196 10.5002Z" fill="#CE4545"/>
<path d="M27.95 7.9741L27.95 0.56171C27.95 0.250789 27.702 -0.000366206 27.3951 -0.000366208C27.0881 -0.000366209 26.8402 0.250789 26.8402 0.56171L26.8402 7.97403L27.95 7.9741Z" fill="#9299D5"/>
</svg>
