<svg width="47" height="39" viewBox="0 0 47 39" fill="none" xmlns="http://www.w3.org/2000/svg">
<path d="M35.576 16.7328L35.576 15.6294C35.576 14.7578 36.2791 14.0474 37.1378 14.0474L39.4464 14.0474C40.3069 14.0474 41.0082 14.7578 41.0082 15.6294L41.0082 16.7327C43.9661 17.8487 46.0732 20.7341 46.0732 24.1193C46.0732 28.4723 42.5893 31.9997 38.2921 31.9997C33.995 31.9997 30.5128 28.4723 30.5128 24.1193C30.5128 20.7343 32.6187 17.8488 35.576 16.7328Z" fill="#1CC861"/>
<path d="M31.1533 20.9836C31.3911 21.0894 31.6243 21.264 31.8472 21.5078C32.2914 21.995 32.7584 21.995 33.2027 21.5078C33.9897 20.6468 34.9044 20.6468 35.6914 21.5078C36.1357 21.995 36.6026 21.995 37.0486 21.5078C37.834 20.6468 38.7504 20.6468 39.5374 21.5078C39.9817 21.995 40.4487 21.995 40.8929 21.5078C41.6799 20.6468 42.5946 20.6468 43.3817 21.5078C43.8259 21.995 44.2946 21.995 44.7389 21.5078C44.9618 21.2639 45.1949 21.0893 45.4325 20.9836C45.8445 21.9446 46.0734 23.0047 46.0734 24.1193C46.0734 25.2389 45.8424 26.3036 45.4269 27.2679C45.1302 27.1593 44.8436 26.9627 44.5833 26.6776C44.209 26.2683 43.9117 26.2683 43.5374 26.6776C42.6961 27.5988 41.5803 27.5988 40.7391 26.6776C40.3631 26.2683 40.0675 26.2683 39.6914 26.6776C38.8501 27.5988 37.7343 27.5988 36.8931 26.6776C36.5188 26.2683 36.2215 26.2683 35.8472 26.6776C35.006 27.5988 33.8901 27.5988 33.0489 26.6776C32.6729 26.2683 32.3756 26.2683 32.0013 26.6776C31.7413 26.9623 31.4552 27.1587 31.1589 27.2674C30.7438 26.3032 30.513 25.2387 30.513 24.1193C30.5128 23.0048 30.7415 21.9446 31.1533 20.9836Z" fill="#92DD7A"/>
<path d="M30.8166 21.9314C30.9155 21.9812 31.017 22.0647 31.1249 22.1827C31.9662 23.1039 33.082 23.1039 33.9232 22.1827C34.2992 21.7734 34.5948 21.7734 34.9709 22.1827C35.8121 23.1039 36.928 23.1039 37.7692 22.1827C38.1434 21.7734 38.4408 21.7734 38.815 22.1827C39.6563 23.1039 40.7722 23.1039 41.6134 22.1827C41.9894 21.7734 42.2867 21.7734 42.661 22.1827C43.5022 23.1039 44.6181 23.1039 45.4593 22.1827C45.5677 22.064 45.6697 21.9809 45.769 21.931C45.9668 22.6257 46.0731 23.3598 46.0731 24.1191C46.0731 24.8863 45.9645 25.6276 45.7626 26.3287C45.6088 26.2755 45.4558 26.1673 45.3053 26.0024C44.5183 25.1414 43.6019 25.1414 42.8148 26.0024C42.3706 26.4896 41.9037 26.4896 41.4594 26.0024C40.6723 25.1414 39.7576 25.1414 38.9706 26.0024C38.5264 26.4896 38.0593 26.4896 37.6134 26.0024C36.8281 25.1414 35.9117 25.1414 35.1246 26.0024C34.6804 26.4896 34.2134 26.4896 33.7691 26.0024C32.9821 25.1414 32.0674 25.1414 31.2804 26.0024C31.1301 26.1673 30.9769 26.2755 30.8229 26.3287C30.6212 25.6276 30.5126 24.8863 30.5126 24.1191C30.5128 23.3599 30.619 22.626 30.8166 21.9314Z" fill="#FF4236"/>
<path d="M30.5128 24.1193C30.5128 23.3601 30.6195 22.6265 30.8175 21.9321C30.9161 21.982 31.0173 22.0652 31.1249 22.1828C31.4982 22.5916 31.9255 22.8186 32.3589 22.8646C32.3316 23.1326 32.3167 23.4045 32.3167 23.68C32.3167 24.2558 32.3783 24.817 32.4941 25.3577C32.079 25.3679 31.6646 25.5824 31.2806 26.0026C31.1303 26.1674 30.9771 26.2757 30.8231 26.3288C30.6213 25.6278 30.5128 24.8865 30.5128 24.1193Z" fill="#FF3023"/>
<path d="M38.2922 16.2389C37.3367 16.2389 36.4217 16.4137 35.5761 16.7328L35.5761 15.6294C35.5761 14.7578 36.2792 14.0474 37.1379 14.0474L39.4465 14.0474C40.307 14.0474 41.0083 14.7578 41.0083 15.6294L41.0083 16.7327C40.1626 16.4136 39.2476 16.2389 38.2922 16.2389Z" fill="#448E44"/>
<path d="M37.8846 14.0473L37.8846 0.499265C37.8846 0.222886 38.105 -0.000366215 38.3779 -0.000366214C38.6507 -0.000366212 38.8711 0.222886 38.8711 0.499265L38.8711 14.0472L37.8846 14.0472L37.8846 14.0473Z" fill="#9299D5"/>
<path d="M37.38 16.2928C36.7529 16.3671 36.1485 16.5167 35.576 16.7328L35.576 15.6294C35.576 14.7578 36.2791 14.0474 37.1378 14.0474L37.8646 14.0474C37.5666 14.3357 37.38 14.7414 37.38 15.1902L37.38 16.2928Z" fill="#418441"/>
<path d="M11.1703 28.8125C11.937 28.8125 12.5585 28.1829 12.5585 27.4062C12.5585 26.6296 11.937 26 11.1703 26C10.4036 26 9.7821 26.6296 9.7821 27.4062C9.7821 28.1829 10.4036 28.8125 11.1703 28.8125Z" fill="#9299D5"/>
<path d="M13.2787 37.4633C14.0454 37.4633 14.6669 36.8337 14.6669 36.057C14.6669 35.2804 14.0454 34.6508 13.2787 34.6508C12.512 34.6508 11.8905 35.2804 11.8905 36.057C11.8905 36.8337 12.512 37.4633 13.2787 37.4633Z" fill="#9299D5"/>
<path d="M21.9411 31.9826C22.6978 31.8583 23.2118 31.1362 23.0892 30.3696C22.9665 29.6031 22.2536 29.0824 21.4969 29.2066C20.7402 29.3309 20.2262 30.0531 20.3488 30.8196C20.4715 31.5862 21.1844 32.1068 21.9411 31.9826Z" fill="#9299D5"/>
<path d="M29.0629 38.1383C29.8296 38.1383 30.4511 37.5087 30.4511 36.7321C30.4511 35.9554 29.8296 35.3258 29.0629 35.3258C28.2962 35.3258 27.6747 35.9554 27.6747 36.7321C27.6747 37.5087 28.2962 38.1383 29.0629 38.1383Z" fill="#9299D5"/>
<path d="M20.1783 7.8125C19.4116 7.8125 18.7901 7.1829 18.7901 6.40625C18.7901 5.6296 19.4116 5 20.1783 5C20.945 5 21.5665 5.6296 21.5665 6.40625C21.5665 7.1829 20.945 7.8125 20.1783 7.8125Z" fill="#9299D5"/>
<path d="M18.0699 16.4633C17.3032 16.4633 16.6817 15.8337 16.6817 15.057C16.6817 14.2804 17.3032 13.6508 18.0699 13.6508C18.8366 13.6508 19.4581 14.2804 19.4581 15.057C19.4581 15.8337 18.8366 16.4633 18.0699 16.4633Z" fill="#9299D5"/>
<path d="M9.40752 10.9826C8.65079 10.8583 8.13679 10.1362 8.25946 9.36961C8.38213 8.60306 9.09502 8.08238 9.85175 8.20664C10.6085 8.3309 11.1225 9.05306 10.9998 9.81961C10.8771 10.5862 10.1642 11.1068 9.40752 10.9826Z" fill="#9299D5"/>
<path d="M2.28573 17.1383C1.51904 17.1383 0.897508 16.5087 0.897508 15.7321C0.897508 14.9554 1.51904 14.3258 2.28573 14.3258C3.05242 14.3258 3.67395 14.9554 3.67395 15.7321C3.67395 16.5087 3.05242 17.1383 2.28573 17.1383Z" fill="#9299D5"/>
</svg>
