<?xml version="1.0" encoding="UTF-8"?><svg id="a" xmlns="http://www.w3.org/2000/svg" width="640" height="140" viewBox="0 0 640 140"><path d="M460.64,45.65c-2.44-.84-4.92-1.54-7.43-2.11-5.94-1.19-11.91-1.76-17.89-.28-10.01,2.48-16.82,8.73-20.89,18.08-2.45,5.65-3.4,11.84-2.74,17.96,.81,9.4,8.71,16.59,18.13,16.53,4.26,.08,8.51-.4,12.64-1.45,1.27-.37,1.25-.36,1.44-1.64,1.14-7.68,2.32-15.33,3.43-23.03,.12-.83,.35-1.18,1.25-1.16,3.07,.05,6.13,0,9.26,0,1.14,0,1.17,0,1.02,1.17-1.31,8.05-2.6,16.08-3.9,24.11-.4,2.46-.8,4.93-1.17,7.4-.02,.75-.55,1.39-1.27,1.57-8.66,3.05-17.84,4.33-27,3.81-5.44-.25-10.74-1.85-15.42-4.66-5.65-3.41-9.56-9.08-10.77-15.56-3.22-16.36,.57-30.85,12.8-42.62,7.07-6.84,16.3-11,26.11-11.74,3.88-.26,7.78-.17,11.65,.26,4.29,.39,8.54,1.11,12.73,2.15,1.3,.32,1.31,.32,.94,1.55-.98,3.2-1.96,6.39-2.94,9.66h.02Z" style="fill:#323232;"/><path d="M482.15,70.18c1.97-3.67,4.64-6.91,7.88-9.53,2.97-2.39,6.7-3.64,10.51-3.55,5.89,.17,9.76,3.87,10.1,9.78,.08,1.54,.01,3.09-.2,4.61-.62,4.75-1.13,9.51-1.69,14.26-.74,6.29-1.46,12.58-2.19,18.86-.06,.52,0,1.02-.8,1.02h-11.32c.36-2.41,.69-4.7,1.02-7,1.02-6.77,2.05-13.55,3.07-20.35,.34-1.67,.56-3.37,.65-5.06,.05-.79-.03-1.6-.25-2.36-.3-1.35-1.51-2.31-2.89-2.31-1.45-.08-2.87,.36-4.01,1.26-1.57,1.1-2.93,2.49-4,4.09-4.61,6.42-7.5,13.92-8.41,21.78-.33,3.07-.61,6.04-.87,9.06-.05,.54-.13,.9-.8,.9h-11.31c.37-2.37,.7-4.61,1.02-6.85,1.22-7.82,2.46-15.66,3.71-23.52,1.12-7.13,2.25-14.3,3.39-21.47,.34-2.11,.66-4.2,1.02-6.31,.11-.67-.07-1.02-.78-1.02-1.96-.2-3.9-.43-5.87-.66-1.39-.16-1.43-.19-1.25-1.56,.25-1.85,.54-3.68,.79-5.53,.07-.49,.19-.83,.83-.89,6-.48,11.99-1.02,18.01-1.02,.29-.05,.59,.03,.79,.24-.1,1.51-.33,3.01-.67,4.48-.93,5.61-1.85,11.25-2.88,16.82-.7,3.77-1.93,7.4-2.88,11.1-.26,.29,0,.64-.14,.94-.09,.2-.17,.4-.24,.62h.02c.04-.14,.1-.28,.17-.4,.13-.17,.29-.32,.47-.44v.02h0Z" style="fill:#323232;"/><path d="M230.43,44.04c-2.85-.71-5.53-1.39-8.26-1.79-8.23-1.22-15.68,.35-21.84,6.3-3.12,3.09-5.48,6.84-6.91,10.99-2.46,6.72-3.34,13.92-2.56,21.05,.17,1.53,.51,3.05,1.02,4.5,1.81,5.12,5.55,8.04,10.8,9.1,4.21,.71,8.49,.76,12.72,.17,4.39-.46,8.72-1.47,12.86-2.98,1.55-.57,1.57-.5,1.9,1.08,.64,2.47,1.07,4.99,1.29,7.53,0,1.38,.09,1.47-1.15,1.85-6.36,1.92-12.68,3.96-19.43,4.24-4.2,.3-8.41,.16-12.58-.4-6.3-1.02-11.79-3.55-15.76-8.79-2.73-3.65-4.37-7.99-4.75-12.53-1.25-11.25,.99-22.6,6.41-32.53,4.83-9.25,13.39-15.98,23.52-18.48,3.34-.85,6.77-1.31,10.22-1.34,4.82-.11,9.62,.36,14.32,1.42,.7,.15,.89,.41,.72,1.02-.82,3.17-1.66,6.3-2.53,9.59h-.01Z" style="fill:#323232;"/><path d="M275.47,59.41c.1,.26,.1,.55,0,.79-4.54,13.42-9.5,26.61-16.28,39.12-3.71,7.01-8.26,13.53-13.56,19.43-1.02,1.13-2.05,2.28-3.15,3.4-3.85,3.98-9.04,6.41-14.56,6.82-2.86,.31-5.75,.24-8.59-.22-.64-.1-.91-.27-.78-1.02,.54-3.13,1.02-6.28,1.5-9.49,1.55,.29,2.97,.73,4.45,.92,6.37,.8,12.79-4.09,14.01-10.84,.31-2.59,.27-5.21-.13-7.79-.55-6.57-1.45-13.11-2.71-19.57-1.32-6.78-3.07-13.47-5.23-20.04-.25-.48-.37-1.02-.35-1.56,.21,0,.41-.07,.62-.07h11.18c.67-.13,1.31,.3,1.44,.97v.06c1.65,5.72,2.9,11.56,3.74,17.45,.91,5.67,1.37,11.41,1.39,17.16,.42-.45,.75-.99,.96-1.57,5.24-10.63,9.87-21.55,13.85-32.72,.56-1.55,.46-1.31,1.91-1.31h9.1c.4-.05,.81,0,1.2,.1v-.02h-.01Z" style="fill:#323232;"/><path d="M599.68,68.59h-7.47c.06-1.38,.26-2.75,.59-4.09,.2-1.37,.49-2.72,.68-4.09,.11-.85,.52-1.13,1.37-1.09h4.63c1.31,0,1.33,0,1.52-1.25,.47-2.98,.91-5.98,1.37-8.97,.16-1.1,.35-2.21,.52-3.31,.06-.38,.15-.69,.65-.77l11.15-1.95s.08,.06,.27,.23c-.85,5.38-1.73,10.86-2.63,16.52h12.39c-.08,1.32-.28,2.63-.61,3.91-.21,1.26-.48,2.5-.67,3.78-.11,.82-.45,1.15-1.34,1.13-2.76-.06-5.53,0-8.31,0-1.74,0-1.46-.24-1.74,1.51-1.02,6.45-1.99,12.93-2.98,19.43-.24,1.2-.38,2.42-.44,3.64,0,2.47,.9,3.47,3.37,3.74,1.11,.07,2.23,.07,3.34,0,1.05,0,2.1-.14,3.13-.39,.46,.3,.26,.7,.22,1.02-.27,2.43-.56,4.87-.83,7.29-.06,.46-.07,.87-.76,1.02-4.07,.9-8.24,1.16-12.38,.78-5.59-.72-8.34-3.86-8.67-9.64-.03-2.82,.23-5.64,.76-8.42,.95-6.69,1.91-13.26,2.9-20.03h-.03Z" style="fill:#323232;"/><path d="M551.8,103.95c2.84-2.2,5.22-4.94,7-8.07,1.18,.51,2.4,.96,3.64,1.33,3.65,1.11,7.59,.82,11.03-.8,2.38-1.11,3.41-3.94,2.3-6.32-.11-.25-.25-.48-.4-.71-.68-.97-1.49-1.82-2.42-2.55-1.55-1.29-3.16-2.52-4.64-3.9-2.85-2.4-4.52-5.93-4.57-9.65-.15-4.92,2.39-9.52,6.64-12,2.77-1.6,5.85-2.58,9.03-2.91,3.39-.51,6.68,.29,10,.54,.85,.07,2.05-.24,2.51,.59,.36,.65-.15,1.63-.31,2.45-.36,1.77-.71,3.54-1.02,5.33-.11,.67-.39,.75-.97,.59-2.46-.72-5.02-1-7.57-.84-.96,.06-1.89,.27-2.78,.63-2.38,.77-3.68,3.32-2.92,5.7,.14,.45,.36,.87,.63,1.26,.67,1.03,1.49,1.95,2.44,2.71,1.33,1.15,2.67,2.3,3.98,3.46,1.04,.93,1.98,1.96,2.8,3.07,4.13,5.35,3.45,12.97-1.54,17.52-3.06,2.78-6.91,4.54-11,5.03-6.35,.84-12.8,.35-18.95-1.45-.77-.2-1.53-.42-2.31-.65-.21-.08-.4-.17-.6-.29v-.07Z" style="fill:#323232;"/><path d="M375.15,69.58c1.31-2.5,2.9-4.84,4.78-6.96,1.75-2.04,4.1-3.48,6.72-4.09,1.47-.28,2.97-.28,4.45,0,.58,.09,.8,.37,.69,1.02-.68,3.34-1.32,6.69-1.91,10.03-.09,.46-.26,.62-.76,.47-2.88-.78-5.21,.32-7.29,2.2-1.6,1.48-2.95,3.21-4,5.12-2.9,5.22-4.87,10.9-5.8,16.8-.63,3.56-1.12,7.15-1.69,10.71-.14,.91-.67,1.37-1.57,1.37h-8.94c-.4,.06-.81-.01-1.16-.23,.34-2.21,.69-4.46,1.02-6.72,1.24-8.04,2.47-16.08,3.73-24.12,.25-1.58,.47-3.16,.67-4.74,.51-3.43-.49-6.9-2.77-9.51-.09-.12-.16-.27-.37-.59l16.2-1.64c-.58,3.52-1.57,6.8-2.3,10.15-.06,.63-.21,1.26-.43,1.85-.09,.3-.22,.6-.3,.89,0,.08-.06,.17-.1,.27,.07-.07,.11-.16,.12-.27,.07-.23,.14-.45,.24-.68,.08-.55,.37-1.04,.81-1.36v.02h-.04Z" style="fill:#323232;"/><path d="M316.3,68.86c-.25-2.12-.87-4.18-1.85-6.07-1.31-2.63-3.81-4.47-6.71-4.92-1.84-.33-3.73-.31-5.56,.07-3.4,.75-6.5,2.48-8.93,4.97-2.17,2.19-4.05,4.66-5.6,7.33-.22,.22-.41,.45-.57,.72,.14-.44,.05-.95,.21-1.4,.85-3.4,1.78-6.78,2.54-10.22,1.24-5.5,1.95-11.1,2.91-16.65,.33-1.86,.63-3.74,.94-5.65-.35,0-.56-.1-.76-.1-6.07,0-12.12,.51-18.17,1.02-.62,.05-.78,.32-.85,.89-.24,1.9-.52,3.8-.79,5.68-.16,1.17-.15,1.24,1.02,1.39,1.65,.2,3.29,.31,4.93,.52,2.1,.29,2.05,.32,1.71,2.46-.93,5.72-1.83,11.45-2.74,17.17-1.25,7.78-2.48,15.55-3.73,23.32-.77,4.83-1.54,9.66-2.31,14.49-.2,1.26-.16,1.29,1.02,1.5,5.44,1.03,10.97,1.48,16.51,1.36,11.88-.28,20.79-6.5,24.83-17.38,2.33-6.57,2.99-13.61,1.93-20.49h.02Zm-29.44,2.5l.08-.09-.09,.21c0,.13-.06,.16-.07,.08s.08-.08,.08-.2h0Zm18.74,5.99c-.21,4.2-1.29,8.32-3.18,12.07-.25,.48-.5,.94-.78,1.39-2.82,4.39-6.69,6.9-12.07,6.61-1.11,.03-2.23-.05-3.33-.23-1.2-.27-1.24-.28-1.02-1.43,.44-3.05,1.16-6.04,2.16-8.95,1.57-4.69,3.85-9.12,6.75-13.13,1-1.38,2.19-2.6,3.54-3.65,3.49-2.58,6.25-1.68,7.51,2.43,.45,1.58,.6,3.24,.44,4.89h-.02Z" style="fill:#323232;"/><path d="M559.15,70.78c-1.13-5.05-4.84-9.13-9.76-10.73-1.66-.58-3.37-.96-5.11-1.11-10.77-1.02-19.3,2.79-25.27,11.86-3.65,5.53-4.97,11.78-4.83,18.4,0,1.28-.07,2.55,0,3.84,.46,6.54,4.09,10.97,10.39,12.79,2.73,.73,5.55,1.05,8.37,.96,5.79,0,11.42-1.96,15.97-5.54,10.08-7.78,12.5-21.47,10.22-30.45h.01v-.02Zm-13,13.99c-.78,2.94-2.27,5.65-4.35,7.87-2.76,2.86-6.06,4.24-10.1,3.49-2.79-.37-4.99-2.57-5.36-5.37-.23-1.2-.33-2.43-.31-3.65-.05-3.9,.83-7.76,2.57-11.25,.77-1.51,1.79-2.9,3.01-4.09,2.7-2.78,6.69-3.88,10.43-2.87,2.74,.48,4.82,2.72,5.11,5.48,.45,3.5,.1,7.05-1.01,10.38h0Z" style="fill:#323232;"/><path d="M332.12,87.06c3.61-.25,7.19-.75,10.73-1.49,3.82-.72,7.47-2.15,10.78-4.21,3.77-2.3,5.94-6.5,5.61-10.9,.02-5.01-3.33-9.42-8.18-10.7-3.84-1.21-7.92-1.41-11.86-.55-5.55,1.13-10.45,4.33-13.72,8.94-6.19,8.47-7.9,18.03-6.03,28.2,1.16,6.35,5.26,9.81,11.72,10.61,7.48,.81,15.06-.08,22.15-2.6,.64-.11,1.11-.67,1.11-1.32,.1-1.16,.41-2.32,.55-3.47,.22-1.89,.73-3.75,.78-5.68-.51,.01-1,.19-1.41,.49-2.5,1.31-5.18,2.25-7.95,2.8-3.47,.84-7.07,1.03-10.61,.52-3.01-.5-4.35-1.83-4.87-4.85-.15-1.43-.2-2.87-.12-4.3-.03-1.6-.02-1.38,1.31-1.49h.01Zm5.74-18.3c1.67-1.28,3.74-1.91,5.83-1.79,1.74,.07,3.31,.51,4.09,2.25,.82,1.73,.59,3.78-.62,5.27-.8,1.01-1.86,1.78-3.07,2.24-2.37,.97-4.87,1.56-7.41,1.77-1.56,.29-3.15,.38-4.73,.27,1.06-3.92,2.61-7.47,5.91-10h0Z" style="fill:#323232;"/><path d="M154.52,70.87c-.23,38.37-31.5,69.28-69.87,69.06-.7,0-1.39-.02-2.09-.04-37.72-1.24-68.4-32.55-67.24-71.4C15.98,30.05,47.68-.58,86.11,.08c38.44,.66,69.06,32.36,68.4,70.8h0Z" style="fill:#fecb00;"/><path d="M66.27,112.2h-6.13c-3.89,.05-7.47-2.13-9.2-5.62-1.55-3.16-2.46-6.59-2.64-10.11-.76-8.09,.12-16.14,.7-24.19,.32-4.4,.7-8.81,.73-13.29,.08-18.12,14.29-33.04,32.38-33.99,18.28-1.02,34.23,12.03,35.99,30.32,.76,7.89,2.47,15.52,3.82,23.27,.65,3.41,.76,6.89,.35,10.32-.76,5.56-3.94,10.51-8.68,13.51-5.43,3.71-11.58,5.55-17.91,6.86-2.82,.59-5.66,1.02-8.52,1.44-6.93,.84-13.89,1.33-20.87,1.46h-.01v.02Z" style="fill:#313131;"/><path d="M63.71,60.78c-.08-4.39,1.24-8.7,3.76-12.3,4.88-6.8,12.9-6.8,17.82,0,5.12,7.06,5.12,18.4-.06,25.48-4.88,6.63-12.76,6.67-17.64,0-2.77-3.82-3.87-8.18-3.87-13.18h-.01Z" style="fill:#fecb00;"/><path d="M116.04,57.8c0,4.82-.85,8.18-2.95,11.13-3.81,5.36-10,5.46-14.01,.27-4.36-5.68-4.16-15.48,.44-20.98,3.57-4.25,8.88-4.44,12.63-.34,2.46,2.73,3.85,6.26,3.9,9.93h-.01Z" style="fill:#fecb00;"/></svg>