<?xml version="1.0" encoding="UTF-8"?><svg id="a" xmlns="http://www.w3.org/2000/svg" width="640" height="140" viewBox="0 0 640 140"><path d="M238.24,83.16l-3.81,12.92h-39.01v-1.82l5.05-3.48V49.2l-5.05-3.48v-1.82h40.83l.91,.91-2.57,11.68h-1.82c-1.66-7.21-4.06-8.2-15.99-8.2h-5.71v19.13l18.8-1.16,.41,.33-1.74,6.13-.5,.17-16.98-1.65v20.45h5.38c9.69,0,14.74-1.49,19.96-9.19l1.82,.66Zm401.76-37.44l-5.05,3.48v46.21l-.66,.67h-8.03l-29.65-40.99v35.69l5.97,3.48v1.82h-16.4v-1.82l5.05-3.48V49.04l-5.8-3.32v-1.82h15.65l28.49,39.59V49.2l-5.96-3.48v-1.82h16.4v1.82Zm-85.3,45.06l5.96,3.48v1.82h-21.53v-1.82l5.05-3.48V49.2l-5.05-3.48v-1.82h21.86c15.24,0,23.1,5.22,23.1,15.24,0,11.43-11.1,19.22-27.58,19.22-.75,0-1.41,0-1.82-.09v12.51Zm-19.71-45.06l-5.14,3.4-17.06,46.96h-9.86l-18.14-46.71-5.3-3.65v-1.82h21.37v1.82l-5.22,3.56,14.74,37.85h.58l12.42-37.93-5.3-3.48v-1.82h16.9v1.82Zm19.71,28.24c11.59,.33,18.63-5.22,18.63-14.57,0-7.71-3.97-11.6-11.93-11.6-2.24,0-4.8,.58-6.71,1.49v24.68Zm-219.97,.5c0,13-8.7,22.28-20.87,22.28-3.56,0-6.54-.91-9.44-2.15v12.75l5.96,3.48v1.82h-21.12v-1.82l5.14-3.48V61.96l-5.14-3.07v-1.82l13.67-2.73,1.49,1v5.8c3.23-4.14,8.36-6.71,13.67-6.71,9.85,0,16.65,8.61,16.65,20.04h0Zm33.38-10.93h-1.82c-1.33-.83-2.73-1.24-4.14-1.24-3.06,0-5.96,1.16-8.53,3.39v25.1l6.13,3.48v1.82h-21.37v-1.82l5.14-3.48v-28.82l-5.14-3.07v-1.82l13.75-2.73,1.49,1v6.54c2.65-4.31,7.29-7.37,11.93-7.37,2.16,0,3.98,.58,5.47,1.65l-2.9,7.37Zm31.14,11.43c-5.55,0-11.76-.16-18.55-.41,.91,9.28,5.96,14.66,14.24,14.66,4.97,0,8.2-1.24,10.93-3.56l1.74,1.33c-2.73,6.54-8.86,10.1-16.81,10.1-12.17,0-20.37-8.36-20.37-21.12s8.12-21.62,20.46-21.62c5.71,0,10.02,1.82,13.09,5.39,3.06,3.56,4.55,8.2,4.47,13.91l-1.24,1.24c-1.65,.08-4.31,.08-7.95,.08h0Zm16.4,9.36h1.74c3.23,5.3,7.95,8.36,12.01,8.36,3.65,0,5.88-1.9,5.88-4.89,0-3.4-1.99-5.22-6.96-7.12l-3.73-1.41c-7.04-2.65-11.26-6.87-11.26-12.42,0-6.87,6.46-12.17,16.07-12.17,5.55,0,10.85,1.33,14.74,3.64l-3.98,6.79h-1.66c-2.73-4.22-6.13-6.38-10.1-6.38-3.56,0-5.88,1.99-5.88,4.72,0,2.98,2.15,4.8,8.53,7.29l4.22,1.66c6.46,2.48,9.27,6.38,9.27,11.43,0,7.95-6.38,12.92-16.07,12.92-5.96,0-12.01-1.57-16.4-4.31l3.56-8.12Zm36.36,0h1.74c3.23,5.3,7.95,8.36,12.01,8.36,3.65,0,5.88-1.9,5.88-4.89,0-3.4-1.99-5.22-6.96-7.12l-3.73-1.41c-7.04-2.65-11.26-6.87-11.26-12.42,0-6.87,6.46-12.17,16.06-12.17,5.55,0,10.85,1.33,14.74,3.64l-3.97,6.79h-1.66c-2.73-4.22-6.12-6.38-10.1-6.38-3.56,0-5.88,1.99-5.88,4.72,0,2.98,2.16,4.8,8.53,7.29l4.22,1.66c6.46,2.48,9.28,6.38,9.28,11.43,0,7.95-6.38,12.92-16.07,12.92-5.96,0-12.01-1.57-16.4-4.31l3.56-8.12Zm-183.52-9.19l12.17,15.65,4.55,3.48v1.82h-20.62v-1.82l4.31-3.23-8.28-11.26-7.95,11.26,4.8,3.23v1.82h-16.4v-1.82l5.05-3.4,11.84-14.57-12.09-15.41-4.64-3.64v-1.82h20.54v1.82l-4.22,3.23,8.2,11.18,7.95-11.18-4.8-3.23v-1.82h16.4v1.82l-5.05,3.39-11.76,14.49Zm129.44-5.55c-.91-7.29-4.3-10.77-8.86-10.77-4.97,0-8.28,4.89-8.53,11.85l17.39-1.08Zm-73.13,9.11c0-9.19-4.47-16.81-11.68-16.81-2.98,0-5.88,1-8.69,3.07v21.78c2.32,3.56,5.88,5.3,10.1,5.3,6.3,0,10.27-4.97,10.27-13.34h0ZM39.66,131.37c-17.14,0-28.08-9.63-28.08-23.01,0-4.41,1.31-9.79,6.37-20.73H0L16.48,52.37h114.74c2.61,0,4.41-1.96,4.41-4.24s-1.79-4.25-4.41-4.25H38.36l8.16-17.46c5.06-10.77,16-17.79,27.91-17.79h39.01c22.52,0,39.17,15.5,39.17,35.74,0,24-22.03,43.26-47.5,43.26H29.71c-2.29,4.73,.32,8.49,5.87,8.49h60.06c9.96,0,17.63,7.02,17.63,15.99,0,10.28-9.95,19.26-21.22,19.26H39.66Z" style="fill:#da3940; fill-rule:evenodd;"/></svg>