<svg xmlns="http://www.w3.org/2000/svg" xmlns:xlink="http://www.w3.org/1999/xlink" width="498.612" height="319.632" viewBox="0 0 498.612 319.632">
  <defs>
    <radialGradient id="radial-gradient" cx="0.5" cy="0.5" r="0.498" gradientUnits="objectBoundingBox">
      <stop offset="0.097" stop-color="#f7cf32"/>
      <stop offset="0.269" stop-color="#f7ca33"/>
      <stop offset="0.442" stop-color="#f8be37"/>
      <stop offset="0.616" stop-color="#f9aa3f"/>
      <stop offset="0.648" stop-color="#faa641"/>
      <stop offset="0.706" stop-color="#f6a340"/>
      <stop offset="0.752" stop-color="#ec9d3d"/>
      <stop offset="0.795" stop-color="#db9139"/>
      <stop offset="0.835" stop-color="#c48232"/>
      <stop offset="0.873" stop-color="#a56d2a"/>
      <stop offset="0.91" stop-color="#7f5421"/>
      <stop offset="0.946" stop-color="#523615"/>
      <stop offset="0.981" stop-color="#1f1508"/>
      <stop offset="1"/>
    </radialGradient>
    <linearGradient id="linear-gradient" x1="0.5" x2="0.5" y2="1" gradientUnits="objectBoundingBox">
      <stop offset="0" stop-color="#fc8032"/>
      <stop offset="1" stop-color="#ff4500"/>
    </linearGradient>
    <linearGradient id="linear-gradient-3" x1="0.002" y1="-0.433" x2="1.358" y2="2.106" gradientUnits="objectBoundingBox">
      <stop offset="0" stop-color="#9299d5"/>
      <stop offset="1" stop-color="#fff"/>
    </linearGradient>
    <linearGradient id="linear-gradient-4" x1="1.162" y1="1.179" x2="0.953" y2="-0.108" gradientUnits="objectBoundingBox">
      <stop offset="0" stop-color="#f5f5ff"/>
      <stop offset="1" stop-color="#fff"/>
    </linearGradient>
    <clipPath id="clip-path">
      <rect id="Rectangle_10550" data-name="Rectangle 10550" width="153" height="48" rx="6" transform="translate(0.31 0.051)" fill="#d6d9ee"/>
    </clipPath>
    <linearGradient id="linear-gradient-5" x1="0.89" y1="1.832" x2="0.148" y2="-0.989" gradientUnits="objectBoundingBox">
      <stop offset="0" stop-color="#ced2ea"/>
      <stop offset="1" stop-color="#b9bfe3"/>
    </linearGradient>
    <radialGradient id="radial-gradient-2" cx="0.159" cy="-0.299" r="1.673" gradientUnits="objectBoundingBox">
      <stop offset="0" stop-color="#fff"/>
      <stop offset="1" stop-color="#ece9ef"/>
    </radialGradient>
  </defs>
  <g id="Group_51735" data-name="Group 51735" transform="translate(-1439.229 -605.481)">
    <g id="Group_48332" data-name="Group 48332" transform="translate(1633.305 723.389)" opacity="0.15">
      <path id="Path_18639" data-name="Path 18639" d="M2113.2,1128.662c-24.638-32.44-18.452-78.586,13.791-103.079,32.26-24.494,78.371-18.059,103,14.38s18.447,78.576-13.8,103.07S2137.828,1161.091,2113.2,1128.662Z" transform="translate(-2098.113 -1010.713)" opacity="0.2" fill="url(#radial-gradient)" style="mix-blend-mode: screen;isolation: isolate"/>
    </g>
    <path id="Path_18937" data-name="Path 18937" d="M175.87,0C273,0,351.74,6.2,351.74,13.838S273,27.677,175.87,27.677,0,21.481,0,13.838,78.74,0,175.87,0Z" transform="translate(1488.352 844.9)" opacity="0.17" style="mix-blend-mode: overlay;isolation: isolate"/>
    <path id="Path_18640" data-name="Path 18640" d="M1440.172,1106.857l19.141-5.029-13.926-14.062Z" transform="translate(-0.621 -341.686)" opacity="0.5" fill="url(#linear-gradient)"/>
    <path id="Path_18641" data-name="Path 18641" d="M2878.652,774.45l7.716-18.225-19.641,2.43Z" transform="translate(-1007.077 -107.779)" opacity="0.5" fill="url(#linear-gradient)"/>
    <g id="Group_48367" data-name="Group 48367" transform="translate(1434.229 623.584)">
      <g id="Group_48337" data-name="Group 48337" transform="translate(300.293 50.318)">
        <path id="Path_18642" data-name="Path 18642" d="M2410.234,963.326a111.235,111.235,0,0,0-16.3,34.285,84.232,84.232,0,0,0-3,15.149l4.159-2.25a19.7,19.7,0,0,0,4.848,2.251c30.219,9.573,85.179-48.6,114.8-67.618,20.688-13.244,15.421-24.91,14.015-32.479-.751-3.921-.451-6.74,4.858-8.161,15.717-4.194-2.388-5.522,16.413-14.729,18.8-9.25,17.852-24.915-1.294-40.146-19.123-15.211-31.834-4.538-38.512,22.751-7.909,32.235-29.416,2.143-39.882,23.4s-12.558,26.5-36.793,44A102.071,102.071,0,0,0,2410.234,963.326Z" transform="translate(-2390.94 -842.668)" fill="#343f91"/>
        <path id="Path_18643" data-name="Path 18643" d="M2489.375,1173.074a111.258,111.258,0,0,0-16.3,34.285,84.339,84.339,0,0,0-3,15.149l4.159-2.249a19.758,19.758,0,0,0,4.847,2.25c.795-2.9.7-6.811-1.368-12.043-6.158-15.658,14.33-.939,13.962-20.42C2491.437,1176.774,2491.757,1179.65,2489.375,1173.074Z" transform="translate(-2446.775 -1075.775)" fill="#231f20" opacity="0.1"/>
        <g id="Group_48333" data-name="Group 48333" transform="translate(18.22 22.434)" opacity="0.1">
          <path id="Path_18644" data-name="Path 18644" d="M2588.667,919.55c-.672,10.1-8.8,16.955-17.139,21.49-5.479,2.978-11.312,5.375-16.409,9.016-6.011,4.295-9.379,10.343-12.908,16.651a53.8,53.8,0,0,1-11.2,14.346c-4.641,4.142-9.808,7.637-14.594,11.6-10.73,8.882-18.914,20.036-28.284,30.223a70.041,70.041,0,0,1-15.21,13.02c-5.9,3.535-15.361,4.55-18.649,11.117a.77.77,0,0,1-1.372-.7c2.145-4.286,6.266-6.084,10.546-7.729a53.967,53.967,0,0,0,17.412-10.6c9.286-8.434,16.509-18.862,25.243-27.835a129.532,129.532,0,0,1,13.946-12.322c5.524-4.25,11.3-8.38,15.681-13.874,4.129-5.178,6.586-11.406,10.336-16.832a36.241,36.241,0,0,1,11.571-10.533c11.021-6.585,28.474-11.622,29.5-26.971.065-.978,1.6-1.058,1.537-.071Z" transform="translate(-2452.812 -918.848)" fill="#fff"/>
        </g>
        <g id="Group_48335" data-name="Group 48335" transform="translate(39.11 104.44)">
          <path id="Path_18645" data-name="Path 18645" d="M2523.747,1263.675s8.571,13.156,26.317.391,5.752,17.748,30.151,11.054,5.386-.724,41.6-20.869,49.381,6.35,60.219-21.56-9.842-37.484-41.436-34.763-27.727-3.356-47.607,1.06,2.043,21.713-22.69,22.141-39.329,26.277-41.93,32.135S2523.747,1263.675,2523.747,1263.675Z" transform="translate(-2523.747 -1197.321)" fill="#3b49b5"/>
          <g id="Group_48334" data-name="Group 48334" transform="translate(14.877 22.763)" opacity="0.1">
            <path id="Path_18646" data-name="Path 18646" d="M2704.212,1278.714c-11.285-1.5-22.788-2.937-34.157-1.5a50.456,50.456,0,0,0-16.167,4.675c-5.862,2.915-10.652,7.421-16.147,10.907-8.715,5.527-18.8,6.729-28.7,8.781-12.792,2.653-24.04,8.451-32.971,18.084-.869.938-2.421-.322-1.544-1.267a60.337,60.337,0,0,1,28.734-17.509c12.54-3.347,25.122-3.856,36.079-11.588,9.551-6.739,17.9-12.327,29.748-13.973,11.764-1.634,23.737-.146,35.422,1.41a1,1,0,0,1-.3,1.976Z" transform="translate(-2574.267 -1274.618)" fill="#fff"/>
          </g>
        </g>
        <path id="Path_18647" data-name="Path 18647" d="M2442.345,1099.924a84.206,84.206,0,0,0-3,15.149l4.159-2.249c28.823,18.46,88.358-45.273,119.648-65.368,20.687-13.244,15.42-24.911,14.015-32.48-35.338-8.2-45.188,19.493-59.352,37.483-14.924,18.956-17.513-6.111-28.679,15.137-11.125,21.244-23.855-6.912-31.638,16.257C2454.629,1092.48,2448.74,1097.126,2442.345,1099.924Z" transform="translate(-2425.093 -963.19)" fill="#231f20" opacity="0.1"/>
        <path id="Path_18648" data-name="Path 18648" d="M2457.289,1120.806s1.21-9.518,22.334-2.659,30.7,38.133,44.1,9.591,17.32-8.7,45.4-31.961,8.261-38.867,32.568-41.37,44.844-26.818,4.657-39.609-50.317,16.926-65.244,35.886-17.523-6.116-28.662,15.129-23.867-6.923-31.651,16.264-37.129,17.537-40.493,25.357Z" transform="translate(-2425.767 -961.922)" fill="#38439f"/>
        <g id="Group_48336" data-name="Group 48336" transform="translate(23.629 71.195)" opacity="0.1">
          <path id="Path_18649" data-name="Path 18649" d="M2630.86,1085.973c-6.742-.066-13.9-.122-20.095,2.939-6.522,3.223-10.869,9.4-14.593,15.418-5.956,9.631-11.688,20.951-23.47,24.207-3.044.841-6.253,1.181-9.173,2.434-3.5,1.5-6.3,4.132-8.876,6.875-3.771,4.017-7.272,8.5-12.257,11.086-11.088,5.76-23.018.313-34.591.454-13.771.169-25.076,7.817-35.422,16.139-.771.62-1.684-.62-.912-1.24,8.447-6.793,17.526-13.333,28.342-15.58,6-1.248,11.93-.88,17.941.083,6.694,1.073,13.718,2.219,20.365.223,7.059-2.121,11.281-7.973,16.189-13.027a26.49,26.49,0,0,1,13.693-7.932c7.84-1.821,13.4-4.9,18.4-11.337,4.057-5.227,7-11.178,10.687-16.655,3.638-5.407,8.119-10.475,14.226-13.094,6.2-2.66,13.135-2.585,19.757-2.521.989.01.766,1.534-.212,1.524Z" transform="translate(-2471.178 -1084.428)" fill="#fff"/>
        </g>
      </g>
      <path id="Path_18650" data-name="Path 18650" d="M1916.584,686.113V879.888a14.311,14.311,0,0,1-14.313,14.313h-307a14.316,14.316,0,0,1-14.3-14.313V686.113a14.315,14.315,0,0,1,14.3-14.313h307A14.311,14.311,0,0,1,1916.584,686.113Z" transform="translate(-1517.389 -660.671)" fill="#7788b0"/>
      <rect id="Rectangle_10549" data-name="Rectangle 10549" width="319.327" height="206.111" rx="14" transform="translate(71.725 19.275)" fill="url(#linear-gradient-3)"/>
      <path id="Path_18651" data-name="Path 18651" d="M1915.142,906.7c.913.549,1.829,1.094,2.743,1.643h2.251a11.612,11.612,0,0,0,11.612-11.612V713.839a11.612,11.612,0,0,0-11.612-11.612h-296.1a11.606,11.606,0,0,0-11.239,8.74C1625.2,720.395,1884.833,888.458,1915.142,906.7Z" transform="translate(-1540.695 -682.953)" fill="#fff" opacity="0.5" style="mix-blend-mode: soft-light;isolation: isolate"/>
      <g id="Group_48357" data-name="Group 48357" transform="translate(78.532 66.047)">
        <g id="Group_48346" data-name="Group 48346" transform="translate(29.392 137.065)">
          <path id="Path_18656" data-name="Path 18656" d="M1778.922,1372.741s-10.85,48.665,8,52.639c19.193,4.045,31.435,3.185,65.256,0,33.317-3.138,20.466-42.819,9.706-52.639S1783.407,1364.3,1778.922,1372.741Z" transform="translate(-1775.815 -1365.882)" fill="#241442"/>
          <g id="Group_48345" data-name="Group 48345" transform="translate(28.44 2.929)">
            <g id="Group_48344" data-name="Group 48344" transform="translate(0 63.743)">
              <g id="Group_48343" data-name="Group 48343" transform="translate(1.577)">
                <g id="Group_48342" data-name="Group 48342" transform="translate(0 6.167)">
                  <path id="Path_18657" data-name="Path 18657" d="M1884.82,1632.425c-1.594,1.459,3.457,16.681,4.682,17.8l.82.749c.182.167.384.352.606.536l.01.009c.182.147.364.313.574.469a13.945,13.945,0,0,0,1.354.978.045.045,0,0,1,.029.009c.21.136.439.271.658.4a.013.013,0,0,0,.019,0c.189.1.387.186.575.265a.148.148,0,0,1,.059.017,4.059,4.059,0,0,0,.865.252l.009-.01a1.871,1.871,0,0,0,.516.026c.02.018.04.018.038,0,.02,0,.03.008.049.007a.721.721,0,0,0,.212-.029,1.749,1.749,0,0,0,.915-.371,2.4,2.4,0,0,0,.584-.6c2.078-3.005-3.707-17.3-3.707-17.3a8.314,8.314,0,0,0-2.461-4.647,8.088,8.088,0,0,0-2.612-1.329A27.27,27.27,0,0,0,1884.82,1632.425Z" transform="translate(-1884.512 -1629.653)" fill="#f5b297"/>
                  <path id="Path_18658" data-name="Path 18658" d="M1907.782,1697.4c.182.147.364.313.574.469a.845.845,0,0,0,1.073-.3c.911-1.1-1.225-4.147-1.5-4.532.141.333,1.284,3.086.861,3.814A.9.9,0,0,1,1907.782,1697.4Z" transform="translate(-1901.356 -1675.531)" fill="#f39683"/>
                  <path id="Path_18659" data-name="Path 18659" d="M1914.872,1705.146c.21.136.439.271.658.4a.013.013,0,0,0,.019,0,.712.712,0,0,0,.53-.3c.709-.856-.961-3.236-1.167-3.518.13.3.992,2.41.667,2.968A.783.783,0,0,1,1914.872,1705.146Z" transform="translate(-1906.489 -1681.825)" fill="#f39683"/>
                  <path id="Path_18660" data-name="Path 18660" d="M1919.622,1709.252a4.059,4.059,0,0,0,.865.252c.01.009.01.009.009-.01a.569.569,0,0,0,.168-.143c.58-.7-.789-2.652-.964-2.887.087.209.826,1.981.556,2.439A.586.586,0,0,1,1919.622,1709.252Z" transform="translate(-1909.927 -1685.253)" fill="#f39683"/>
                  <path id="Path_18661" data-name="Path 18661" d="M1924.641,1717.48a.154.154,0,0,0-.059-.017l.02.018C1924.623,1717.5,1924.642,1717.5,1924.641,1717.48Z" transform="translate(-1913.517 -1693.215)" fill="#f39683"/>
                  <path id="Path_18662" data-name="Path 18662" d="M1925.668,1709.828a.647.647,0,0,1-.383.337,1.747,1.747,0,0,0,.915-.371,5.659,5.659,0,0,0-1.088-2.406C1925.2,1707.6,1925.928,1709.36,1925.668,1709.828Z" transform="translate(-1913.901 -1685.922)" fill="#f39683"/>
                </g>
                <path id="Path_18663" data-name="Path 18663" d="M1899.372,1613.489a4.474,4.474,0,0,0,.632,2.4c1.658,2.778,5.946,3.614,5.946,3.614l6.322-6.592-5.117-4.379-1.423-1.207Z" transform="translate(-1895.268 -1607.322)" fill="#f5b297"/>
                <path id="Path_18664" data-name="Path 18664" d="M1884.82,1616.26c-1.594,1.459,3.457,16.681,4.682,17.8l.82.749c.084-.295-.09-.695-.666-1.2-2.221-1.919-3.022-15.207-2.722-16.51.2-.854,1.435-1.1,2.313-1.21a3.862,3.862,0,0,0,.906-.138c.037-.04.467-.409,1.074-.931,1.738-1.5,4.971-4.26,5.082-4.382l.089-1.906-1.423-1.207-6.36,6.167A27.269,27.269,0,0,0,1884.82,1616.26Z" transform="translate(-1884.512 -1607.322)" fill="#f39683" opacity="0.61"/>
              </g>
              <path id="Path_18665" data-name="Path 18665" d="M1878.861,1626.373c-.6,1.443,3.6,14.372,6.7,18.077a13.225,13.225,0,0,0,4.138,2.8,12.468,12.468,0,0,0,2.186.776c1.415.283,2.614.1,3.008-1.024,1.021-2.919-4.014-16.1-4.377-17.071a.154.154,0,0,0-.03-.054s3.857-1.575,3.909-3.813c0,0-3.752-3.162-6.1-5.125-.837-.712-1.593-1.164-2.06-1.06C1884.457,1620.25,1879.477,1624.944,1878.861,1626.373Z" transform="translate(-1878.803 -1616.401)" fill="#351e59"/>
              <path id="Path_18666" data-name="Path 18666" d="M1878.861,1626.373c-.6,1.443,3.6,14.372,6.7,18.077a13.225,13.225,0,0,0,4.138,2.8c-5.4-5.254-10.791-18.018-9.513-21.074,1.154-2.745,6.63-4.754,8.107-5.237-.837-.712-1.593-1.164-2.06-1.06C1884.457,1620.25,1879.477,1624.944,1878.861,1626.373Z" transform="translate(-1878.803 -1616.401)" fill="#241442" opacity="0.4"/>
              <path id="Path_18667" data-name="Path 18667" d="M1900.1,1663.682c1.415.283,2.615.1,3.008-1.024,1.021-2.919-4.014-16.1-4.377-17.071a.152.152,0,0,0-.03-.054s-4.062-5.439-7.676-3.694C1887.863,1643.355,1893.906,1658.6,1900.1,1663.682Z" transform="translate(-1887.023 -1632.057)" fill="#241442" opacity="0.4"/>
            </g>
            <path id="Path_18668" data-name="Path 18668" d="M1922.458,1435.258c18.661-15.389,57.51-84.631,97.179-48.42,22.1,20.169-49.413,51.186-89.88,63.363C1925.139,1451.592,1918.734,1438.329,1922.458,1435.258Z" transform="translate(-1909.595 -1376.489)" fill="#2b3e6d"/>
          </g>
        </g>
        <g id="Group_48352" data-name="Group 48352" transform="translate(17.576)">
          <path id="Path_18669" data-name="Path 18669" d="M1865.221,1098.893c.064-5.763-.747-11.591-1.238-17.334-.469-5.421-.918-10.864-1.579-16.287-1.238-9.968-16.719-41.163-20.774-50.426-2.266-5.129-23.215-17.322-35.765-19.16-7.532-1.1-8.771-3.492-16.35,0-2.8,2.9-24.3,11.144-30.145,17.627-10.615,11.771-17.977,43.635-22.2,59.388-1.6,5.934-3.608,12.188-4.056,18.358-.534,6.937,1.366,13.128,6.873,17.5a41.781,41.781,0,0,0,10.958,5.926c11.815,12.945,47.7,3.422,64.886,6.631,19.16,3.577,33.466-7.919,33.466-7.919l.111-.235a48.977,48.977,0,0,1,10.715-.966C1863.6,1108.627,1865.179,1104.08,1865.221,1098.893Zm-14.462-31.613a5.78,5.78,0,0,1,.706,2.9Q1851.123,1068.737,1850.759,1067.28Z" transform="translate(-1733.024 -959.525)" fill="#fd631a"/>
          <path id="Path_18670" data-name="Path 18670" d="M2048.906,1185.463h-21.133c.491-.193.982-.363,1.431-.555a40.127,40.127,0,0,0,3.949-1.985,19.423,19.423,0,0,0,6.318-5.828c3.116-4.525,4.312-9.776,5.742-14.985a.588.588,0,0,1,0-.192c.021-.4.47-.939.7-.32a27.4,27.4,0,0,1,1.131,6.319c.278,2.092.555,4.183.791,6.276.213,2.028.448,4.056.619,6.083A41.576,41.576,0,0,1,2048.906,1185.463Z" transform="translate(-1946.38 -1080.74)" fill="#231f20" opacity="0.15" style="mix-blend-mode: multiply;isolation: isolate"/>
          <path id="Path_18671" data-name="Path 18671" d="M1830.732,1185.463h21.133c-.491-.193-.982-.363-1.43-.555a40.061,40.061,0,0,1-3.949-1.985,19.427,19.427,0,0,1-6.318-5.828c-3.117-4.525-4.312-9.776-5.742-14.985a.582.582,0,0,0,0-.192c-.021-.4-.47-.939-.7-.32a27.438,27.438,0,0,0-1.131,6.319c-.277,2.092-.555,4.183-.79,6.276-.213,2.028-.448,4.056-.619,6.083A41.553,41.553,0,0,0,1830.732,1185.463Z" transform="translate(-1803.745 -1080.74)" fill="#231f20" opacity="0.15" style="mix-blend-mode: multiply;isolation: isolate"/>
          <path id="Path_18672" data-name="Path 18672" d="M1892.11,1257.727l-3.518,47.355a4.094,4.094,0,0,1-4.083,3.791h-86.256a4.094,4.094,0,0,1-4.083-3.791l-3.518-47.355a4.676,4.676,0,0,1,1.695-4,4.923,4.923,0,0,1,3.2-1.1h91.675a4.927,4.927,0,0,1,3.2,1.1A4.676,4.676,0,0,1,1892.11,1257.727Z" transform="translate(-1774.728 -1146.835)" fill="#dae4f8"/>
          <path id="Path_18673" data-name="Path 18673" d="M1890.816,1254.134a4.6,4.6,0,0,0-1.968-.946c.185,1.112.354,2.227.476,3.348a59.642,59.642,0,0,1-.027,12.738,40.8,40.8,0,0,1-8.4,20.227,30.111,30.111,0,0,1-15.737,10.424c-6.837,1.86-14.374,1.951-21.411,2.364-6.957.408-14.124.593-20.76-1.864a29.494,29.494,0,0,1-14.367-10.9c-1.813-2.661-2.9-5.728-4.167-8.668-1.425-3.306-2.9-6.6-4.62-9.76-2.158-3.975-4.834-8.389-8.644-11.113l3.381,45.51a4.093,4.093,0,0,0,4.082,3.79h86.257a4.093,4.093,0,0,0,4.083-3.79l3.518-47.355A4.674,4.674,0,0,0,1890.816,1254.134Z" transform="translate(-1775.128 -1147.242)" fill="#231f20" opacity="0.15" style="mix-blend-mode: multiply;isolation: isolate"/>
          <path id="Path_18674" data-name="Path 18674" d="M1973.665,1084.246c-3.941-16.384-5.982-43.934-5.364-62.03C1969.462,1039.515,1972.117,1065.742,1973.665,1084.246Z" transform="translate(-1903.252 -980.051)" fill="#e24b0a"/>
          <path id="Path_18675" data-name="Path 18675" d="M1971.921,1303.5a4.512,4.512,0,1,1-2.011-3.75A4.512,4.512,0,0,1,1971.921,1303.5Z" transform="translate(-1899.422 -1180.402)" fill="#241442"/>
          <path id="Path_18676" data-name="Path 18676" d="M1970.666,1302.257a2.768,2.768,0,1,1-.756-2.5A4.509,4.509,0,0,1,1970.666,1302.257Z" transform="translate(-1899.422 -1180.402)" fill="#2b3e6d"/>
          <g id="Group_48349" data-name="Group 48349" transform="translate(53.615)">
            <g id="Group_48348" data-name="Group 48348">
              <path id="Path_18677" data-name="Path 18677" d="M1954.818,968.716l1.852,9.874a21.925,21.925,0,0,1-5.081,2.477c-2.459.718-6.633-2.868-6.633-2.868l4.481-9.943Z" transform="translate(-1940.049 -940.992)" fill="#ff97a6"/>
              <g id="Group_48347" data-name="Group 48347">
                <path id="Path_18678" data-name="Path 18678" d="M1951.591,899.439c1.216,4.228,2.129,14.9-2.866,17.361s-9.336.573-11.711-3.521a29.255,29.255,0,0,1-2.7-5.323s-3.03-.819-2.047-3.44,2.375-.9,2.375-.9.737-8.107,6.551-11.3S1950.72,896.41,1951.591,899.439Z" transform="translate(-1930.72 -885.448)" fill="#ff97a6"/>
                <path id="Path_18679" data-name="Path 18679" d="M1962.811,901.084c-.616.028-1.234-.028-1.849.013-7.359.5-6.274-3.937-13.184-3.489a11.8,11.8,0,0,1,4.784-5.293c5.814-3.194,9.529,4.1,10.4,7.124.133.464.263,1.009.381,1.609C1963.165,901.061,1962.989,901.076,1962.811,901.084Z" transform="translate(-1942.09 -885.448)" fill="#404a4f" opacity="0.24"/>
                <path id="Path_18680" data-name="Path 18680" d="M1942.454,878.588a27.674,27.674,0,0,1,12.623,6.73c1.82,1.816,4.9.464,7.713-1.279,3.635-2.25,3.5-13.4-2.423-11.163-7.788,2.942-10.3-8.913-20.249.086C1934.016,878.481,1942.454,878.588,1942.454,878.588Z" transform="translate(-1934.942 -869.525)" fill="#2b3e6d"/>
                <path id="Path_18681" data-name="Path 18681" d="M1937,894.035s.164,8.271-5.9,10.4c0,0-5.241-1.965-3.6-6.879S1933.232,891.332,1937,894.035Z" transform="translate(-1927.183 -886.267)" fill="#2b3e6d"/>
                <path id="Path_18682" data-name="Path 18682" d="M1936.775,937.087s-1.064-1.208-1.535-.409.757,2.436.757,2.436-1-1.474-.491-1.965S1936.734,937.271,1936.775,937.087Z" transform="translate(-1932.937 -917.937)" fill="#404a4f" opacity="0.24"/>
              </g>
            </g>
            <path id="Path_18683" data-name="Path 18683" d="M1958.015,931.942a7.32,7.32,0,0,1-2.042,5.279,7.536,7.536,0,0,0-3.857-.332c-4.37.562-1.471,4.283-5.668,2.033s-4.111-11.076-4.111-11.422c0,0-.692-1-1.817,1.385a10.5,10.5,0,0,0-.909,4.846,26.341,26.341,0,0,0,.433,4.24c.433,2.38,6.966,7.139,13.975,5.755,4.262-.842,4.637-2.612,4.275-3.87C1959.4,937.069,1958.015,931.942,1958.015,931.942Z" transform="translate(-1936.168 -911.341)" fill="#2b3e6d"/>
          </g>
          <g id="Group_48350" data-name="Group 48350" transform="translate(55.119 33.145)">
            <path id="Path_18684" data-name="Path 18684" d="M1948.782,1005.679l.961,5.119s-5.04-.824-6.364-2.386Z" transform="translate(-1940.41 -1001.226)" fill="#e24b0a"/>
            <path id="Path_18685" data-name="Path 18685" d="M1941,994.006l-6.485,6.355s-6.088-8.838,3.606-10.808c0,0-.783,1.345-1.718,3.082C1937.445,994.907,1941,994.006,1941,994.006Z" transform="translate(-1932.629 -989.553)" fill="#e24b0a"/>
          </g>
          <g id="Group_48351" data-name="Group 48351" transform="translate(65.557 33.145)">
            <path id="Path_18686" data-name="Path 18686" d="M1971.386,1005.679l-.961,5.119s5.04-.824,6.365-2.386Z" transform="translate(-1970.425 -1001.226)" fill="#e24b0a"/>
            <path id="Path_18687" data-name="Path 18687" d="M1973.9,994.006l6.484,6.355s5.7-8.838-3.993-10.808a7.455,7.455,0,0,0,.758,3.737C1976.113,995.562,1973.9,994.006,1973.9,994.006Z" transform="translate(-1972.943 -989.553)" fill="#e24b0a"/>
          </g>
        </g>
        <g id="Group_48356" data-name="Group 48356" transform="translate(0 113.842)">
          <g id="Group_48355" data-name="Group 48355" transform="translate(31.193 94.701)">
            <g id="Group_48354" data-name="Group 48354" transform="translate(2.069)">
              <g id="Group_48353" data-name="Group 48353" transform="translate(0 8.255)">
                <path id="Path_18688" data-name="Path 18688" d="M1811.933,1659.522c.458,2.112-12.455,11.623-14.1,11.83l-1.1.138c-.245.031-.517.065-.8.087l-.014,0c-.233.015-.478.046-.739.052a14.023,14.023,0,0,1-1.67.016.049.049,0,0,0-.029-.01c-.25-.01-.515-.032-.767-.056a.013.013,0,0,1-.015-.012c-.211-.029-.423-.071-.622-.115a.149.149,0,0,0-.058-.021,4.043,4.043,0,0,1-.852-.294l0-.014a1.9,1.9,0,0,1-.436-.277c-.027,0-.042-.009-.031-.024-.015-.012-.029-.01-.044-.022a.716.716,0,0,1-.156-.146,1.741,1.741,0,0,1-.533-.831,2.385,2.385,0,0,1-.132-.826c.039-3.653,13.014-11.984,13.014-11.984a8.314,8.314,0,0,1,4.693-2.372,8.071,8.071,0,0,1,2.9.423A27.315,27.315,0,0,1,1811.933,1659.522Z" transform="translate(-1789.827 -1654.615)" fill="#f5b297"/>
                <path id="Path_18689" data-name="Path 18689" d="M1808.079,1706.489c-.233.015-.478.046-.74.052a.846.846,0,0,1-.7-.865c-.11-1.423,3.394-2.679,3.844-2.832-.307.191-2.83,1.779-2.9,2.617A.9.9,0,0,0,1808.079,1706.489Z" transform="translate(-1801.993 -1689.525)" fill="#f39683"/>
                <path id="Path_18690" data-name="Path 18690" d="M1800.292,1708.879c-.25-.01-.515-.032-.767-.056a.013.013,0,0,1-.015-.012.715.715,0,0,1-.262-.547c-.084-1.109,2.653-2.088,2.984-2.2-.282.174-2.2,1.4-2.259,2.039A.782.782,0,0,0,1800.292,1708.879Z" transform="translate(-1796.645 -1691.858)" fill="#f39683"/>
                <path id="Path_18691" data-name="Path 18691" d="M1795.354,1709.432a4.015,4.015,0,0,1-.852-.294c-.014,0-.014,0,0-.013a.565.565,0,0,1-.054-.214c-.072-.9,2.175-1.71,2.454-1.8-.192.12-1.819,1.14-1.863,1.671A.584.584,0,0,0,1795.354,1709.432Z" transform="translate(-1793.169 -1692.614)" fill="#f39683"/>
                <path id="Path_18692" data-name="Path 18692" d="M1792.949,1713.317a.146.146,0,0,1,.058.02l-.027,0C1792.953,1713.344,1792.938,1713.332,1792.949,1713.317Z" transform="translate(-1792.084 -1697.107)" fill="#f39683"/>
                <path id="Path_18693" data-name="Path 18693" d="M1790.719,1706.529a.648.648,0,0,0,.118.5,1.746,1.746,0,0,1-.533-.831,5.66,5.66,0,0,1,2.278-1.336C1792.39,1704.978,1790.777,1706,1790.719,1706.529Z" transform="translate(-1790.172 -1690.983)" fill="#f39683"/>
              </g>
              <path id="Path_18694" data-name="Path 18694" d="M1837.722,1633.428a4.478,4.478,0,0,1-1.9,1.592c-2.958,1.312-6.942-.482-6.942-.482l-1.355-9.033,6.706-.62,1.859-.165Z" transform="translate(-1817.115 -1624.721)" fill="#f5b297"/>
              <path id="Path_18695" data-name="Path 18695" d="M1830.031,1637.882c.458,2.112-12.455,11.624-14.1,11.83l-1.1.138c.1-.289.474-.515,1.237-.6,2.921-.284,11.248-10.67,11.755-11.908.326-.814-.535-1.729-1.19-2.324a3.853,3.853,0,0,1-.66-.635c-.007-.055-.145-.6-.339-1.381-.556-2.224-1.6-6.349-1.619-6.512l1.028-1.607,1.858-.165,1.633,8.708A27.294,27.294,0,0,1,1830.031,1637.882Z" transform="translate(-1807.925 -1624.721)" fill="#f39683" opacity="0.61"/>
            </g>
            <path id="Path_18696" data-name="Path 18696" d="M1807.4,1653.25c-.343,1.525-11.24,9.653-15.907,10.892a13.217,13.217,0,0,1-4.994-.1,12.485,12.485,0,0,1-2.233-.628c-1.319-.585-2.195-1.424-1.865-2.573.852-2.973,12.574-10.829,13.43-11.411a.144.144,0,0,1,.056-.027s-2.24-3.513-.99-5.37c0,0,4.889-.416,7.942-.661,1.094-.1,1.973-.03,2.294.325C1806.37,1645.019,1807.727,1651.727,1807.4,1653.25Z" transform="translate(-1782.336 -1638.188)" fill="#351e59"/>
            <path id="Path_18697" data-name="Path 18697" d="M1818.33,1653.25c-.343,1.525-11.24,9.653-15.907,10.892a13.217,13.217,0,0,1-4.994-.1c7.443-1.172,19.214-8.481,19.935-11.714.642-2.907-2.668-7.709-3.6-8.956,1.094-.1,1.973-.03,2.294.325C1817.3,1645.019,1818.652,1651.727,1818.33,1653.25Z" transform="translate(-1793.261 -1638.188)" fill="#241442" opacity="0.4"/>
            <path id="Path_18698" data-name="Path 18698" d="M1784.27,1677.7c-1.319-.586-2.195-1.424-1.865-2.573.852-2.973,12.574-10.829,13.43-11.411a.147.147,0,0,1,.056-.027s6.457-2.1,8.4,1.415C1806,1668.171,1792.263,1677.13,1784.27,1677.7Z" transform="translate(-1782.336 -1652.479)" fill="#241442" opacity="0.4"/>
          </g>
          <path id="Path_18699" data-name="Path 18699" d="M1707.7,1380.022c-14.076-19.671-57.43-88.077-28.695-96.4,46.1-13.353,34.726,48.936,44.1,90.142C1724.183,1378.467,1710.513,1383.948,1707.7,1380.022Z" transform="translate(-1669.375 -1281.781)" fill="#2b3e6d"/>
        </g>
      </g>
      <g id="Group_48359" data-name="Group 48359" transform="translate(5 35.643)">
        <path id="Path_18700" data-name="Path 18700" d="M1685.031,844.172v.1c-.491,6.154-8.312,11.047-17.862,11.047h-34.009c-.491-1.259-1.164-.2-1.164-1.557V795.276l38.424-2.442c8.008,0,14.526,4.242,14.526,9.468Z" transform="translate(-1573.54 -787.347)" fill="#231f20" opacity="0.1"/>
        <path id="Path_18701" data-name="Path 18701" d="M1562.762,784.584l-.056,43.233c-.934,5.6-6.185,9.9-12.517,9.9h-78.861c-6.765,0-12.322-4.922-12.664-11.093V826.5l.049-42.017c.007-5.244,4.623-9.5,10.306-9.491l83.45.077C1558.16,775.08,1562.769,779.34,1562.762,784.584Z" transform="translate(-1458.664 -774.996)" fill="#fff" opacity="0.92"/>
        <path id="Path_18706" data-name="Path 18706" d="M1509.214,937.823h66.552a2.124,2.124,0,0,0,2.029-2.207h0a2.124,2.124,0,0,0-2.029-2.207h-66.552a2.124,2.124,0,0,0-2.029,2.207h0A2.124,2.124,0,0,0,1509.214,937.823Z" transform="translate(-1492.897 -892.907)" fill="#d2d4eb"/>
        <path id="Path_18934" data-name="Path 18934" d="M1509.392,937.823H1581.8a2.207,2.207,0,0,0,2.207-2.207h0a2.207,2.207,0,0,0-2.207-2.207h-72.406a2.207,2.207,0,0,0-2.207,2.207h0A2.207,2.207,0,0,0,1509.392,937.823Z" transform="translate(-1492.897 -901.353)" fill="#d2d4eb"/>
        <path id="Path_18935" data-name="Path 18935" d="M1508.057,937.823h28.595c.481,0,.872-.988.872-2.207h0c0-1.219-.391-2.207-.872-2.207h-28.595c-.481,0-.872.988-.872,2.207h0C1507.185,936.835,1507.576,937.823,1508.057,937.823Z" transform="translate(-1492.897 -909.798)" fill="#d2d4eb"/>
        <path id="Path_18707" data-name="Path 18707" d="M1509.392,966.5H1581.8a2.207,2.207,0,0,0,2.207-2.207h0a2.207,2.207,0,0,0-2.207-2.207h-72.406a2.207,2.207,0,0,0-2.207,2.207h0A2.207,2.207,0,0,0,1509.392,966.5Z" transform="translate(-1492.897 -913.141)" fill="#d2d4eb"/>
        <text id="YOU_ARE_SECURED" data-name="YOU ARE SECURED" transform="translate(13.064 14.614)" fill="#d2d4eb" font-size="8" font-family="Cabin" font-weight="700"><tspan x="0" y="0">YOU ARE SECURED</tspan></text>
      </g>
      <g id="Group_48366" data-name="Group 48366" transform="translate(181.384 35.807)" opacity="0.75">
        <path id="Path_18723" data-name="Path 18723" d="M2210.056,799.919l0,6.182-172.021.133,0-6.182a6.536,6.536,0,0,1,6.533-6.538l158.944-.122A6.536,6.536,0,0,1,2210.056,799.919Z" transform="translate(-2038.035 -793.391)" fill="#2b3e6d"/>
        <g id="Group_48361" data-name="Group 48361" transform="translate(0.005 3.433)">
          <path id="Path_18724" data-name="Path 18724" d="M2210.073,836.551l.083,107.234a4.44,4.44,0,0,1-4.435,4.442l-163.144.125a4.44,4.44,0,0,1-4.442-4.435l-.083-107.233Z" transform="translate(-2038.051 -827.274)" fill="url(#linear-gradient-4)"/>
          <g id="Group_48360" data-name="Group 48360" transform="translate(77.765 0)">
            <path id="Path_18725" data-name="Path 18725" d="M2306.083,809.828a1.981,1.981,0,1,1-1.982-1.979A1.981,1.981,0,0,1,2306.083,809.828Z" transform="translate(-2302.121 -807.024)" fill="#fff"/>
            <circle id="Ellipse_155" data-name="Ellipse 155" cx="1.981" cy="1.981" r="1.981" transform="translate(5.44 2.801) rotate(-45)" fill="#fff"/>
            <path id="Path_18726" data-name="Path 18726" d="M2348.6,809.8a1.981,1.981,0,1,1-1.982-1.979A1.98,1.98,0,0,1,2348.6,809.8Z" transform="translate(-2332.118 -807.001)" fill="#fff"/>
          </g>
        </g>
        <g id="Group_48363" data-name="Group 48363" transform="translate(10.142 79.084)">
          <path id="Path_18735" data-name="Path 18735" d="M2104.715,1068.34a3.179,3.179,0,0,0,.009-6.358l-28.8-.039a3.269,3.269,0,0,0-3.314,2.941,3.179,3.179,0,0,0,3.163,3.417Z" transform="translate(-2072.563 -1061.943)" fill="#d2d4eb"/>
          <path id="Path_18736" data-name="Path 18736" d="M2237.635,1065.341a3.179,3.179,0,0,0,3.175,3.184l97.331.132a3.279,3.279,0,0,0,3.324-2.946,3.164,3.164,0,0,0-3.17-3.412l-97.476-.132A3.179,3.179,0,0,0,2237.635,1065.341Z" transform="translate(-2188.999 -1062.1)" fill="#d2d4eb"/>
          <path id="Path_18737" data-name="Path 18737" d="M2073.462,1113.09a3.161,3.161,0,0,0,2.247.93l57.8.078a3.179,3.179,0,0,0,.008-6.358l-57.632-.078a3.293,3.293,0,0,0-3.34,3.318A3.178,3.178,0,0,0,2073.462,1113.09Z" transform="translate(-2072.52 -1094.198)" fill="#d2d4eb"/>
          <path id="Path_18738" data-name="Path 18738" d="M2338.728,1108.016a3.179,3.179,0,0,0-.009,6.359l24.255.033a3.179,3.179,0,1,0,.009-6.358Z" transform="translate(-2258.075 -1094.448)" fill="#d2d4eb"/>
          <path id="Path_18739" data-name="Path 18739" d="M2512.561,1108.251l-24.709-.033a3.179,3.179,0,1,0-.009,6.358l24.535.033a3.318,3.318,0,0,0,3.361-3.292,3.173,3.173,0,0,0-.921-2.136A3.219,3.219,0,0,0,2512.561,1108.251Z" transform="translate(-2363.284 -1094.591)" fill="#d2d4eb"/>
          <path id="Path_18740" data-name="Path 18740" d="M2154.127,1153.485l-78.289-.106a3.318,3.318,0,0,0-3.361,3.292,3.163,3.163,0,0,0,3.169,3.066l78.472.106a3.179,3.179,0,0,0,.008-6.359Z" transform="translate(-2072.476 -1126.453)" fill="#d2d4eb"/>
          <path id="Path_18741" data-name="Path 18741" d="M2459.08,1154.823a3.179,3.179,0,0,0-2.256-.929l-47.948-.065a3.179,3.179,0,1,0-.009,6.358l47.948.065a3.186,3.186,0,0,0,2.265-5.429Z" transform="translate(-2307.565 -1126.77)" fill="#d2d4eb"/>
        </g>
        <rect id="Rectangle_10551" data-name="Rectangle 10551" width="153" height="48" rx="6" transform="translate(10.228 21.725)" fill="#d6d9ee"/>
        <g id="Mask_Group_26" data-name="Mask Group 26" transform="translate(9.918 21.675)" clip-path="url(#clip-path)">
          <path id="Path_18936" data-name="Path 18936" d="M5.822,59.129S25.85,44.853,84.233,55.507s81.821,8.736,81.821,8.736l2.557,16.194H5.822Z" transform="translate(-10.526 -27.059)" fill="url(#linear-gradient-5)"/>
        </g>
        <circle id="Ellipse_164" data-name="Ellipse 164" cx="7.5" cy="7.5" r="7.5" transform="translate(122.228 30.725)" fill="#c2c7e7"/>
      </g>
      <g id="Group_48380" data-name="Group 48380" transform="translate(362.832 106.295)">
        <path id="Path_18812" data-name="Path 18812" d="M68.727,22.968c41.6-19.178,41.438-64.849,40.716-76.238a4.354,4.354,0,0,0-2.5-3.668L69.788-74.3a2.615,2.615,0,0,0-2.208,0L30.428-56.933a4.342,4.342,0,0,0-2.5,3.664c-.726,11.38-.887,57.06,40.716,76.238A.094.094,0,0,0,68.727,22.968Z" transform="translate(-27.763 79.021)" opacity="0.038"/>
        <path id="Path_18811" data-name="Path 18811" d="M68.727,22.968c41.6-19.178,41.438-64.849,40.716-76.238a4.354,4.354,0,0,0-2.5-3.668L69.788-74.3a2.615,2.615,0,0,0-2.208,0L30.428-56.933a4.342,4.342,0,0,0-2.5,3.664c-.726,11.38-.887,57.06,40.716,76.238A.094.094,0,0,0,68.727,22.968Z" transform="translate(-23.285 74.544)" fill="#00c3d9" stroke="#fff" stroke-width="4"/>
        <g id="Group_48387" data-name="Group 48387" transform="translate(38.354 22.78)" opacity="0.718">
          <path id="Path_18655" data-name="Path 18655" d="M2773.7,1176.1a6.322,6.322,0,0,1-2.018-4.734,6.148,6.148,0,0,1,1.982-4.66,7.787,7.787,0,0,1,10.128,0,6.148,6.148,0,0,1,1.981,4.66,6.325,6.325,0,0,1-2.018,4.734,7.471,7.471,0,0,1-10.055,0Zm-1.8-50.017h13.651l-2.275,33.54h-9.1Z" transform="translate(-2771.681 -1126.08)" fill="#fff"/>
        </g>
      </g>
      <path id="Union_10" data-name="Union 10" d="M1.99,4.477l-.069,0-.077,0A1.8,1.8,0,0,1,0,2.735,1.8,1.8,0,0,1,1.844.995a1.867,1.867,0,0,1,1.584.849c0-.034,0-.068,0-.1A1.794,1.794,0,0,1,5.269,0,1.794,1.794,0,0,1,7.112,1.741a1.671,1.671,0,0,1-.038.351,1.439,1.439,0,0,1,.536-.1A1.3,1.3,0,0,1,8.957,3.233,1.3,1.3,0,0,1,7.61,4.476a1.453,1.453,0,0,1-.351-.043,1,1,0,0,1-.292.044Z" transform="translate(326.118 81.719)" fill="#fff" opacity="0.54"/>
      <path id="Union_12" data-name="Union 12" d="M6.164,4.378q0-.084.005-.165a3.482,3.482,0,0,1-2.85,1.357A3.087,3.087,0,0,1,0,2.786,3.087,3.087,0,0,1,3.319,0h9.419a1.594,1.594,0,0,1,.408.053A2.943,2.943,0,0,1,13.7,0,2.239,2.239,0,0,1,16.122,1.99,2.239,2.239,0,0,1,13.7,3.979a2.873,2.873,0,0,1-.964-.164,2.431,2.431,0,0,1,.067.563A3.085,3.085,0,0,1,9.482,7.163,3.086,3.086,0,0,1,6.164,4.378Z" transform="translate(290.708 73.21) rotate(180)" fill="#fff" opacity="0.54"/>
    </g>
    <path id="Path_18742" data-name="Path 18742" d="M2633.249,702.848h-.019a98.131,98.131,0,0,1-23.324-2.925c-1.413-.344-2.827-.716-4.23-1.109-.677-1.305-2.5-2.424-4.407-3.632-2.778-1.757-5.683-3.7-5.575-6.164.275-3.986,3.838-11.868,6.037-17.218h24.521c-1.4,9.05-6.2,20.084-2.827,23.333,2.474,2.444,8.707,4.29,10.817,6.371C2634.751,702.024,2634.163,702.848,2633.249,702.848Z" transform="translate(-815.857 -48.216)" fill="#231f20" opacity="0.1"/>
    <g id="Group_48373" data-name="Group 48373" transform="translate(1785.083 605.481)">
      <path id="Path_18743" data-name="Path 18743" d="M2652.062,651.831c-2.1-2.075-8.337-3.919-10.811-6.364-3.547-3.414,1.906-15.379,3.006-24.644,1.133-8.956-6.63-7.321-6.59-7.5a56.436,56.436,0,0,1-18.956-3c2.759,1.586,3.081,4.566,2.542,7.021-.536,3.228-7.354,16.423-7.737,22.007-.107,2.455,2.795,4.4,5.579,6.164,1.9,1.206,3.723,2.326,4.4,3.625q2.1.6,4.233,1.115a98.431,98.431,0,0,0,23.321,2.927h.017C2651.984,653.185,2652.579,652.359,2652.062,651.831Z" transform="translate(-2613.514 -610.326)" fill="url(#radial-gradient-2)"/>
      <g id="Group_48372" data-name="Group 48372" transform="translate(2.873 3.74)" opacity="0.35">
        <path id="Path_18744" data-name="Path 18744" d="M2647.333,623.037a58.85,58.85,0,0,0,17.054,1.352.435.435,0,0,1,.471.523.719.719,0,0,1-.635.6,59.925,59.925,0,0,1-17.277-1.463.439.439,0,0,1-.29-.619A.619.619,0,0,1,2647.333,623.037Z" transform="translate(-2639.742 -623.025)" fill="#9299d5"/>
        <g id="Group_48368" data-name="Group 48368" transform="translate(14.425 12.584)">
          <path id="Path_18745" data-name="Path 18745" d="M2672.955,665.761a68.23,68.23,0,0,0,8.536.413.47.47,0,0,1,.521.492.674.674,0,0,1-.664.563,69.372,69.372,0,0,1-8.643-.469.461.461,0,0,1-.435-.565A.639.639,0,0,1,2672.955,665.761Z" transform="translate(-2672.255 -665.757)" fill="#9299d5"/>
        </g>
        <g id="Group_48369" data-name="Group 48369" transform="translate(2.734 13.719)">
          <path id="Path_18746" data-name="Path 18746" d="M2679.828,678.178c1.955.176,3.933.276,5.929.288a.508.508,0,0,1,.559.522.7.7,0,0,1-.711.567q-3.034-.039-6.01-.33a.5.5,0,0,1-.492-.582h0A.678.678,0,0,1,2679.828,678.178Z" transform="translate(-2665.385 -675.654)" fill="#9299d5"/>
          <path id="Path_18747" data-name="Path 18747" d="M2633.365,669.639a78.588,78.588,0,0,0,10.361,2.13.494.494,0,0,1,.468.592h0a.658.658,0,0,1-.737.43,80.218,80.218,0,0,1-10.5-2.217.471.471,0,0,1-.36-.651A.668.668,0,0,1,2633.365,669.639Z" transform="translate(-2632.553 -669.613)" fill="#9299d5"/>
        </g>
        <path id="Path_18748" data-name="Path 18748" d="M2627.823,682.436a81.818,81.818,0,0,0,20.5,3.42.521.521,0,0,1,.561.562.7.7,0,0,1-.737.52,83.522,83.522,0,0,1-20.724-3.583c-.332-.1-.507-.387-.393-.639A.665.665,0,0,1,2627.823,682.436Z" transform="translate(-2625.897 -664.917)" fill="#9299d5"/>
        <path id="Path_18749" data-name="Path 18749" d="M2624.11,695.557a88.707,88.707,0,0,0,20.878,3.925c.36.021.617.272.569.561a.681.681,0,0,1-.746.482,90.569,90.569,0,0,1-21.1-4.092c-.339-.107-.521-.39-.41-.63A.673.673,0,0,1,2624.11,695.557Z" transform="translate(-2623.271 -674.17)" fill="#9299d5"/>
        <path id="Path_18750" data-name="Path 18750" d="M2635.38,724.009a96.362,96.362,0,0,0,20.957,3.624c.357.02.619.25.584.518a.641.641,0,0,1-.717.448,98.163,98.163,0,0,1-21.148-3.779c-.345-.1-.551-.362-.458-.585A.65.65,0,0,1,2635.38,724.009Z" transform="translate(-2631.246 -694.245)" fill="#9299d5"/>
        <g id="Group_48370" data-name="Group 48370" transform="translate(1.067 25.45)">
          <path id="Path_18751" data-name="Path 18751" d="M2669.462,719.348c2.552.427,5.128.747,7.721.945.343.026.6.252.567.515a.623.623,0,0,1-.708.436c-2.621-.215-5.23-.554-7.812-1-.343-.059-.565-.308-.5-.554A.624.624,0,0,1,2669.462,719.348Z" transform="translate(-2656.403 -716.424)" fill="#9299d5"/>
          <path id="Path_18752" data-name="Path 18752" d="M2627.7,709.488c2.844.859,5.747,1.606,8.688,2.216.334.07.549.32.478.561a.617.617,0,0,1-.742.308c-2.975-.634-5.913-1.4-8.792-2.288-.33-.1-.516-.368-.41-.589A.661.661,0,0,1,2627.7,709.488Z" transform="translate(-2626.895 -709.448)" fill="#9299d5"/>
        </g>
        <path id="Path_18753" data-name="Path 18753" d="M2653.25,737.993a92.81,92.81,0,0,0,21.3,2.654c.36,0,.634.218.612.49a.647.647,0,0,1-.7.489,94.435,94.435,0,0,1-21.48-2.807c-.354-.086-.579-.341-.5-.568S2652.9,737.909,2653.25,737.993Z" transform="translate(-2643.868 -704.117)" fill="#9299d5"/>
        <g id="Group_48371" data-name="Group 48371" transform="translate(7.074 4.245)">
          <path id="Path_18754" data-name="Path 18754" d="M2648.014,637.439l1.956.135a2.342,2.342,0,0,1,1.157.365,1.757,1.757,0,0,1,.684.858,2.408,2.408,0,0,1,.1,1.235,2.631,2.631,0,0,1-.474,1.187,2.173,2.173,0,0,1-.933.726,2.627,2.627,0,0,1-1.249.174l-1.96-.169Q2647.623,639.7,2648.014,637.439Zm1.343,3.651a1.215,1.215,0,0,0,.905-.261,1.379,1.379,0,0,0,.463-.893,1.2,1.2,0,0,0-.176-.944,1.043,1.043,0,0,0-.8-.4l-.739-.054q-.206,1.244-.394,2.486Z" transform="translate(-2647.293 -637.439)" fill="#d2d4eb"/>
          <path id="Path_18755" data-name="Path 18755" d="M2665.413,642.769l-1.752-.155-.453.866-1.2-.108q1.239-2.209,2.537-4.455l1.152.085q.533,2.392,1.132,4.812l-1.22-.114Q2665.511,643.234,2665.413,642.769Zm-.2-1q-.155-.765-.3-1.527-.383.72-.76,1.437Z" transform="translate(-2657.677 -638.482)" fill="#d2d4eb"/>
          <path id="Path_18756" data-name="Path 18756" d="M2680.554,640.759l-1.271-.1q.082-.524.168-1.048,1.852.141,3.705.289-.085.531-.166,1.063l-1.265-.105q-.283,1.829-.528,3.655l-1.173-.112Q2680.271,642.58,2680.554,640.759Z" transform="translate(-2669.863 -638.969)" fill="#d2d4eb"/>
          <path id="Path_18757" data-name="Path 18757" d="M2692.581,644.991l-1.752-.168-.45.891-1.2-.117q1.229-2.273,2.518-4.584l1.153.094q.541,2.469,1.152,4.968l-1.221-.123Q2692.681,645.471,2692.581,644.991Zm-.206-1.03q-.159-.79-.311-1.577-.381.741-.755,1.479Z" transform="translate(-2676.846 -639.961)" fill="#d2d4eb"/>
        </g>
      </g>
    </g>
  </g>
</svg>
