<?xml version="1.0" encoding="UTF-8"?><svg id="a" xmlns="http://www.w3.org/2000/svg" width="640" height="140" viewBox="0 0 640 140"><g id="b"><g id="c"><g id="d"><g id="e"><path id="f" d="M78.9,72.12c-.08,6.68-.08,13.21-.08,18.92h49.28c0-5.72,0-12.26-.07-18.92h-49.12Z" style="fill:#abdd6f;"/></g><g id="g"><path id="h" d="M79.2,47.23c-.08,5.84-.16,12.31-.21,18.93h49.05c-.06-6.61-.14-13.09-.21-18.93h-48.62Z" style="fill:#99d658;"/></g><g id="i"><path id="j" d="M122.65,12.38h-10.59V.24c-2.81-.11-5.65-.18-8.58-.18s-5.75,.07-8.56,.18V12.38h-10.59V.95c-4.58,.46-8.9,1.02-12.9,1.76-.03,.03-.05,.06-.06,.1,0,7.5,1.27,18.08,1.84,18.63l6.34,6.8s-.09,5.18-.2,13.03h48.31c-.11-7.85-.21-13.03-.21-13.03l6.33-6.8c.57-.55,1.84-11.13,1.84-18.63,0-.04-.02-.08-.05-.1-3.99-.74-8.33-1.3-12.9-1.76V12.38Z" style="fill:#7dcc33;"/></g><g id="k"><path id="l" d="M79.55,107.55c7.8,2.16,15.85,3.25,23.93,3.26,8.08-.23,16.11-1.32,23.95-3.26,.34-.11,.53-4.2,.61-10.56h-49.12c.1,6.36,.28,10.44,.62,10.56" style="fill:#c2e690;"/></g></g><path id="m" d="M172.52,109.56h12.87V30.55h-12.87V109.56Z" style="fill:#393536;"/><g id="n"><g id="o"><path id="p" d="M247.2,28.91c-12.88,0-22.75,6.73-29.64,13.47v-11.82h-13.04V109.56h13.03V52.71c8.18-7.79,16.16-12.72,25.55-12.72,10.03,0,14.51,4.94,14.51,15.4v54.16h12.88V52.57c0-14.98-8.24-23.66-23.35-23.66" style="fill:#393536;"/></g><g id="q"><path id="r" d="M306.6,2.43h-12.87V30.55h-13.77v10.63h13.77v49.26c0,13.79,5.39,20.21,21.99,20.21,3.77,0,7.52-.31,11.24-.91v-10.65c-2.64,.67-5.36,1.02-8.08,1.02-9.58,0-12.26-4.2-12.26-12.57V41.18h20.53v-10.63h-20.55V2.43Z" style="fill:#393536;"/></g><g id="s"><path id="t" d="M371.25,28.91c-16.61,0-35.77,12.43-35.77,41.15s17.07,41.15,35.77,41.15c14.82,0,24.83-6.3,32.17-16.76l-7.47-6.59c-6,8.24-12.43,12.88-23.79,12.88-13.04,0-23.35-9.58-23.8-27.39h55.81v-2.69c0-28.61-14.22-41.76-32.92-41.76m-22.64,34.42c1.79-16.35,11.82-23.65,22.48-23.65,13.02,0,19.75,9.59,20.81,23.65h-43.29Z" style="fill:#393536;"/></g><g id="u"><path id="v" d="M446.81,28.91c-18.84,0-32.17,11.83-32.17,28.43,0,9.87,4.49,17.8,12.13,22.75-5.69,3.29-9.88,7.62-9.88,12.72,0,4.64,2.24,7.93,6.73,10.04-8.83,3.42-14.37,9.41-14.37,17.5,0,11.98,11.53,19.6,38.17,19.6,22.89,0,38.61-7.93,38.61-22.89,0-12.72-10.22-19.15-30.24-20.5l-16.17-1.34c-8.37-.76-10.91-2.24-10.91-5.54,0-2.7,2.25-4.63,5.53-6.13,4.07,1.28,8.31,1.93,12.57,1.95,18.4,0,31.88-11.07,31.88-28.14,.09-4.85-1.34-9.61-4.09-13.61,4.55-1.68,9.37-2.55,14.23-2.54v-11.38c-6.74,.89-13.16,3.41-18.71,7.34-5.54-4.95-13.62-8.24-23.35-8.24m-13.91,76.47c1.49,.16,2.99,.3,4.49,.45l14.96,1.02c16.62,1.21,21.86,4.34,21.86,11.37s-9.44,11.98-25.14,11.98c-19.61,0-27.85-3.89-27.85-11.82,0-5.4,4.09-10.32,11.68-13.02m14.06-29.34c-12.11,0-20.05-7.02-20.05-18.4s7.63-18.71,19.9-18.71,19.91,7.15,19.91,18.71-7.62,18.4-19.75,18.4" style="fill:#393536;"/></g><g id="w"><path id="x" d="M531.96,28.91c-19.42,0-36.79,13.91-36.79,41.15s17.51,41.15,36.79,41.15,36.67-14.07,36.67-41.15-17.37-41.15-36.67-41.15m0,71.37c-16,0-23.78-13.46-23.78-30.22,0-17.8,8.67-30.08,23.78-30.08s23.65,13.61,23.65,30.08c0,18.11-8.68,30.22-23.65,30.22" style="fill:#393536;"/></g><g id="y"><path id="a`" d="M185.7,7.35c0,3.73-3.01,6.75-6.73,6.76-3.73,0-6.75-3.01-6.76-6.73,0-3.73,3.01-6.75,6.73-6.76,.01,0,.02,0,.03,0,3.72,0,6.73,3.02,6.73,6.73" style="fill:#393536;"/></g></g></g></g></svg>