<?xml version="1.0" encoding="UTF-8"?><svg xmlns="http://www.w3.org/2000/svg" xmlns:xlink="http://www.w3.org/1999/xlink" viewBox="0 0 523.24 258.29"><defs><style>.n{fill:url(#l);}.o{fill:url(#m);}.p{fill:url(#f);}.q{fill:url(#g);}.r{fill:url(#i);}.s{fill:url(#h);}.t{fill:url(#d);}.u{fill:url(#e);}.v{fill:url(#j);}.w{fill:#404040;}.x{fill:url(#k);}</style><linearGradient id="d" x1="132.47" y1="129.08" x2="136.29" y2="129.08" gradientTransform="translate(132.47 390.77) rotate(-90)" gradientUnits="userSpaceOnUse"><stop offset="0" stop-color="#666"/><stop offset=".06" stop-color="#727272"/><stop offset=".33" stop-color="#a8a8a8"/><stop offset=".57" stop-color="#cfcfcf"/><stop offset=".76" stop-color="#e8e8e8"/><stop offset=".87" stop-color="#f1f1f1"/><stop offset=".95" stop-color="#f7f7f7"/><stop offset="1" stop-color="#fff"/></linearGradient><linearGradient id="e" x1="387.56" y1="129.11" x2="391.34" y2="129.11" gradientTransform="translate(132.47 390.77) rotate(-90)" gradientUnits="userSpaceOnUse"><stop offset="0" stop-color="#fff"/><stop offset=".05" stop-color="#f7f7f7"/><stop offset=".13" stop-color="#f1f1f1"/><stop offset=".24" stop-color="#e8e8e8"/><stop offset=".43" stop-color="#cfcfcf"/><stop offset=".67" stop-color="#a8a8a8"/><stop offset=".94" stop-color="#727272"/><stop offset="1" stop-color="#666"/></linearGradient><linearGradient id="f" x1="261.62" y1="390.77" x2="261.62" y2="360.57" gradientTransform="translate(132.47 390.77) rotate(-90)" gradientUnits="userSpaceOnUse"><stop offset="0" stop-color="#f1f1f1"/><stop offset=".12" stop-color="#e3e3e3"/><stop offset=".34" stop-color="#bebebe"/><stop offset=".63" stop-color="#838383"/><stop offset="1" stop-color="#333"/></linearGradient><linearGradient id="g" x1="261.62" y1="-103.64" x2="261.62" y2="-141.35" gradientTransform="translate(132.47 390.77) rotate(-90)" gradientUnits="userSpaceOnUse"><stop offset="0" stop-color="#333"/><stop offset=".07" stop-color="#4b4b4b"/><stop offset=".25" stop-color="#818181"/><stop offset=".42" stop-color="#aeaeae"/><stop offset=".59" stop-color="#d1d1d1"/><stop offset=".74" stop-color="#eaeaea"/><stop offset=".89" stop-color="#f9f9f9"/><stop offset="1" stop-color="#fff"/></linearGradient><linearGradient id="h" x1="375.66" y1="129.28" x2="384.85" y2="129.28" gradientTransform="translate(132.47 390.77) rotate(-90)" gradientUnits="userSpaceOnUse"><stop offset="0" stop-color="#f1f1f1"/><stop offset="0" stop-color="#f0f0f0"/><stop offset=".14" stop-color="#b7b7b7"/><stop offset=".27" stop-color="#888"/><stop offset=".4" stop-color="#636363"/><stop offset=".51" stop-color="#484848"/><stop offset=".62" stop-color="#383838"/><stop offset=".7" stop-color="#333"/></linearGradient><linearGradient id="i" x1="143.66" y1="370.74" x2="379.59" y2="370.74" gradientTransform="translate(132.47 390.77) rotate(-90)" gradientUnits="userSpaceOnUse"><stop offset="0" stop-color="#000"/><stop offset=".1" stop-color="#141414"/><stop offset=".26" stop-color="#2c2c2c"/><stop offset=".4" stop-color="#3a3a3a"/><stop offset=".52" stop-color="#404040"/><stop offset=".63" stop-color="#383838"/><stop offset=".79" stop-color="#232323"/><stop offset=".99" stop-color="#020202"/><stop offset="1" stop-color="#000"/></linearGradient><linearGradient id="j" y1="-112.15" x2="384.87" y2="-112.15" xlink:href="#i"/><linearGradient id="k" x1="138.39" y1="129.12" x2="143.84" y2="129.12" gradientTransform="translate(132.47 390.77) rotate(-90)" gradientUnits="userSpaceOnUse"><stop offset="0" stop-color="#404040"/><stop offset=".64" stop-color="#191919"/><stop offset="1" stop-color="#0a0a0a"/></linearGradient><linearGradient id="l" x1="375.64" y1="129.31" x2="384.85" y2="129.31" gradientTransform="translate(132.47 390.77) rotate(-90)" gradientUnits="userSpaceOnUse"><stop offset="0" stop-color="#0a0a0a"/><stop offset=".36" stop-color="#191919"/><stop offset="1" stop-color="#404040"/></linearGradient><linearGradient id="m" x1="245.71" y1="-113.4" x2="275.94" y2="-113.4" gradientTransform="translate(132.47 390.77) rotate(-90)" gradientUnits="userSpaceOnUse"><stop offset="0" stop-color="#333"/><stop offset=".09" stop-color="#2a2a2a"/><stop offset=".29" stop-color="#1e1e1e"/><stop offset=".48" stop-color="#1a1a1a"/><stop offset=".79" stop-color="#1b1b1b"/><stop offset=".9" stop-color="#222"/><stop offset=".98" stop-color="#2e2e2e"/><stop offset="1" stop-color="#333"/></linearGradient></defs><g id="a"/><g id="b"><g id="c"><g><g><g><path d="M519.79,227.17c-.03,.28-.05,.55-.09,.83v.02c-.07,.55-.14,1.08-.24,1.62-.55,3.25-1.56,6.34-2.95,9.21-.1,.2-.2,.4-.3,.6-.27,.51-.54,1.02-.83,1.52-.13,.23-.26,.45-.4,.68-.68,1.13-1.43,2.22-2.24,3.26-.14,.19-.29,.37-.44,.56-.45,.55-.91,1.09-1.38,1.61-.16,.17-.32,.34-.48,.51-.18,.2-.37,.39-.56,.58-.19,.18-.38,.37-.57,.56-.12,.12-.25,.24-.38,.36-.16,.15-.33,.3-.49,.45-.99,.88-2.02,1.7-3.1,2.46-.19,.14-.39,.27-.58,.4-.6,.41-1.22,.8-1.85,1.17-.22,.14-.45,.27-.68,.39-1.71,.95-3.5,1.76-5.36,2.41-.26,.09-.51,.18-.76,.26-1.29,.41-2.6,.76-3.94,1.02-.27,.05-.54,.11-.81,.15-1.89,.32-3.84,.49-5.82,.49H37.71c-18.44,0-33.53-14.58-34.38-32.81,.85,16.42,14.47,29.52,31.09,29.52H488.82c16.06,0,29.31-12.21,30.97-27.83Z" style="fill:url(#d);"/><path d="M37.71,0H485.54c3.69,0,7.24,.58,10.57,1.66,.26,.08,.51,.16,.76,.26,.26,.09,.51,.18,.76,.28,.19,.07,.38,.14,.57,.22,.56,.22,1.11,.46,1.66,.71,.24,.11,.49,.22,.72,.34,.34,.16,.66,.33,.99,.51,.22,.11,.44,.23,.66,.35,.23,.12,.46,.26,.69,.39,.63,.37,1.26,.76,1.87,1.18,.19,.13,.39,.26,.58,.4,.22,.15,.43,.31,.64,.47,.22,.15,.43,.32,.63,.47,.21,.16,.41,.33,.62,.49,.2,.16,.41,.34,.61,.51,.4,.34,.8,.69,1.18,1.05,.59,.55,1.16,1.12,1.72,1.72,.16,.18,.32,.35,.49,.54,.37,.41,.72,.83,1.08,1.26,.14,.18,.29,.37,.44,.57,.49,.62,.95,1.27,1.39,1.93,.14,.22,.29,.44,.43,.66,.29,.45,.56,.9,.82,1.36,.13,.22,.26,.45,.38,.68,.41,.74,.79,1.5,1.13,2.27,.1,.2,.18,.41,.27,.61,.11,.24,.21,.49,.31,.74,.1,.25,.2,.5,.29,.75,.21,.56,.41,1.12,.58,1.7,.07,.2,.12,.4,.18,.6,.22,.75,.42,1.52,.59,2.29,.06,.27,.12,.54,.17,.82,.06,.28,.11,.57,.16,.87,.09,.54,.17,1.08,.24,1.62v.02c.03,.28,.06,.55,.09,.83-1.66-15.62-14.91-27.84-30.97-27.84H34.42C18.08,3.29,4.64,15.94,3.38,31.96,4.64,14.12,19.55,0,37.71,0Z" style="fill:url(#e);"/><path d="M485.54,0h3.29c18.98,0,34.42,15.44,34.42,34.42V223.87c0,18.98-15.44,34.43-34.42,34.43h-3.29c1.98,0,3.93-.17,5.82-.49,.27-.05,.54-.1,.81-.15,1.34-.26,2.66-.6,3.94-1.02,.26-.08,.51-.16,.76-.26,1.86-.65,3.65-1.46,5.36-2.41,.23-.12,.46-.26,.68-.39,.63-.37,1.25-.76,1.85-1.17,.19-.13,.39-.26,.58-.4,1.08-.76,2.11-1.58,3.1-2.46,.16-.14,.33-.3,.49-.45,.13-.12,.26-.24,.38-.36,.19-.18,.38-.37,.57-.56,.19-.19,.37-.38,.56-.58,.16-.16,.32-.34,.48-.51,.47-.52,.93-1.06,1.38-1.61,.15-.18,.3-.37,.44-.56,.81-1.04,1.56-2.13,2.24-3.26,.14-.22,.27-.45,.4-.68,.29-.5,.56-1.01,.83-1.52,.1-.2,.2-.4,.3-.6,1.39-2.87,2.4-5.97,2.95-9.21,.09-.53,.17-1.07,.24-1.62v-.02c.07-.55,.12-1.1,.16-1.66,.02-.28,.04-.57,.05-.85,.03-.53,.04-1.07,.04-1.62V34.42c0-.54-.01-1.07-.04-1.6-.01-.28-.03-.57-.05-.85-.03-.45-.07-.9-.12-1.35,0-.11-.02-.21-.03-.32v-.02c-.07-.55-.14-1.08-.24-1.62-.05-.3-.1-.58-.16-.87-.05-.28-.11-.55-.17-.82-.17-.78-.37-1.54-.59-2.29-.06-.2-.12-.41-.18-.6-.18-.57-.37-1.14-.58-1.7-.09-.25-.19-.5-.29-.75-.1-.25-.2-.49-.31-.74-.09-.2-.17-.41-.27-.61-.34-.78-.72-1.53-1.13-2.27-.12-.23-.24-.45-.38-.68-.26-.46-.53-.91-.82-1.36-.14-.22-.28-.45-.43-.66-.44-.66-.9-1.3-1.39-1.93-.14-.19-.3-.38-.44-.57-.35-.43-.71-.85-1.08-1.26-.16-.18-.32-.36-.49-.54-.56-.6-1.13-1.17-1.72-1.72-.38-.36-.78-.72-1.18-1.05-.2-.18-.41-.35-.61-.51-.2-.17-.41-.34-.62-.49-.21-.16-.42-.32-.63-.47-.21-.16-.42-.32-.64-.47-.19-.14-.39-.27-.58-.4-.61-.41-1.24-.81-1.87-1.18-.23-.14-.46-.27-.69-.39-.22-.12-.43-.24-.66-.35-.33-.18-.66-.34-.99-.51-.24-.12-.48-.24-.72-.34-.55-.25-1.1-.49-1.66-.71-.18-.08-.37-.15-.57-.22-.25-.1-.5-.19-.76-.28-.25-.09-.51-.18-.76-.26-3.33-1.08-6.89-1.66-10.57-1.66Z" style="fill:url(#f);"/></g><path d="M34.42,0h3.29C19.84,0,5.11,13.68,3.45,31.13c-.03,.28-.05,.56-.07,.83-.02,.28-.04,.57-.05,.85h0c-.03,.54-.04,1.06-.04,1.6V223.87c0,.54,.01,1.07,.04,1.6v.02c.85,18.23,15.94,32.81,34.38,32.81h-3.29c-.34,0-.68,0-1.01-.02-.26,0-.51-.01-.76-.03-.55-.03-1.1-.07-1.64-.12-.28-.03-.57-.06-.84-.09-.15-.02-.3-.04-.45-.06-.18-.02-.35-.05-.54-.08-.28-.04-.57-.09-.85-.14-.49-.09-.98-.18-1.46-.3-.24-.05-.48-.11-.72-.17-.72-.17-1.41-.37-2.11-.59-.22-.07-.44-.14-.66-.22-.27-.09-.54-.18-.8-.28-.22-.08-.44-.16-.66-.25-.18-.07-.36-.14-.54-.22-.22-.09-.43-.18-.64-.27-.16-.07-.32-.14-.48-.22-.24-.11-.47-.21-.7-.33-.41-.19-.81-.39-1.22-.61-.2-.11-.41-.22-.61-.34-.24-.12-.47-.26-.7-.4-1.62-.95-3.16-2.04-4.61-3.24-.2-.17-.41-.34-.61-.52-.22-.2-.45-.39-.68-.6-.37-.34-.73-.68-1.08-1.04-.38-.38-.75-.77-1.11-1.16-.35-.4-.71-.8-1.05-1.22-.17-.2-.34-.41-.51-.62-.33-.42-.65-.85-.97-1.29-.31-.43-.61-.87-.91-1.33-.29-.45-.57-.91-.84-1.37-.14-.23-.27-.47-.4-.7-.13-.24-.26-.47-.38-.71-.12-.24-.25-.48-.37-.72-.12-.24-.24-.49-.35-.74-.22-.49-.44-.99-.64-1.49-.1-.24-.2-.48-.29-.72-.01-.02-.02-.05-.03-.07-.09-.24-.18-.49-.27-.74-.08-.24-.16-.49-.25-.73-.09-.28-.18-.55-.26-.83-.08-.26-.15-.53-.22-.79-.07-.27-.14-.53-.21-.8-.07-.27-.13-.54-.19-.81-.12-.55-.23-1.09-.32-1.64-.05-.27-.09-.55-.13-.82-.09-.59-.16-1.19-.21-1.79-.05-.47-.08-.95-.11-1.43-.01-.29-.03-.58-.03-.88,0-.3-.01-.59-.01-.89V34.42c0-.3,0-.59,.01-.89,0-.24,.01-.49,.03-.74,.03-.56,.07-1.11,.12-1.66v-.02c.03-.28,.06-.56,.09-.83,.03-.28,.07-.56,.11-.83,.04-.28,.09-.55,.13-.83s.1-.55,.15-.81c0,0,0-.01,0-.01,.05-.27,.11-.54,.17-.81,.05-.25,.11-.49,.16-.74,.01-.06,.03-.11,.04-.16,.06-.23,.12-.46,.18-.69,.09-.32,.18-.64,.28-.96,.07-.22,.13-.43,.2-.64,.16-.48,.32-.95,.5-1.43,.11-.32,.24-.64,.37-.95,.09-.23,.19-.45,.29-.68,.11-.25,.22-.49,.34-.74,.11-.24,.23-.49,.35-.73,.85-1.74,1.84-3.38,2.96-4.93,.13-.19,.27-.38,.41-.57,.51-.68,1.05-1.34,1.6-1.98,.24-.28,.49-.56,.75-.83,1.03-1.11,2.14-2.15,3.3-3.1,.21-.18,.41-.34,.62-.51,.44-.35,.88-.68,1.33-.99,.22-.16,.45-.32,.68-.47,.39-.27,.79-.53,1.19-.78,.2-.12,.41-.24,.61-.37,.39-.22,.78-.45,1.18-.66,.19-.11,.38-.21,.58-.3,.66-.35,1.33-.66,2.02-.97,.18-.07,.35-.15,.54-.22,.68-.28,1.38-.55,2.08-.78,.26-.09,.52-.18,.78-.26,1.51-.47,3.06-.84,4.65-1.1,.16-.03,.34-.05,.51-.08,.28-.04,.55-.08,.83-.11,.28-.03,.56-.07,.84-.09,.28-.03,.57-.05,.85-.08,.52-.03,1.04-.06,1.56-.07,.34-.01,.67-.02,1.01-.02Z" style="fill:url(#g);"/></g><path d="M3.33,32.82h0c-.03,.53-.04,1.06-.04,1.6V223.87c0,.54,.01,1.07,.04,1.6v.02c.85,16.42,14.47,29.52,31.09,29.52H488.82c16.34,0,29.78-12.65,31.04-28.67,.02-.28,.04-.57,.05-.85,.03-.53,.04-1.07,.04-1.62V34.42c0-.54-.01-1.07-.04-1.6-.01-.28-.03-.57-.05-.85-1.26-16.02-14.7-28.68-31.04-28.68H34.42C17.79,3.29,4.17,16.39,3.33,32.82ZM488.82,5.92c14.77,0,27.26,11.53,28.42,26.23,.02,.26,.04,.53,.05,.8,.03,.49,.04,.98,.04,1.47V223.87c0,.5-.01,1-.04,1.49,0,.26-.03,.53-.05,.78-1.16,14.72-13.64,26.24-28.42,26.24H34.42c-15.16,0-27.65-11.84-28.46-26.97h0v-.08c-.03-.48-.04-.97-.04-1.47V34.42c0-.49,.01-.99,.03-1.47v-.05c.8-15.14,13.3-26.99,28.47-26.99H488.82Z" style="fill:#404040;"/><path d="M34.6,5.92H489.01c2.81,0,5.55,.42,8.13,1.2,2.06,.62,4.04,1.47,5.88,2.53,.38,.22,.76,.45,1.12,.68,.55,.35,1.09,.72,1.62,1.1,1.49,1.09,2.86,2.32,4.11,3.67-4.35-2.49-9.4-3.92-14.74-3.92h-5.24c-.31-.01-.62-.02-.94-.02H34.56c-.32,0-.64,0-.96,.02h-5.13c-5.4,0-10.48,1.43-14.83,3.92,5.22-5.66,12.7-9.18,20.97-9.18Z" style="fill:url(#h);"/><g><path d="M8.58,33.05v.12c-.02,.41-.03,.83-.03,1.25V223.87c0,.43,0,.86,.02,1.28l.02,.13v.06c.77,13.69,12.11,24.41,25.84,24.41H488.82c13.42,0,24.75-10.46,25.8-23.83,.02-.2,.03-.41,.04-.63v-.08c.02-.44,.04-.9,.04-1.35V34.42c0-.44-.02-.89-.04-1.33v-.08c0-.22-.02-.44-.05-.66-1.05-13.35-12.38-23.81-25.8-23.81H34.42c-13.77,0-25.12,10.76-25.84,24.5ZM488.83,15.44c4.31,0,8.31,1.47,11.53,3.94,.17,.14,.34,.27,.51,.41,.51,.41,.99,.86,1.45,1.32,.4,.41,.79,.84,1.16,1.28h0c.46,.57,.89,1.15,1.29,1.76,.4,.61,.76,1.24,1.09,1.89h0c.17,.33,.32,.66,.46,1h0c.14,.34,.28,.69,.4,1.03,.25,.69,.46,1.41,.63,2.14,.2,.87,.33,1.77,.41,2.69l.02,.25v.29c.02,.08,.02,.16,.02,.23,0,.08,0,.16,0,.24,0,.17,0,.33,0,.49V223.87c0,.16,0,.32,0,.49,0,.17-.02,.33-.02,.5v.26c-.02,.08-.02,.17-.03,.26-.77,9.8-9.08,17.47-18.91,17.47H34.42c-10,0-18.28-7.77-18.94-17.72v-.17l-.02-.26c-.02-.31-.02-.58-.02-.84V34.43c0-.26,0-.54,.02-.84v-.18c0-.06,.02-.13,.02-.19,0-.19,.02-.37,.05-.55,0-.08,0-.17,.02-.25,.01-.17,.03-.33,.06-.5,.02-.2,.05-.39,.08-.59,0,0,0-.02,0-.03,.04-.29,.09-.57,.15-.84,.02-.05,.03-.11,.04-.16,.05-.23,.11-.46,.17-.69,.09-.33,.19-.66,.29-1,.08-.26,.17-.53,.26-.78,.1-.28,.21-.56,.33-.83,.23-.55,.48-1.08,.77-1.6,.25-.48,.53-.93,.82-1.38,.07-.1,.14-.2,.2-.3,.13-.18,.26-.36,.38-.54,.17-.24,.35-.47,.54-.69,.37-.45,.75-.89,1.16-1.3,.2-.22,.41-.42,.63-.61,.21-.2,.43-.39,.65-.58,.89-.76,1.84-1.44,2.86-2.02,.51-.29,1.03-.56,1.57-.81,.54-.24,1.08-.47,1.64-.66,.28-.1,.56-.19,.84-.27,.62-.18,1.24-.34,1.89-.45,.26-.05,.51-.1,.76-.13,.9-.14,1.83-.2,2.76-.2H488.83Z"/><path d="M24.19,192.19c-.13,.07-.26,.12-.38,.18-.05,.02-.1,.04-.14,.05,.18-.08,.35-.15,.53-.23Z"/><path d="M23.67,65.87s.09,.04,.14,.05c.13,.06,.26,.11,.38,.18-.17-.08-.35-.16-.53-.23Z"/></g><path d="M15.45,61.76c.08,1.56,1.29,2.83,2.84,2.99,.14,0,.28,0,.41,.02,.57,.02,1.14,.08,1.7,.18,.2,.03,.38,.06,.57,.11h0c.23,.05,.46,.1,.69,.16,.2,.05,.41,.11,.61,.17,.05,.02,.09,.03,.14,.05,.05,.02,.1,.03,.15,.05,.05,0,.08,.02,.12,.04,.07,.02,.14,.05,.2,.07,.08,.03,.15,.05,.23,.08,.19,.06,.37,.14,.55,.21,.18,.08,.35,.15,.53,.23,.03,0,.05,.02,.08,.03,.02,0,.02,0,.04,.01,.15,.07,.29,.14,.44,.22,.13,.06,.26,.13,.38,.2,.04,.02,.08,.04,.12,.07,.07,.03,.13,.07,.19,.11,.09,.05,.17,.1,.26,.15,.02,.01,.05,.02,.07,.04,.03,.02,.06,.04,.1,.06,.06,.04,.11,.07,.17,.11,.07,.04,.13,.08,.19,.12,.05,.03,.11,.07,.16,.11,.03,.02,.05,.04,.08,.06,.07,.05,.13,.08,.19,.13,.05,.03,.09,.06,.13,.1,.07,.04,.13,.08,.19,.14,.02,0,.03,.02,.05,.03,.02,0,.03,.02,.04,.04,.07,.05,.14,.1,.2,.15,.03,.02,.05,.04,.08,.06,.08,.05,.15,.11,.22,.17h0c.09,.08,.18,.16,.26,.23,.1,.07,.19,.15,.27,.23,0,0,.02,0,.02,0h0c.06,.05,.11,.11,.17,.16,.06,.05,.12,.11,.18,.17,.06,.05,.11,.11,.17,.17,.11,.1,.2,.2,.3,.31,.08,.08,.15,.15,.23,.24,.05,.05,.09,.1,.14,.15,.11,.12,.21,.25,.31,.37,.1,.11,.19,.23,.29,.35,.06,.08,.11,.14,.17,.22,.07,.08,.13,.17,.19,.26,0,0,0,0,0,0,.06,.08,.12,.17,.17,.26,.04,.04,.06,.08,.08,.11,.09,.14,.19,.29,.27,.43,.08,.11,.15,.23,.21,.34,.09,.14,.17,.29,.24,.44,.04,.05,.07,.11,.1,.17,0,.02,.02,.02,.02,.04,.06,.11,.11,.21,.17,.32,.05,.09,.1,.19,.14,.29,.05,.08,.08,.17,.12,.26,.02,.05,.04,.09,.06,.14,.02,.04,.04,.08,.05,.12h0c.1,.24,.19,.47,.27,.7,.08,.22,.15,.43,.22,.65,.08,.24,.14,.48,.2,.72,.12,.48,.23,.98,.3,1.48,.03,.2,.06,.41,.08,.63,0,.05,0,.08,.01,.13,.02,.18,.03,.36,.04,.54,.02,.21,.02,.41,.03,.62,0,.07,0,.14,0,.2v99c0,.06,0,.13,0,.2,0,.2-.02,.41-.03,.62,0,.17-.02,.35-.04,.54,0,.05,0,.08-.01,.13-.02,.21-.05,.42-.08,.63-.08,.5-.18,1-.3,1.48-.06,.24-.13,.48-.2,.72-.07,.22-.14,.43-.22,.65-.08,.23-.17,.46-.27,.69h0c-.02,.05-.03,.09-.05,.13-.02,.05-.04,.1-.06,.14-.04,.09-.08,.18-.12,.26-.05,.11-.09,.2-.14,.29-.05,.11-.11,.22-.17,.32,0,.02,0,.02-.02,.04-.03,.05-.06,.11-.1,.17-.07,.15-.15,.29-.24,.44-.06,.11-.13,.23-.21,.34-.08,.14-.18,.29-.27,.43-.02,.04-.05,.08-.08,.11-.05,.09-.11,.17-.17,.26,0,0,0,0,0,0-.06,.09-.12,.17-.19,.26-.05,.08-.11,.14-.17,.22-.1,.12-.19,.24-.29,.35-.1,.12-.2,.25-.31,.37-.05,.05-.09,.1-.14,.15-.08,.09-.14,.17-.23,.24-.1,.11-.2,.21-.3,.31-.05,.06-.11,.11-.17,.17-.06,.06-.12,.12-.18,.17-.05,.05-.11,.11-.17,.15h0c-.05,.05-.09,.09-.14,.13-.14,.12-.27,.23-.41,.35h0c-.07,.07-.14,.13-.22,.18-.02,.02-.05,.05-.08,.06-.07,.05-.14,.11-.2,.15,0,.02-.02,.03-.04,.04-.02,0-.03,.02-.05,.03-.06,.05-.12,.1-.19,.14-.04,.04-.08,.07-.13,.1-.06,.05-.12,.08-.19,.13-.02,.02-.05,.04-.08,.06-.05,.04-.11,.08-.16,.11-.06,.05-.12,.08-.19,.12-.05,.04-.11,.07-.17,.11-.03,.02-.06,.04-.1,.06-.02,.02-.05,.02-.07,.04-.08,.05-.17,.11-.26,.15-.06,.04-.12,.08-.19,.11-.04,.02-.08,.05-.12,.07-.12,.07-.25,.14-.38,.2-.14,.08-.29,.15-.44,.22-.02,0-.02,0-.04,.02-.02,.02-.05,.02-.08,.03-.17,.08-.35,.16-.53,.23-.18,.08-.36,.15-.55,.21-.08,.03-.15,.05-.23,.08-.07,.02-.14,.05-.2,.07-.04,.01-.08,.03-.12,.04-.05,.02-.1,.04-.15,.05-.05,.02-.1,.03-.14,.05-.2,.06-.41,.12-.61,.17-.23,.06-.45,.11-.69,.16h0c-.19,.05-.38,.08-.57,.11-.56,.1-1.12,.16-1.7,.18-.14,0-.27,.02-.41,.02-1.55,.16-2.75,1.43-2.84,2.99V61.76Z"/><path d="M32.99,179.46c.02-.21,.02-.41,.03-.62,0,.11,0,.23,0,.35,0,.12,0,.24-.02,.36,0,.14-.02,.26-.03,.4,0,.01,0,.03,0,.05,.02-.18,.03-.36,.04-.54Z"/><path d="M32.95,78.3s0,.03,0,.05c0,.14,.02,.26,.03,.4,.02,.12,.02,.24,.02,.36,0,.11,0,.23,0,.35,0-.2-.02-.41-.03-.62,0-.17-.02-.35-.04-.54Z"/><path d="M23.12,192.63s-.02,0-.02,.01l-.2,.07c.08-.03,.15-.05,.23-.08Z"/><path d="M24.19,192.19c-.13,.07-.26,.12-.38,.18-.05,.02-.1,.04-.14,.05,.18-.08,.35-.15,.53-.23Z"/><path d="M27.24,190.33c-.08,.07-.16,.13-.24,.19,.02,0,.03-.02,.04-.04,.07-.05,.14-.1,.2-.15Z"/><path d="M27.94,189.75c-.08,.08-.17,.16-.26,.23-.05,.05-.1,.09-.15,.13h0c.14-.12,.27-.23,.41-.35Z"/><path d="M28.25,189.47c-.05,.06-.11,.11-.17,.16h0c.06-.05,.11-.11,.17-.16Z"/><path d="M29.86,187.7c-.08,.12-.18,.24-.28,.35-.05,.07-.11,.14-.18,.21-.05,.06-.09,.11-.14,.16,.11-.12,.21-.25,.31-.37,.1-.11,.19-.23,.29-.35Z"/><path d="M30.02,187.48c.07-.08,.13-.17,.19-.26-.02,.03-.03,.05-.05,.08-.05,.06-.09,.12-.14,.18Z"/><path d="M30.75,186.42c-.05,.09-.1,.17-.15,.26,0,0,0,0,0,.02l-.11,.16c.09-.14,.19-.29,.27-.43Z"/><path d="M32.13,183.59c-.07,.2-.14,.38-.22,.58-.02,.04-.03,.08-.05,.11,.1-.23,.19-.46,.27-.69Z"/><path d="M32.35,182.94c.08-.24,.14-.48,.2-.72-.04,.16-.08,.32-.13,.48-.02,.08-.05,.16-.07,.23-.03,.11-.07,.21-.11,.32-.04,.11-.08,.23-.12,.33,.08-.22,.15-.43,.22-.65Z"/><path d="M32.85,180.75c.03-.2,.06-.41,.08-.63-.02,.19-.04,.38-.07,.56,0,.02,0,.05,0,.07l-.05,.25c-.02,.17-.05,.33-.09,.5-.05,.21-.09,.41-.14,.63,0,.03-.02,.07-.03,.11,.12-.48,.23-.98,.3-1.48Z"/><path d="M32.99,179.46v.09s0,.1,0,.14c0,.08-.02,.17-.02,.26,0,.01,0,.03,0,.05,.02-.18,.03-.36,.04-.54Z"/><path d="M33.02,79.65c0,.06,0,.13,0,.2v98.6c0,.07,0,.14,0,.2V79.65Z"/><path d="M32.99,78.83c0-.17-.02-.35-.04-.54,0,.02,0,.03,0,.05,0,.08,.02,.17,.02,.26,0,.05,0,.1,0,.14v.09Z"/><path d="M32.85,77.54c-.08-.5-.18-1-.3-1.48,.02,.04,.02,.08,.03,.11,.05,.21,.1,.41,.14,.63,.04,.17,.07,.33,.09,.5l.05,.25s0,.05,0,.07c.03,.18,.05,.37,.07,.56-.02-.21-.05-.42-.08-.63Z"/><path d="M32.13,74.7c.05,.11,.08,.22,.12,.33,.04,.11,.08,.21,.11,.32,.02,.08,.05,.15,.07,.23,.05,.16,.09,.32,.13,.48-.06-.24-.13-.48-.2-.72-.07-.22-.14-.43-.22-.65Z"/><path d="M32.13,74.7c-.08-.23-.17-.46-.27-.69,.02,.04,.04,.08,.05,.11,.08,.2,.15,.38,.22,.58Z"/><path d="M30.75,71.87c-.08-.14-.18-.29-.27-.43l.11,.16s0,0,0,.01c.05,.08,.11,.17,.15,.26Z"/><path d="M30.02,70.81c.05,.06,.1,.12,.14,.18,.02,.02,.03,.05,.05,.08-.06-.09-.12-.17-.19-.26Z"/><path d="M29.26,69.87c.05,.05,.09,.1,.14,.16,.07,.07,.13,.14,.18,.21,.1,.11,.2,.23,.28,.35-.1-.12-.19-.24-.29-.35-.1-.12-.2-.25-.31-.37Z"/><path d="M28.09,68.67c.05,.05,.11,.1,.17,.16-.05-.05-.11-.11-.17-.15h0Z"/><path d="M27.54,68.19c.05,.04,.1,.08,.15,.13,.04,.03,.08,.06,.11,.11-.08-.08-.17-.15-.26-.23h0Z"/><path d="M27,67.77c.08,.06,.17,.12,.24,.19-.07-.05-.14-.11-.2-.15,0-.02-.02-.03-.04-.04Z"/><path d="M23.67,65.87s.09,.04,.14,.05c.13,.06,.26,.11,.38,.18-.17-.08-.35-.16-.53-.23Z"/><path d="M22.89,65.58l.2,.07s.01,0,.02,.02c-.08-.03-.15-.05-.23-.08Z"/><g><path d="M489.9,11.18h5.24c5.34,0,10.38,1.43,14.74,3.92,4.22,4.55,6.99,10.48,7.51,17.04,.02,.26,.04,.53,.05,.8,.03,.49,.04,.98,.04,1.47V223.85c0,.5-.01,1-.04,1.49,0,.26-.03,.53-.05,.78-.03,.36-.07,.72-.11,1.08-.72,6.13-3.4,11.65-7.39,15.95-4.36,2.51-9.43,3.95-14.79,3.95h-6.13c7,0,13.37-3.17,17.66-8.18,3.1-3.61,5.12-8.19,5.51-13.22,.01-.16,.03-.33,.03-.49v-.14c.03-.4,.04-.81,.04-1.22V34.41c0-.39-.01-.8-.03-1.19v-.15c0-.18-.03-.36-.04-.54-.91-11.66-10.59-20.87-22.23-21.35Z" style="fill:url(#i);"/><path d="M34.6,5.92l-.05-.02c-15.17,0-27.67,11.85-28.46,26.99v.05c-.03,.48-.04,.97-.04,1.47V223.85c0,.49,.01,.99,.03,1.47v.07h0c.03,.63,.09,1.24,.16,1.84,.72,6.15,3.38,11.67,7.34,15.96,4.36,2.5,9.43,3.92,14.83,3.92h6.13c-7.06,0-13.41-3.15-17.69-8.16-3.17-3.72-5.21-8.46-5.51-13.7v-.12l-.02-.17c-.01-.4-.02-.76-.02-1.1V34.41c0-.3,0-.63,.02-.99h0v-.24c.64-12.02,10.33-21.5,22.27-21.99h-5.13c-5.4,0-10.48,1.43-14.83,3.92,5.22-5.66,12.7-9.18,20.97-9.18Z" style="fill:url(#j);"/><path d="M509.74,243.17c-5.24,5.67-12.73,9.21-20.92,9.21H34.42c-8.27,0-15.75-3.52-20.97-9.18,4.36,2.5,9.43,3.92,14.83,3.92H494.95c5.36,0,10.42-1.44,14.79-3.95Z" style="fill:url(#k);"/><path d="M34.6,5.92H489.01c2.81,0,5.55,.42,8.13,1.2,2.06,.62,4.04,1.47,5.88,2.53,.38,.22,.76,.45,1.12,.68,.55,.34,1.09,.71,1.62,1.1,1.51,1.09,2.91,2.33,4.17,3.7-.02-.01-.03-.02-.05-.03-4.35-2.49-9.4-3.92-14.74-3.92H28.47c-5.4,0-10.48,1.43-14.83,3.92,5.22-5.66,12.7-9.18,20.97-9.18Z" style="fill:url(#l);"/></g><path d="M20.66,116.41v27.06c0,.88-.71,1.59-1.59,1.59h0c-.88,0-1.59-.71-1.59-1.59v-27.06c0-.88,.71-1.59,1.59-1.59h0c.88,0,1.59,.71,1.59,1.59Z" style="fill:url(#m);"/><g/></g></g></g></svg>