<svg xmlns="http://www.w3.org/2000/svg" xmlns:xlink="http://www.w3.org/1999/xlink" width="465.45" height="396.905" viewBox="0 0 465.45 396.905">
  <defs>
    <linearGradient id="linear-gradient" x1="0.316" y1="0.016" x2="0.834" y2="0.754" gradientUnits="objectBoundingBox">
      <stop offset="0" stop-color="#d4d3ff"/>
      <stop offset="1" stop-color="#f5f7fd"/>
    </linearGradient>
    <clipPath id="clip-path">
      <path id="Path_18932" data-name="Path 18932" d="M3909.323,537.424c48.758-22.479,80.532-55.733,101.275-91.426,38.634-66.475,37.85-140.975,36.258-166.095a14.7,14.7,0,0,0-8.443-12.392l-125.508-58.643a8.832,8.832,0,0,0-7.459,0l-125.493,58.657a14.668,14.668,0,0,0-8.442,12.378c-2.452,38.439-3,192.74,137.533,257.521A.311.311,0,0,0,3909.323,537.424Z" transform="translate(-3770.951 -208.043)" fill="#a4b7fc"/>
    </clipPath>
    <linearGradient id="linear-gradient-2" x1="0.5" x2="0.5" y2="1" gradientUnits="objectBoundingBox">
      <stop offset="0" stop-color="#fc8032"/>
      <stop offset="1" stop-color="#ff4500"/>
    </linearGradient>
    <linearGradient id="linear-gradient-7" x1="-0.174" y1="-18.057" x2="0.999" y2="14.238" gradientUnits="objectBoundingBox">
      <stop offset="0" stop-color="#fff"/>
      <stop offset="0.069" stop-color="#f5f7fc"/>
      <stop offset="0.185" stop-color="#dce2f3"/>
      <stop offset="0.332" stop-color="#b2c1e6"/>
      <stop offset="0.505" stop-color="#7992d4"/>
      <stop offset="0.699" stop-color="#3058bd"/>
      <stop offset="0.703" stop-color="#2f57bd"/>
    </linearGradient>
  </defs>
  <g id="IMG_2" transform="translate(-1031.422 -2186.827)">
    <g id="Group_48429" data-name="Group 48429" transform="translate(1316.276 2255.894)">
      <path id="Path_18642" data-name="Path 18642" d="M2408.078,949.842A98.8,98.8,0,0,0,2393.6,980.3a74.816,74.816,0,0,0-2.661,13.456l3.695-2a17.491,17.491,0,0,0,4.306,2c26.841,8.5,75.659-43.167,101.969-60.061,18.376-11.764,13.7-22.126,12.449-28.849-.668-3.482-.4-5.987,4.315-7.248,13.96-3.725-2.121-4.905,14.579-13.083,16.7-8.216,15.857-22.13-1.149-35.659-16.986-13.511-28.276-4.031-34.208,20.208-7.025,28.633-26.129,1.9-35.424,20.782s-11.155,23.538-32.681,39.082A90.663,90.663,0,0,0,2408.078,949.842Z" transform="translate(-2390.94 -842.668)" fill="#343f91"/>
      <path id="Path_18643" data-name="Path 18643" d="M2487.219,1173.074a98.832,98.832,0,0,0-14.478,30.453,74.926,74.926,0,0,0-2.661,13.456l3.694-2a17.551,17.551,0,0,0,4.306,2c.706-2.576.624-6.049-1.215-10.7-5.47-13.908,12.729-.834,12.4-18.138C2489.05,1176.36,2489.334,1178.915,2487.219,1173.074Z" transform="translate(-2449.379 -1086.648)" fill="#231f20" opacity="0.1"/>
      <g id="Group_48333" data-name="Group 48333" transform="translate(16.184 19.926)" opacity="0.1">
        <path id="Path_18644" data-name="Path 18644" d="M2573.484,919.472c-.6,8.974-7.814,15.06-15.224,19.088-4.866,2.645-10.047,4.774-14.575,8.008-5.34,3.815-8.331,9.187-11.466,14.79a47.783,47.783,0,0,1-9.949,12.743c-4.122,3.679-8.711,6.783-12.963,10.3-9.531,7.889-16.8,17.8-25.124,26.846a62.217,62.217,0,0,1-13.51,11.565c-5.244,3.14-13.644,4.042-16.565,9.874a.684.684,0,0,1-1.219-.619c1.906-3.807,5.566-5.4,9.368-6.865a47.936,47.936,0,0,0,15.466-9.413c8.249-7.491,14.664-16.754,22.422-24.724a115.056,115.056,0,0,1,12.387-10.945c4.907-3.775,10.038-7.443,13.929-12.323,3.668-4.6,5.85-10.131,9.181-14.951a32.19,32.19,0,0,1,10.278-9.356c9.789-5.849,25.292-10.323,26.2-23.957.058-.868,1.424-.94,1.365-.063Z" transform="translate(-2452.812 -918.848)" fill="#fff"/>
      </g>
      <g id="Group_48335" data-name="Group 48335" transform="translate(34.739 92.768)">
        <path id="Path_18645" data-name="Path 18645" d="M2523.747,1256.259s7.613,11.686,23.376.347,5.109,15.764,26.781,9.819,4.783-.643,36.953-18.537,43.863,5.641,53.489-19.15-8.742-33.295-36.8-30.878-24.628-2.981-42.287.941,1.815,19.286-20.154,19.667-34.934,23.341-37.244,28.544S2523.747,1256.259,2523.747,1256.259Z" transform="translate(-2523.747 -1197.321)" fill="#3b49b5"/>
        <g id="Group_48334" data-name="Group 48334" transform="translate(13.215 20.219)" opacity="0.1">
          <path id="Path_18646" data-name="Path 18646" d="M2689.69,1278.257c-10.024-1.335-20.241-2.609-30.34-1.328a44.816,44.816,0,0,0-14.361,4.152c-5.207,2.589-9.462,6.591-14.343,9.688-7.741,4.91-16.7,5.977-25.49,7.8-11.362,2.356-21.354,7.506-29.287,16.063-.772.833-2.151-.286-1.372-1.125a53.593,53.593,0,0,1,25.522-15.552c11.138-2.973,22.314-3.425,32.047-10.293,8.484-5.986,15.9-10.949,26.423-12.411,10.45-1.452,21.084-.13,31.464,1.252a.888.888,0,0,1-.264,1.755Z" transform="translate(-2574.267 -1274.618)" fill="#fff"/>
        </g>
      </g>
      <path id="Path_18647" data-name="Path 18647" d="M2442.01,1090.265a74.82,74.82,0,0,0-2.661,13.456l3.694-2c25.6,16.4,78.484-40.213,106.276-58.062,18.375-11.764,13.7-22.127,12.449-28.85-31.389-7.28-40.138,17.315-52.719,33.294-13.256,16.837-15.556-5.428-25.474,13.445-9.881,18.87-21.189-6.139-28.1,14.44C2452.921,1083.653,2447.691,1087.78,2442.01,1090.265Z" transform="translate(-2426.686 -968.812)" fill="#231f20" opacity="0.1"/>
      <path id="Path_18648" data-name="Path 18648" d="M2455.391,1108.612s1.075-8.454,19.838-2.362,27.273,33.871,39.173,8.519,15.384-7.729,40.33-28.389,7.337-34.524,28.928-36.746,39.832-23.821,4.137-35.183-44.694,15.034-57.953,31.876-15.564-5.432-25.458,13.438-21.2-6.15-28.114,14.447-32.979,15.577-35.968,22.523Z" transform="translate(-2427.391 -967.484)" fill="#38439f"/>
      <g id="Group_48336" data-name="Group 48336" transform="translate(20.988 63.238)" opacity="0.1">
        <path id="Path_18649" data-name="Path 18649" d="M2613.014,1085.8c-5.989-.058-12.349-.108-17.849,2.611-5.793,2.863-9.654,8.347-12.962,13.7-5.29,8.555-10.382,18.609-20.847,21.5-2.7.747-5.554,1.049-8.147,2.162a24.346,24.346,0,0,0-7.884,6.107c-3.35,3.568-6.46,7.547-10.887,9.847-9.849,5.116-20.445.278-30.726.4-12.231.15-22.274,6.944-31.463,14.336-.685.551-1.5-.55-.81-1.1,7.5-6.034,15.568-11.843,25.175-13.839a43.478,43.478,0,0,1,15.936.074c5.946.953,12.185,1.971,18.09.2,6.269-1.884,10.02-7.082,14.379-11.571a23.532,23.532,0,0,1,12.163-7.046c6.964-1.617,11.905-4.35,16.345-10.07,3.6-4.643,6.22-9.929,9.492-14.793,3.231-4.8,7.211-9.3,12.636-11.631,5.51-2.362,11.667-2.3,17.549-2.239.878.009.68,1.362-.188,1.354Z" transform="translate(-2471.178 -1084.428)" fill="#fff"/>
      </g>
    </g>
    <g id="Group_48431" data-name="Group 48431" transform="translate(1128.999 2191.895)">
      <path id="Path_18929" data-name="Path 18929" d="M3913.885,548.284c145.146-66.916,144.585-226.274,142.067-266.011a15.185,15.185,0,0,0-8.721-12.8L3917.585,208.9a9.123,9.123,0,0,0-7.7,0L3780.25,269.487a15.152,15.152,0,0,0-8.721,12.786C3769,321.98,3768.435,481.368,3913.6,548.284A.322.322,0,0,0,3913.885,548.284Z" transform="translate(-3770.951 -208.043)" stroke="#fff" stroke-width="10" fill="url(#linear-gradient)"/>
      <g id="Group_48430" data-name="Group 48430" transform="translate(4.557 5.43)" clip-path="url(#clip-path)">
        <path id="Path_18930" data-name="Path 18930" d="M4041.31,360.982s-31.509,211.982-241,166.453l46.837,138.374,154.137,1.084L4127.32,494.865,4083.038,371.83Z" transform="translate(-3792.663 -321.144)" fill="#2e3192" opacity="0.11"/>
        <path id="Path_18931" data-name="Path 18931" d="M4011.49,895.938c-.017-.07-4.081-11.114-9.256-12.191a7.848,7.848,0,0,1-2.639-2.327l1.528-.738s-1.372-.46-3-1.059c-.686-.877-1.164-1.537-1.164-1.537s-2.257-1.1-2.24.182a7.633,7.633,0,0,1-1.832-1.016,4.922,4.922,0,0,0-2.24-1.32,11.933,11.933,0,0,0-.487-2.327c.946.747,2.171.842,3.6-.886,3.681-4.4,10.792-12.842,6.017-17.5s-3.057-5.505-8.6-10.28a19.748,19.748,0,0,1-4.011-5.218c-1-1.6-1.824-2.518-3.734-1.763a15.617,15.617,0,0,0-3.8,2.457c-7.893,6.365-12.338,8.692-12.009,4.411s-4.784-1.6-4.011,4.645c.269,2.127,1.824,4.35,3.76,6.356a36.07,36.07,0,0,0,3.083,2.822,53.129,53.129,0,0,0,4.506,3.308,13.468,13.468,0,0,0-.538,1.415c-1.051,1.311-2.57,3.5-1.537,4.011a2.2,2.2,0,0,0,.686.217c-.278,2.631-.235,9.213,7.433,7.65,0,.278,0,.53.017.773a5.429,5.429,0,0,0-1.884,1.224,2.057,2.057,0,0,1-.313.243,4.862,4.862,0,0,0-2.031.139s-.278.443-.764,1.172c-2.353.946-5.132,1.867-5.132,1.867l2.327,1.137c-2.918.07-11.166.426-13.042,2.188a2.579,2.579,0,0,0-.426.6l-10.584,3.03.043.347c-.052-.07-.087-.139-.139-.208l-8.926-2.883c-.868-2.353-1.615-4.715-2.258-7.068.391-1.216.964-3,1.658-5.192.417-1.354.885-2.848,1.381-4.463v-.009c1.181-3.855,2.526-8.318,3.82-12.833a7,7,0,0,0,.287-1.962c.686-2.292.686-6.234.13-10.819a84.32,84.32,0,0,0-2.023-10.68c.009-.018.026-.026.035-.044,0,0-1.98-13.111-6.773-19.736a9,9,0,0,0-4.133-3.447,8.757,8.757,0,0,0-1.18-.3,16.575,16.575,0,0,0-8.4-2.145,8.362,8.362,0,0,0-.912-.4,41.783,41.783,0,0,1-2.631-8.023c1.346-.764,2.622-2.3,3.248-5.271,1.537-7.276,2.188-11.01-2.457-15.794a.735.735,0,0,0,.321-.3,1.354,1.354,0,0,0,.078-.156c1.962.182,4.654,2.292,4.654,2.292l2.6-3.777a30.233,30.233,0,0,0-2.509-3.5c-4.029,0-5.93,1.259-6.824,2.37h-.122c-.035.009-.069.018-.1.026a1.122,1.122,0,0,0-.677.929c-5.722-3.186-13.927,1.172-15.308,5.748-1.259,4.142-.92,7.589.877,8.153.122.035.243.078.365.121-.052.469-.113.955-.165,1.45a36.155,36.155,0,0,0-1.815,4.454,2.063,2.063,0,0,0-.139,1.216,1.84,1.84,0,0,0,1.294.816c-.1,1.224-.183,2.414-.235,3.5-.017.287-.026.556-.035.825v.009a.107.107,0,0,1-.009.052v.234c-.009.269-.017.538-.017.808v.556c0,.2.009.391.017.573v.13c0,.026.009.052.009.078.009.278.035.521.061.747a.194.194,0,0,0,.009.069v.035a3.008,3.008,0,0,0,.235.9,1.535,1.535,0,0,0,.842.66c1.459.677,3.985-.182,5.192-.59h.018c.851-.287,1.45-.538,1.485-.556,0,0,.052.5.156,1.259-.608.365-1.2.747-1.763,1.129-3.221-.547-6.824,2.5-9.065,5.114a19.673,19.673,0,0,0-1.649,2.206c-2.292,3.664-7.163,15.968-7.163,15.968s.686.408,1.771,1.025a111.378,111.378,0,0,0-5.365,15.256,21.554,21.554,0,0,0-.443,2.327,14.641,14.641,0,0,0-4.975,2.952c-1.007.816-2.04,1.754-3.082,2.744-1.329,1.268-2.657,2.631-3.907,3.977-3.352,3.612-6.1,6.99-6.608,7.632l-.043-.07s-2.188,1.285-3.021.825-4.177-2.275-4.42-.86,1.745,2.492,1.745,2.492-3.265.842-4.541,5.166,4.819,2.466,7.181.686c1.762-1.337,3.907-3.074,4.871-3.864,1.172-.677,8.24-4.784,16.315-9.777.964-.6,1.945-1.207,2.926-1.823-.191,1.146-.382,2.292-.564,3.43-1.424,8.961-2.362,17.661-1.693,22.375-.269-.582-.616-1.311-.99-2.258-1.511-3.864-5.835-.608-5.835-.608s-.452-4.307-2.206-3.9-.365,5.392-.365,5.392l-13.58,6.078c-.044.087-.078.165-.122.252l.009-.391-11.01-1.867a4.384,4.384,0,0,0-.833-2.379c-1.129-1.3-4.463-1.2-7.45-.8a92.442,92.442,0,0,0-1.484-10.706l1.467.174v-1.815c1.32.964,2.857,2.431,4.446,3.43a9.285,9.285,0,0,0,1.1.617c2.657,1.233,4.159-4.254,4.263-4.663a.07.07,0,0,0,.008-.026s3.031.59,3.352-.755c.4-1.685-5.7-2.388-5.939-2.431a3.185,3.185,0,0,0,2.327-2.422c.087-1.494-2.509-.495-4.784.373a6.871,6.871,0,0,1-4.68-.191c-.035-.009-.06,0-.1-.009v-.313l-3.386-1.137c-.574-2.492-.982-4.116-.982-4.116a13.463,13.463,0,0,0-2.718-5.2c-1.979-2.258-5.244-4.055-10.454-2.449h-.009a24.592,24.592,0,0,0-5.948,2.857L3818.5,850.2l-.3-.677c1.224-2.587,2.3-4.975,1.971-6.738-.755-4.081-3.586-10.7-6.633-16.055a12.53,12.53,0,0,0,1.024-3.073c2.865-14.561-1.1-13.18-.026-19.484.043-.208.087-.416.122-.616.122-.617.287-1.285.512-2.049,0,0,4.168-7.354,2.952-12.694s-4.949-9.646-12.851-9.742a14.147,14.147,0,0,0-6.955,1.554.008.008,0,0,0-.009.009q.052.521.1,1.042c.1,1.111.217,2.214.339,3.317q.52,4.962,1.2,9.846.651,4.9,1.459,9.7c.182,1.068.365,2.136.547,3.2q.833,4.793,1.823,9.5c.26,1.259.53,2.5.808,3.742.269,1.215.538,2.431.825,3.638a.306.306,0,0,0,.017.087c.043.191.087.373.131.564.034.139.069.287.1.426.208.886.417,1.771.634,2.648q.938,3.8,1.953,7.563c.269.99.547,1.962.825,2.944.287,1.016.582,2.023.876,3.03q.887,3.022,1.841,6.017h0c.8,2.52,1.619,5.029,2.481,7.519,8.31,23.93,19.172,44.074,32.925,60.909-.486-4.168-.651-8.44-1.207-14.631l.66-.113s.009-.052.018-.13a15.032,15.032,0,0,0,2.666-.842,3.831,3.831,0,0,0,1.129-1.693,87.018,87.018,0,0,0,12.833-.582s12.885-7.354,17.652-8.709a31.813,31.813,0,0,0,3.942-1.094c1.676-.972,2.275-1.519,2.292-2.232a15.75,15.75,0,0,0,3.733.929.781.781,0,0,0,.122.061c-5.522,11.791-15.82,35.113-15.082,43.536.373,4.263,3.177,10.853,6.59,17.5a145,145,0,0,0,15.551,8.9l-9.186-26.943s4.784-6.885,11.166-16.7l6.73-10.055,5.791,39.194,2.544,21.646q4.806,1.68,9.785,3.048l-.322-27.125a215.865,215.865,0,0,1,2.6-28.957c1.381-7.936,3.248-11.774,4.463-15.447,4.741-.521,9.708-1.494,10.931-3.273,4,1.554,7.615,3.134,7.615,3.134a82.808,82.808,0,0,0,10.063-.547l9.109,1.007c-.026,3.543.043,6.712.043,6.712s1.658,10.046.417,16.437-1.971,7.537-1.4,7.537h1.25l-.868,21.42c-.035.53-.061,1.05-.1,1.546a147.675,147.675,0,0,0,16.645-12.147,160.286,160.286,0,0,0,18.938-18.833,26.313,26.313,0,0,1-.322-3c1.354-.443,2.648-.868,3.8-1.242,1.2-.4,2.231-.729,2.987-.981a2.564,2.564,0,0,0,1.5-.565c1.085-1.215,1.537-3.673,1.5-6.469A26.919,26.919,0,0,0,4011.49,895.938Zm-101.163-89.329c.017.1.034.191.043.287a.7.7,0,0,0-.1.061c-.078.035-.147.078-.226.113C3910.136,806.9,3910.232,806.757,3910.328,806.609Zm93.982,100.277c.017-.226.043-.443.07-.66l.165.573C4004.466,906.835,4004.388,906.861,4004.31,906.887Z" transform="translate(-3791.184 -624.553)" opacity="0.079"/>
      </g>
    </g>
    <g id="Group_48427" data-name="Group 48427" transform="translate(1101.953 2337.262)">
      <g id="Group_48396" data-name="Group 48396" transform="translate(0 8.039)">
        <g id="Group_48389" data-name="Group 48389" transform="translate(75.624 88.47)">
          <path id="Path_18816" data-name="Path 18816" d="M2049.864,1150.277a11.455,11.455,0,0,1-1.251-.634c-2.7-1.559-5.32-4.211-7.06-4.548-2.005-.392-.454-5.682,2.132-5.246a8.488,8.488,0,0,0,5.306.2c2.575-.895,5.518-1.924,5.424-.386-.064,1.046-1.4,2.222-2.641,2.494.269.043,7.181.766,6.73,2.51-.358,1.382-3.8.776-3.8.776s0,.007-.007.026C2054.578,1145.891,2052.878,1151.549,2049.864,1150.277Z" transform="translate(-2040.638 -1138.877)" fill="#f5b297"/>
          <path id="Path_18817" data-name="Path 18817" d="M2067.086,1163.351a11.5,11.5,0,0,1-1.25-.634,4.063,4.063,0,0,1-.309-3.869c1.078-2.616,5.6-.67,6.4-.3C2071.8,1158.965,2070.1,1164.623,2067.086,1163.351Z" transform="translate(-2057.86 -1151.951)" fill="#e09c85"/>
        </g>
        <path id="Path_18818" data-name="Path 18818" d="M1933.626,1068.305l6.721,13.931,25.378,7.754v8.46l-30.783-3.309S1924.085,1081.632,1933.626,1068.305Z" transform="translate(-1887.157 -1000.878)" fill="#fff"/>
        <path id="Path_18819" data-name="Path 18819" d="M1847.748,865.3s4.723-7.577,3.346-13.088-5.609-9.939-14.563-10.037-15.547,5.018-13.972,15.155-14.562,22.535-13.874,33.458,34.734,14.17,38.375-2.657S1844.6,875.139,1847.748,865.3Z" transform="translate(-1802.208 -842.171)" fill="#232750"/>
        <path id="Path_18820" data-name="Path 18820" d="M1912.406,1332.459s-3.537,28.729-3.537,35.671-2.243,34.7-2.243,34.7-6.106,7.137-7.128,0,.651-27.354,0-36.436c-.651-9.177-6.512-36.255-6.512-36.255Z" transform="translate(-1861.388 -1184.643)" fill="#f5b297"/>
        <path id="Path_18821" data-name="Path 18821" d="M1836.691,1336.2s-1.43,25.645-2.859,29.308-14.437,33.419-14.437,33.419-5.527,5.721-6.549,1.479,8.973-31.425,8.973-36.057-2.65-31.624-2.65-31.624Z" transform="translate(-1805.094 -1186.452)" fill="#f5b297"/>
        <path id="Path_18822" data-name="Path 18822" d="M1809.477,970.468c1.366-.47,11.526,1.723,13.045,1.912,4.24.53,14.1,17.59,15.7,25.451.914,4.457-7.734,12.755-4.921,18.467,2.144,4.351,7.408,10.769,7.128,18.679-.38,10.781-8.521,20.407-.317,30.615,10.285,12.8,6.422,19.023-24.423,16.192s-32.4-.027-24.939-19.023C1806.773,1021.963,1790.509,976.988,1809.477,970.468Z" transform="translate(-1787.016 -932.167)" fill="#00c3d9"/>
        <path id="Path_18823" data-name="Path 18823" d="M1889.153,941.075s.215,5.126.659,8.987c.126,1.094,1.574,5.019-1.771,4.035s-8.561-5.412-8.561-5.412l-.325-11.021Z" transform="translate(-1851.682 -909.19)" fill="#f5b297"/>
        <path id="Path_18824" data-name="Path 18824" d="M1880.272,938.769c.556.824,1.1,1.684,1.637,2.554,1.529,1.65,2.945,3.41,4.438,5.1,1.1,1.246,2.288,2.389,3.5,3.522-.358-3.973-.691-8.865-.691-8.865l-10-3.412.022.461A1.405,1.405,0,0,1,1880.272,938.769Z" transform="translate(-1851.682 -909.19)" fill="#231f20" opacity="0.6"/>
        <path id="Path_18825" data-name="Path 18825" d="M1887.433,879.987s-1.666,21.775-7.631,20.96c-6.261-.855-12.048-6-13.032-9.545s-.615-3.321-.615-3.321-2.14-.443-2.066-4.059,2.577-.948,2.577-.948,8.173-9.778,13.487-8.991S1887.433,879.987,1887.433,879.987Z" transform="translate(-1841.106 -864.536)" fill="#f5b297"/>
        <path id="Path_18826" data-name="Path 18826" d="M1868.717,906.279l-.345,3.37a9.649,9.649,0,0,1-.881-2.873C1867.415,905.551,1868.717,906.279,1868.717,906.279Z" transform="translate(-1843.493 -887.013)" fill="#e2a07f"/>
        <path id="Path_18827" data-name="Path 18827" d="M1892.484,877.923c-.048-2.182-1.936-4.649-2.172-4.949,1.523,2.075,1.121,5.518,1.024,6.178-1.941,1.791-4.981,3.169-8.521-.231-7.046-6.772-9.958,2.573-9.958,2.573s-1.523-8.965,4.676-11.523,12.344-.681,16.082,6.306A11.936,11.936,0,0,1,1892.484,877.923Z" transform="translate(-1847.146 -860.916)" fill="#232750"/>
        <path id="Path_18828" data-name="Path 18828" d="M1877.97,1007.07s-.546,14.826,5.3,21.51,8.9,6.45,5.377,9.74-8.019,5.059-4.6,8.052,12.53,22.054,12.53,22.054l-18.861-14.6S1870.963,1011.332,1877.97,1007.07Z" transform="translate(-1848.618 -957.901)" fill="#231f20" opacity="0.2"/>
        <g id="Group_48391" data-name="Group 48391" transform="translate(12.748 38.268)">
          <g id="Group_48390" data-name="Group 48390" transform="translate(29.247 71.799)">
            <path id="Path_18829" data-name="Path 18829" d="M1937.082,1222.709a11.587,11.587,0,0,1-1.25-.634c-2.7-1.559-5.32-4.211-7.06-4.548-2-.391-.454-5.682,2.132-5.246a8.49,8.49,0,0,0,5.306.2c2.575-.895,5.518-1.924,5.424-.386-.064,1.046-1.4,2.223-2.641,2.494a37.68,37.68,0,0,1,2.934,3.286s0,.007-.007.026C1941.8,1218.322,1940.1,1223.98,1937.082,1222.709Z" transform="translate(-1927.856 -1211.308)" fill="#f5b297"/>
          </g>
          <path id="Path_18830" data-name="Path 18830" d="M1839.484,970.546s5.172-1.052,6.642,8.754,0,37.438,0,37.438l18.861,26.032-4.349,7.183s-23.976-15.129-27.317-27.537C1830.981,1013.728,1824.147,977.187,1839.484,970.546Z" transform="translate(-1829.771 -970.513)" fill="#fff"/>
        </g>
        <path id="Path_18831" data-name="Path 18831" d="M1936.243,1022.231s5.7,9.794,5.228,13.738-3.642,9.055-3.642,8.879,2.589-6.4,1.882-10.163S1936.243,1022.231,1936.243,1022.231Z" transform="translate(-1891.747 -968.542)" fill="#a4b7fc"/>
        <path id="Path_18832" data-name="Path 18832" d="M1945.5,1137.093s7.284,12.513,4.112,20.854C1949.615,1157.948,1947.03,1153.542,1945.5,1137.093Z" transform="translate(-1898.246 -1049.155)" fill="#a4b7fc"/>
        <path id="Path_18833" data-name="Path 18833" d="M1806.521,1188.159s-2.509,17.327,4.816,21.584,17.472,9.143,17.472,9.143-19.329-1.532-29.14,7.072-6.989-3.012-.771-11.865S1800.107,1192.2,1806.521,1188.159Z" transform="translate(-1791.389 -1084.994)" fill="#231f20" opacity="0.1"/>
        <g id="Group_48393" data-name="Group 48393" transform="translate(36.285 217.141)">
          <g id="Group_48392" data-name="Group 48392" transform="translate(0 2.856)">
            <path id="Path_18834" data-name="Path 18834" d="M1910.6,1591.676a7.54,7.54,0,0,1-1.848-5.367,18.745,18.745,0,0,1,2.385-6.166l6-.161s2.019.306,1.711,3.708c0,0,12.585-.4,14.546,2.973,2.4,4.131-3.614,4.464-3.614,4.464S1916.777,1594.158,1910.6,1591.676Z" transform="translate(-1908.707 -1579.983)" fill="#28264a"/>
            <path id="Path_18835" data-name="Path 18835" d="M1940.577,1599.545s10.682-2.819,12.264.393S1940.577,1599.545,1940.577,1599.545Z" transform="translate(-1931.074 -1592.909)" fill="#fff" opacity="0.1"/>
          </g>
          <path id="Path_18836" data-name="Path 18836" d="M1921.843,1575.153s-.88,1.088-3.406,1.088a6.883,6.883,0,0,1-3.38-1.088l-.5-4.748h7.758Z" transform="translate(-1912.813 -1570.405)" fill="#fff"/>
        </g>
        <g id="Group_48395" data-name="Group 48395" transform="translate(0.919 209.209)">
          <g id="Group_48394" data-name="Group 48394" transform="translate(0 2.985)">
            <path id="Path_18837" data-name="Path 18837" d="M1790.3,1563.756a7.54,7.54,0,0,1,.879-5.608,18.75,18.75,0,0,1,4.993-4.333l5.379,2.667s1.641,1.215-.223,4.078c0,0,11.311,5.534,11.463,9.435.187,4.773-5.282,2.253-5.282,2.253S1794.6,1568.841,1790.3,1563.756Z" transform="translate(-1790.1 -1553.815)" fill="#28264a"/>
            <path id="Path_18838" data-name="Path 18838" d="M1821.261,1584.113s10.759,2.507,10.654,6.087S1821.261,1584.113,1821.261,1584.113Z" transform="translate(-1811.969 -1575.079)" fill="#fff" opacity="0.1"/>
          </g>
          <path id="Path_18839" data-name="Path 18839" d="M1813.188,1551.409s-1.287.549-3.519-.633a6.883,6.883,0,0,1-2.478-2.543l1.781-4.429,6.856,3.631Z" transform="translate(-1802.095 -1543.804)" fill="#fff"/>
        </g>
      </g>
      <g id="Group_48410" data-name="Group 48410" transform="translate(93.511)">
        <path id="Path_18840" data-name="Path 18840" d="M2256.656,932.822s12.827-.645,16.236,10.41-3.346,74.033-6.478,75.081-40.145,3.482-48.765-3.678c3.191-16.846,17.768-76.806,24.913-81.022A15.724,15.724,0,0,1,2256.656,932.822Z" transform="translate(-2182.757 -896.832)" fill="#f2501d"/>
        <g id="Group_48398" data-name="Group 48398" transform="translate(30.217 174.298)">
          <g id="Group_48397" data-name="Group 48397" transform="translate(5.955 32.156)">
            <path id="Path_18841" data-name="Path 18841" d="M2240.6,1515.922a6.2,6.2,0,0,0-.585-4.634,15.427,15.427,0,0,0-4-3.686l-4.49,2.062s-1.379.959.083,3.359c0,0-9.438,4.274-9.659,7.479-.27,3.921,4.29,1.983,4.29,1.983S2236.939,1520,2240.6,1515.922Z" transform="translate(-2221.938 -1507.602)" fill="#28264a"/>
            <path id="Path_18842" data-name="Path 18842" d="M2234.975,1510.737a3.958,3.958,0,0,0,2.913,4.07s-8.287,1.753-10.116,4.27-.26,4.036,4.94,2.334,11.559-4.347,9.984-7.952-3.248-4.751-3.248-4.751Z" transform="translate(-2225.517 -1508.379)" fill="#fff" opacity="0.1"/>
            <path id="Path_18843" data-name="Path 18843" d="M2238.543,1532.256s-8.91,1.8-8.911,4.745S2238.543,1532.256,2238.543,1532.256Z" transform="translate(-2227.338 -1524.905)" fill="#fff" opacity="0.1"/>
          </g>
          <path id="Path_18844" data-name="Path 18844" d="M2208.395,1400.331s-5.534-2.407-6.4,2.655,15.893,32.4,15.893,32.4,3.563,3.5,4.7-1.065C2222.591,1434.318,2213.262,1405.948,2208.395,1400.331Z" transform="translate(-2201.966 -1399.759)" fill="#f5b297"/>
        </g>
        <path id="Path_18845" data-name="Path 18845" d="M2209.952,1195.53s-8.19-12.49-18.333-6.911c0,0-22.056,40.269-20.907,52.093,1.169,12.039,22.957,42.044,22.957,42.044s1.52,1.368,4.138,0a3.844,3.844,0,0,0,2.091-3.928l-14.5-38.674s8.1-10.6,17.707-24.357C2211.124,1204.309,2210.485,1205.013,2209.952,1195.53Z" transform="translate(-2149.783 -1076.271)" fill="#28264a"/>
        <path id="Path_18846" data-name="Path 18846" d="M2237.48,1213.683l-17.428,45.068,29.461-40.067Z" transform="translate(-2184.442 -1094.868)" fill="#231f20" opacity="0.6"/>
        <g id="Group_48400" data-name="Group 48400" transform="translate(0 36.707)">
          <path id="Path_18847" data-name="Path 18847" d="M2162.722,1083.076c5.778,1.4,9.4,5.716,4.045,8.808-12.34,7.128-24.857,13.694-24.857,13.694l-1.921-4.487S2156.943,1081.676,2162.722,1083.076Z" transform="translate(-2128.252 -1039.861)" fill="#f5b297"/>
          <g id="Group_48399" data-name="Group 48399" transform="translate(32.771)">
            <path id="Path_18848" data-name="Path 18848" d="M2238.833,952.727c-.153,14.3-17.533,42.152-23.5,40.1-3.767-1.294-5.957-3.779-4.171-10.313,2.95-10.79,11.23-26.5,15.337-33.547C2228.993,944.7,2239.007,936.475,2238.833,952.727Z" transform="translate(-2210.533 -941.649)" fill="#f5b297"/>
            <path id="Path_18849" data-name="Path 18849" d="M2226.318,962.405s2.966,1.589,6.473,3.306c4.167,2.034,9.1,4.242,10.77,4.147,0,0,12.573-19.278,7.578-27.925a6.68,6.68,0,0,0-4.125-3.469c-4.89-1.174-10.725,4.784-12.584,7.481C2231.834,949.724,2226.318,962.405,2226.318,962.405Z" transform="translate(-2221.611 -938.313)" fill="url(#linear-gradient-2)"/>
            <path id="Path_18850" data-name="Path 18850" d="M2248.028,966.068c4.167,2.034,9.1,4.242,10.77,4.147,0,0,12.574-19.278,7.578-27.925a6.68,6.68,0,0,0-4.125-3.469c-5,2.715-9,9.39-10.323,12.672A120.343,120.343,0,0,0,2248.028,966.068Z" transform="translate(-2236.848 -938.669)" fill="#231f20" opacity="0.6"/>
          </g>
          <path id="Path_18851" data-name="Path 18851" d="M2112.429,1141.627s-2.481,1.319-3.427.849-4.735-2.349-5.009-.885,1.977,2.565,1.977,2.565a7.817,7.817,0,0,0-5.145,5.32c-1.45,4.454,5.461,2.547,8.136.706s6.11-4.413,6.11-4.413Z" transform="translate(-2100.627 -1080.594)" fill="#f5b297"/>
        </g>
        <g id="Group_48403" data-name="Group 48403" transform="translate(51.95 110.706)">
          <g id="Group_48402" data-name="Group 48402" transform="translate(6.464 79.921)">
            <g id="Group_48401" data-name="Group 48401" transform="translate(0 35.816)">
              <path id="Path_18852" data-name="Path 18852" d="M2315.883,1583.732a6.2,6.2,0,0,0,.389-4.655,15.423,15.423,0,0,0-3.148-4.436l-4.82,1.085s-1.548.652-.615,3.3c0,0-10.119,2.223-11,5.312-1.078,3.78,3.784,2.83,3.784,2.83S2311.456,1586.96,2315.883,1583.732Z" transform="translate(-2296.532 -1574.642)" fill="#28264a"/>
              <path id="Path_18853" data-name="Path 18853" d="M2312.105,1576.679a3.957,3.957,0,0,0,2,4.586s-8.471-.005-10.782,2.078-1.092,3.894,4.348,3.308,12.209-1.854,11.417-5.707-2.191-5.321-2.191-5.321Z" transform="translate(-2300.521 -1575.33)" fill="#fff" opacity="0.1"/>
              <path id="Path_18854" data-name="Path 18854" d="M2314.742,1596.759s-9.09-.089-9.7,2.793S2314.742,1596.759,2314.742,1596.759Z" transform="translate(-2302.485 -1590.164)" fill="#fff" opacity="0.1"/>
            </g>
            <path id="Path_18855" data-name="Path 18855" d="M2331.8,1456.361s-4.291-4.243-6.924.166,3.118,35.951,3.118,35.951a4.661,4.661,0,0,0,4.624.072S2334.31,1463.358,2331.8,1456.361Z" transform="translate(-2315.94 -1454.523)" fill="#f5b297"/>
          </g>
          <path id="Path_18856" data-name="Path 18856" d="M2308.308,1195.042s-23.312-12.717-33.455-7.139l10.5,64.592,6.273,48.424s-.657,1.039,3.537,1.29c3.5.209,4.472-1.5,4.472-1.5l-.668-50.724a203.438,203.438,0,0,1,2.937-29.842C2304.571,1206.2,2308.842,1204.524,2308.308,1195.042Z" transform="translate(-2274.853 -1186.488)" fill="#28264a"/>
        </g>
        <path id="Path_18857" data-name="Path 18857" d="M2272.468,941.708l-4-4.786s-13.948-7.873-24.85-.223-8.995,18.388-8.995,18.388,2.1,20.158-2.033,25.012c-6.391,7.505-12.555,26.157-6.2,33.838,6.153,7.432,33.518,13.318,41.691.6s.192-36,.192-36Z" transform="translate(-2187.017 -898.127)" fill="#fff"/>
        <path id="Path_18858" data-name="Path 18858" d="M2315.973,960.231s-6.107,31.375-9.545,41.148,4.353,31.629,2.927,35.528-6.069,3.936-6.069,3.936,15.542,9.192,20.673,1.967S2315.973,960.231,2315.973,960.231Z" transform="translate(-2242.859 -916.989)" fill="#231f20" opacity="0.2"/>
        <path id="Path_18859" data-name="Path 18859" d="M2335.969,936.271s-13.2,56.153-1.345,92.957c0,0,26.1-.32,23.336-5.648-15.821-30.493-6.781-65.27-6.781-65.27S2355.441,939.338,2335.969,936.271Z" transform="translate(-2261.384 -900.173)" fill="url(#linear-gradient-2)"/>
        <path id="Path_18860" data-name="Path 18860" d="M2239.161,932.062a15.5,15.5,0,0,0-4.195,8.859c-3.293,32.733-19.527,51.827-11.8,76.213,0,0-7.9.148-11.762-1.44-3.274-10.513,8.213-55.137,8.213-55.137S2217.9,942.911,2239.161,932.062Z" transform="translate(-2177.961 -897.219)" fill="url(#linear-gradient-2)"/>
        <g id="Group_48407" data-name="Group 48407" transform="translate(49.457)">
          <path id="Path_18861" data-name="Path 18861" d="M2318.1,941.571s-4.549,8.63-8.987,8.236-3.844-6.252-3.844-6.252Z" transform="translate(-2293.687 -903.893)" fill="#231f20" opacity="0.6"/>
          <g id="Group_48406" data-name="Group 48406">
            <g id="Group_48405" data-name="Group 48405">
              <path id="Path_18862" data-name="Path 18862" d="M2269.576,874.962s-3.564,6.505-3.03,7.4a2.519,2.519,0,0,0,1.96.891Z" transform="translate(-2266.492 -857.145)" fill="#ec9480"/>
              <path id="Path_18863" data-name="Path 18863" d="M2270.837,874.045c1.41,2.257,8.41-.446,8.541-.5h0s.9,8.1,3.131,8.613c7.811,1.809,11.177-5.268,11.177-5.268s-4.84-9.467-4.057-12.6-4.271-14.879-4.271-14.879l-12.884,2.422s-1.6,10.406-1.948,17.039C2270.392,871.422,2270.442,873.413,2270.837,874.045Z" transform="translate(-2269.276 -839.214)" fill="#ffb598"/>
              <g id="Group_48404" data-name="Group 48404" transform="translate(18.341)">
                <path id="Path_18864" data-name="Path 18864" d="M2328.547,819.385s.43-4.177,8.638-4.177c.285,0,2.847,3.607,2.847,3.607l-2.942,3.892s-5.316-3.8-7.024-1.8S2328.547,819.385,2328.547,819.385Z" transform="translate(-2328.38 -815.209)" fill="#28264a"/>
                <path id="Path_18865" data-name="Path 18865" d="M2328,824.81s0-1.282.926-1.424,3.346,1.5,2.421,2.848S2328,824.81,2328,824.81Z" transform="translate(-2328.004 -820.941)" fill="#fff"/>
              </g>
              <path id="Path_18866" data-name="Path 18866" d="M2270.461,905.43c.018.308.045.615.085.921.4,3.122,5.207,1.619,7.112,1.042.573-.173,1.142-.362,1.7-.577,0,0,4.825-1.845,3.889-10,0,0-2.531,6.778-5.137,7.781s-1.659-.941-4.713-2.467c-1-.5-2.14-.736-2.893.012A29.534,29.534,0,0,0,2270.461,905.43Z" transform="translate(-2269.257 -872.484)" fill="#ec9480"/>
              <path id="Path_18867" data-name="Path 18867" d="M2280.375,836.086s-2.206,7.8.5,8.8c0,0,.114-3.54,1.805-3.224,1.9.355,2.708,2.515-.387,6.771,0,0,6.91,2.037,8.761-5.937s2.563-11.817-3.844-17.228-17.489-.5-19.221,4.7c-1.424,4.271-1.037,7.819,1,8.4C2271.974,839.219,2273.4,840.927,2280.375,836.086Z" transform="translate(-2266.945 -820.614)" fill="#28264a"/>
              <path id="Path_18868" data-name="Path 18868" d="M2270.483,919.725c3.019.225,2.9-1.729,2.9-1.729a3.025,3.025,0,0,0-2.9-.7c0,.15-.011.3-.014.441,0,.072,0,.143,0,.214s0,.142,0,.211C2270.455,918.737,2270.459,919.262,2270.483,919.725Z" transform="translate(-2269.277 -886.779)" fill="#ffb598"/>
            </g>
            <path id="Path_18869" data-name="Path 18869" d="M2316.686,891.621c1.078-.176,2.216-1.75,1.666-2.846a1.093,1.093,0,0,0-1.638-.366Z" transform="translate(-2301.719 -866.43)" fill="#ec9480"/>
            <path id="Path_18870" data-name="Path 18870" d="M2287.164,901.188a1.794,1.794,0,1,0,1.807-1.781A1.794,1.794,0,0,0,2287.164,901.188Z" transform="translate(-2281 -874.301)" fill="#ec9480" opacity="0.39"/>
          </g>
        </g>
        <path id="Path_18871" data-name="Path 18871" d="M2258.706,1074.134s-1.614,12.541-4.416,16.81-2.524,15.381,1.01,16.534,7.557-3.181,5.718-9-1.481-10.745-1.165-17.715S2258.706,1074.134,2258.706,1074.134Z" transform="translate(-2207.141 -996.927)" fill="#231f20" opacity="0.1"/>
        <path id="Path_18872" data-name="Path 18872" d="M2351,988.825s-3.744,14.211,0,18.643,6.131,3.921,6.131,3.921l1.525,14.729-1.187,19.262s-6.43,4.876-4.748,6.751,6.115,6.406,6.115,6.406l9.109-30.345-8.921-33.458Z" transform="translate(-2275.176 -937.057)" fill="#231f20" opacity="0.2"/>
        <g id="Group_48409" data-name="Group 48409" transform="translate(75.675 38.104)">
          <path id="Path_18873" data-name="Path 18873" d="M2394.354,1090.458c4.839-2.674,10.032-1.993,8.309,3.491-3.972,12.642-8.418,25.01-8.418,25.01l-4.137-1.866S2389.515,1093.132,2394.354,1090.458Z" transform="translate(-2379.451 -1045.425)" fill="#f5b297"/>
          <g id="Group_48408" data-name="Group 48408">
            <path id="Path_18874" data-name="Path 18874" d="M2371.737,953.064c8.886,9.891,14.494,39.9,9.12,42.246-3.394,1.482-6.458,1.157-9.342-4.442-4.764-9.246-8.973-25.218-10.587-32.625C2359.949,953.752,2361.637,941.822,2371.737,953.064Z" transform="translate(-2358.818 -946.773)" fill="#f5b297"/>
            <path id="Path_18875" data-name="Path 18875" d="M2359.36,973.041s3.031-.776,6.513-1.805c4.133-1.227,8.9-2.818,9.985-3.931,0,0-3.508-21.112-12.367-23.9a6.212,6.212,0,0,0-5.007.217c-4.088,2.27-4.339,10.02-3.917,13.037C2355.165,960.886,2359.36,973.041,2359.36,973.041Z" transform="translate(-2354.42 -943)" fill="url(#linear-gradient-2)"/>
            <path id="Path_18876" data-name="Path 18876" d="M2373.586,971.236c4.133-1.227,8.9-2.818,9.985-3.931,0,0-3.508-21.112-12.367-23.9a6.212,6.212,0,0,0-5.007.217c-1.716,5-.26,12.091.9,15.173A111.921,111.921,0,0,0,2373.586,971.236Z" transform="translate(-2362.133 -943)" fill="#f25017"/>
          </g>
          <path id="Path_18877" data-name="Path 18877" d="M2376.021,1182.766s-.87,2.463-1.814,2.736-4.721,1.368-3.987,2.544,2.967.514,2.967.514a7.269,7.269,0,0,0-.179,6.88c1.807,3.963,5.343-1.689,6.018-4.632s1.41-6.865,1.41-6.865Z" transform="translate(-2365.443 -1111.274)" fill="#f5b297"/>
        </g>
      </g>
      <g id="Group_48419" data-name="Group 48419" transform="translate(35.977 83.203)">
        <path id="Path_18878" data-name="Path 18878" d="M1960.069,1102.784s-3.935-15.612-22.259-4.6-3.15,24.842-4.145,33.846-2.985,16.5,7.463,12.752,23.55-6.629,23.965-14.518S1960.069,1102.784,1960.069,1102.784Z" transform="translate(-1922.435 -1094.25)" fill="#232750"/>
        <g id="Group_48412" data-name="Group 48412" transform="translate(36.543 26.753)">
          <path id="Path_18879" data-name="Path 18879" d="M2062,1224.53s-22.57,2.614-25.214-2.581c-2.394-4.706,3.562-10.11,3.562-10.11l22.02,3.4Z" transform="translate(-2034.43 -1203.53)" fill="#ffaa8c"/>
          <path id="Path_18880" data-name="Path 18880" d="M2120.7,1195.827l15.391-6.269s-1.582-5.137.408-5.557,2.507,4.022,2.507,4.022,4.9-3.361,6.61.622,3.049,4.113-.935,6.224a40.493,40.493,0,0,1-4.465,1.125c-5.405,1.392-20.01,8.979-20.01,8.979A8.68,8.68,0,0,1,2120.7,1195.827Z" transform="translate(-2092.639 -1183.973)" fill="#f9b29b"/>
          <g id="Group_48411" data-name="Group 48411" transform="translate(0 6.233)">
            <path id="Path_18881" data-name="Path 18881" d="M2030.231,1206.233s12-2.874,14.51-.254c2.809,2.932-.918,15.148-2.766,16s-8.113,1.835-8.113,1.835Z" transform="translate(-2030.231 -1204.876)" fill="#fff"/>
            <path id="Path_18882" data-name="Path 18882" d="M2049.517,1233.166l-2.7-2.938-.475,11.179,3.893-.63S2051.462,1235.285,2049.517,1233.166Z" transform="translate(-2041.54 -1222.669)" fill="#1a3884" opacity="0.2"/>
          </g>
        </g>
        <g id="Group_48418" data-name="Group 48418" transform="translate(0 6.577)">
          <g id="Group_48413" data-name="Group 48413" transform="translate(0.269 29.563)">
            <path id="Path_18883" data-name="Path 18883" d="M1910.189,1280.532c-3.986-4.04.092-18.988,4.884-21.063,4.339-1.88,6.811,7.378,6.811,7.378L1914.3,1281.6S1911.465,1281.826,1910.189,1280.532Z" transform="translate(-1908.576 -1246.169)" fill="#ffaa8c"/>
            <path id="Path_18884" data-name="Path 18884" d="M1936.247,1230.8c-1.184,2.8-6.59,7.608-9.619,7.409-3.13-.206-9.52-4.331-10.124-7.409-.867-4.421,9.1-14.034,15.574-15.259S1937.814,1227.1,1936.247,1230.8Z" transform="translate(-1914.104 -1215.456)" fill="#fff"/>
          </g>
          <g id="Group_48416" data-name="Group 48416" transform="translate(0 64.564)">
            <path id="Path_18885" data-name="Path 18885" d="M1953.891,1419.993l-2.659,27.7s8.661,5.461,10.565-.434,6.1-23.63,6.1-23.63Z" transform="translate(-1938.245 -1394.006)" fill="#f9b29b"/>
            <path id="Path_18886" data-name="Path 18886" d="M2021.637,1429.328l8.948,27.917s8.41.963,8.1-5.224-2.667-24.259-2.667-24.259Z" transform="translate(-1987.656 -1399.458)" fill="#f9b29b"/>
            <path id="Path_18887" data-name="Path 18887" d="M1969.246,1334.2c-4.256-1.917-22.652-2.288-28.164,2.126-5.842,4.678-10.389,42.6-7.836,43.856s24.586-.773,26.617,0c5.735,2.185,18.3.551,19.04-1.866C1979.7,1375.714,1973.576,1336.146,1969.246,1334.2Z" transform="translate(-1925.112 -1332.838)" fill="#28264a"/>
            <path id="Path_18888" data-name="Path 18888" d="M2064.369,1586.813c-4.219-3-10.322-7.24-10.322-7.24a2.142,2.142,0,0,0-2.763.37,11.686,11.686,0,0,0-2.023,4.377c-.318,1.2.579,2.118,1.692,2.79,5.458,3.29,8.7,4.915,13.613,5.2C2065.742,1592.376,2068.024,1589.412,2064.369,1586.813Z" transform="translate(-2006.998 -1505.752)" fill="#492a3e"/>
            <g id="Group_48414" data-name="Group 48414" transform="translate(41.593 51.829)">
              <path id="Path_18889" data-name="Path 18889" d="M2047.166,1506.673c.6,9.572,2.6,18.371,2.619,25.015.117.025-.423,1.725,2.745,1.787,3.26.065,3.659-1.366,3.659-1.366a102.465,102.465,0,0,1,.425-25.232C2052.907,1506.569,2050.892,1506.682,2047.166,1506.673Z" transform="translate(-2047.166 -1506.66)" fill="#f5b297"/>
            </g>
            <path id="Path_18890" data-name="Path 18890" d="M1919.282,1575.861c-1.737-4.877-4.305-11.851-4.305-11.851a2.141,2.141,0,0,0-2.476-1.281,11.688,11.688,0,0,0-4.167,2.426c-.947.8-.74,2.068-.213,3.256,2.585,5.825,4.306,9.013,8.171,12.065C1917.217,1581.206,1920.787,1580.085,1919.282,1575.861Z" transform="translate(-1907.675 -1494.125)" fill="#492a3e"/>
            <g id="Group_48415" data-name="Group 48415" transform="translate(2.918 50.324)">
              <path id="Path_18891" data-name="Path 18891" d="M1929.076,1501.613c-5,8.185-7.5,14.969-11.3,20.421.082.088-1.335,1.17,1.224,3.038,2.633,1.922,3.781.979,3.781.979a102.475,102.475,0,0,1,14.816-20.429C1934.74,1503.245,1932.124,1503.756,1929.076,1501.613Z" transform="translate(-1917.46 -1501.613)" fill="#f5b297"/>
            </g>
          </g>
          <path id="Path_18892" data-name="Path 18892" d="M1987.056,1248.5c-5.646,6.345-25.418.208-33.848,2.924,6.924-18.47-3.58-31.827,2.685-39.486,2.518-3.079,8.869-4.362,15.436-3.862s10.7.5,11.668,7.569C1985.368,1232.95,1984.46,1238.558,1987.056,1248.5Z" transform="translate(-1939.631 -1180.637)" fill="#fff"/>
          <path id="Path_18893" data-name="Path 18893" d="M1991.693,1207.541s-.335,9.56-7.214,9.223-8.051-7.014-8.051-7.014S1984.931,1203.913,1991.693,1207.541Z" transform="translate(-1955.928 -1179.504)" fill="#6469d4"/>
          <path id="Path_18894" data-name="Path 18894" d="M1993.5,1195.281l-.031,8.1s-5.327,6.683-8.878,2.973a9.626,9.626,0,0,1-2.571-8.191Z" transform="translate(-1959.765 -1171.733)" fill="#f9b29b"/>
          <path id="Path_18895" data-name="Path 18895" d="M1981.908,1205.333s2.662,4.041,5.866,3.5a13.826,13.826,0,0,0,5.715-2.584l.01-2.63Z" transform="translate(-1959.774 -1177.584)" fill="#ffaa8c"/>
          <g id="Group_48417" data-name="Group 48417" transform="translate(11.291)">
            <path id="Path_18896" data-name="Path 18896" d="M1947.626,1132.623s4.723,11.793,12.07,12.308,12.231-3.7,12.024-8.234-.946-9.918,0-11.451-1.859-4.138-1.859-4.138-5.275-7.3-11.2-3.9a28.257,28.257,0,0,0-9.368,9.563s-3.765-1.611-3.745,1.22S1945.837,1131.523,1947.626,1132.623Z" transform="translate(-1945.541 -1116.308)" fill="#f9b29b"/>
          </g>
          <path id="Path_18897" data-name="Path 18897" d="M1914.084,1308.38c4.829-.829,14.3,5.112,14.3,5.112s3.7-4.481,5.352-3.463-.61,2.71-.61,2.71,6.012-1.1,4.578,2.792-3.071,8.031-6.309,5.189c-4.216-3.7-20.254-5.162-20.254-5.162S1906.988,1309.6,1914.084,1308.38Z" transform="translate(-1909.26 -1251.053)" fill="#f9b29b"/>
        </g>
        <path id="Path_18898" data-name="Path 18898" d="M1965.7,1113.543c-.205-.4-2.13,10.073-4.928,11.854s-3.388-6.956-3.388-6.956l1.586-11.661s19.649,1.668,21.254,7.037-.652,7.129-.652,7.129A13.152,13.152,0,0,1,1965.7,1113.543Z" transform="translate(-1942.56 -1103.044)" fill="#232750"/>
        <path id="Path_18899" data-name="Path 18899" d="M1958.1,1122.934s11.359-18.73,21.508-4.637c0,0-.985-8.759-10.754-7.295S1958.1,1122.934,1958.1,1122.934Z" transform="translate(-1943.064 -1105.891)" fill="url(#linear-gradient-2)"/>
        <path id="Path_18900" data-name="Path 18900" d="M1943.373,1390.071c-.118-.951,5.3-27.624,6.872-30.424s.47,11.714.47,11.714,1.819-8.474,3.048-9.472-.848,16.937-.749,17.907,1.4-15.332,4.374-13.182,2.914,27.053-1.9,27.792-4.221-7.641-4.221-7.641S1945.03,1403.411,1943.373,1390.071Z" transform="translate(-1932.728 -1280.261)" fill="#fff" opacity="0.3" style="mix-blend-mode: soft-light;isolation: isolate"/>
      </g>
      <g id="Group_48426" data-name="Group 48426" transform="translate(172.96 68.461)">
        <path id="Path_18901" data-name="Path 18901" d="M2518.132,1572.051c4.077-3.6,9.984-8.715,9.984-8.715a2.251,2.251,0,0,1,2.929.08,12.286,12.286,0,0,1,2.6,4.349c.466,1.216-.37,2.278-1.459,3.1-5.339,4.046-8.543,6.1-13.651,6.949C2517.315,1578.018,2514.6,1575.173,2518.132,1572.051Z" transform="translate(-2471.866 -1408.353)" fill="#492a3e"/>
        <path id="Path_18902" data-name="Path 18902" d="M2620.385,1530.8c-3.253-4.36-7.989-10.57-7.989-10.57a2.25,2.25,0,0,0-2.882-.521,12.283,12.283,0,0,0-3.435,3.725c-.7,1.094-.1,2.305.793,3.336,4.4,5.05,7.113,7.72,11.938,9.59C2619.964,1536.8,2623.2,1534.575,2620.385,1530.8Z" transform="translate(-2534.599 -1377.862)" fill="#492a3e"/>
        <g id="Group_48425" data-name="Group 48425">
          <path id="Path_18903" data-name="Path 18903" d="M2613.207,1491.083a4.266,4.266,0,0,0,6.206-.466,16.748,16.748,0,0,0,5.008-4.044l.123-.152c1.745-2.205,4.709-7.3,2.192-10.041a7.233,7.233,0,0,0-3.292-1.593c-4.642-1.143-9.2,12.063-10.136,15.712C2613.262,1490.673,2613.229,1490.957,2613.207,1491.083Z" transform="translate(-2539.818 -1346.529)" fill="#ffaa8c"/>
          <path id="Path_18904" data-name="Path 18904" d="M2613.207,1491.144a4.265,4.265,0,0,0,6.206-.466,16.75,16.75,0,0,0,5.008-4.044l.123-.152c1.745-2.205,4.709-7.3,2.192-10.041a5.77,5.77,0,0,0-3.292-1.593c-4.689-.9-9.207,12.185-10.136,15.712C2613.262,1490.734,2613.229,1491.018,2613.207,1491.144Z" transform="translate(-2539.818 -1346.59)" fill="#fac4b3" opacity="0.5"/>
          <path id="Path_18905" data-name="Path 18905" d="M2614.2,1434.461c-3.673.141-3.181-3.555-3.418-5.065-.86-5.472-7.972-15.656-8.17-21.192-.084-2.349,3.546-7.247,9.761-5.437,3.3.961,5.858,11.83,7.623,22.858v0C2621.446,1434.789,2615.834,1434.4,2614.2,1434.461Z" transform="translate(-2532.378 -1295.757)" fill="#ffaa8c"/>
          <g id="Group_48420" data-name="Group 48420" transform="translate(51.378 110.057)">
            <path id="Path_18906" data-name="Path 18906" d="M2548.7,1491.716c-.078-3.113-6.416-5.327-8.521-.946v0c.421,12.051,1.984,23.5,1.984,23.5s.433,2.113,2.281,2.111c2.968,0,2.941-2.335,2.941-2.335l0-.048,1.316-20.973C2548.708,1492.551,2548.707,1492.112,2548.7,1491.716Z" transform="translate(-2539.94 -1466.128)" fill="#efb5a3"/>
            <path id="Path_18907" data-name="Path 18907" d="M2548.15,1440.807l3.967-22.02s-4.351-7.126-10.1-4.152c-3.052,1.578-2.783,12.756-2.391,23.917v0C2540.045,1450.606,2548.15,1440.807,2548.15,1440.807Z" transform="translate(-2539.39 -1413.91)" fill="#ffaa8c"/>
          </g>
          <g id="Group_48421" data-name="Group 48421" transform="translate(0 42.359)">
            <path id="Path_18908" data-name="Path 18908" d="M2450.244,1213.787s20.645.293,22.558-4.647c1.733-4.473-4.147-8.813-4.147-8.813l-19.6,5.1Z" transform="translate(-2424.616 -1196.314)" fill="#ffaa8c"/>
            <path id="Path_18909" data-name="Path 18909" d="M2391.422,1196.119l-14.489-4.255s.959-4.789-.879-4.986-1.9,3.866-1.9,3.866-4.738-2.589-5.918,1.169-2.379,4,1.416,5.541a36.645,36.645,0,0,0,4.14.608c5.014.762,18.913,6.282,18.913,6.282A7.887,7.887,0,0,0,2391.422,1196.119Z" transform="translate(-2367.08 -1186.87)" fill="#f9b29b"/>
            <path id="Path_18910" data-name="Path 18910" d="M2504.229,1197.244s-13.349.06-15.937,2.277.1,11.541.1,11.541l12.438,1.248Z" transform="translate(-2451.361 -1194.151)" fill="#fff"/>
          </g>
          <g id="Group_48422" data-name="Group 48422" transform="translate(77.14 47.401)">
            <path id="Path_18911" data-name="Path 18911" d="M2665.738,1257.133c3.622-3.671.987-18.468-3.367-20.354-3.943-1.708-6.5,10.418-6.5,10.418l3.277,10.377S2664.578,1258.309,2665.738,1257.133Z" transform="translate(-2646.901 -1226.824)" fill="#ffaa8c"/>
            <path id="Path_18912" data-name="Path 18912" d="M2625.788,1216.411l8.74,6.733,9.2-6.733s-4.618-11.453-10.5-12.566S2625.788,1216.411,2625.788,1216.411Z" transform="translate(-2625.788 -1203.78)" fill="#fff"/>
          </g>
          <path id="Path_18913" data-name="Path 18913" d="M2563.918,1368.307a9,9,0,0,1-1.667,1.052c-3.41,2.116-16.47-1.15-17.119-1.281l-.022-.006-2.578-9.345-1.289,6.589c-.35,7.531-2.709,6.589-2.709,6.589s-16.22,2.589-15.985-3.766,2.351-30.354,1.476-31.061c0,0,2.521-1.647,18.283-2.589s16.336,1.7,16.336,1.7S2565.565,1365.011,2563.918,1368.307Z" transform="translate(-2476.19 -1247.972)" fill="#28264a"/>
          <path id="Path_18914" data-name="Path 18914" d="M2552.388,1343.581s-11.2,5.3-16.385,5.961-6.355,3.694-6.355,4.379-6.9,21.494-6.9,21.494l1.42-31.813Z" transform="translate(-2476.331 -1254.495)" fill="#231f20" opacity="0.2"/>
          <path id="Path_18915" data-name="Path 18915" d="M2561.944,1196.793v23.816a11.437,11.437,0,0,1-6.21,10.184,11.105,11.105,0,0,1-3.823,1.158c-.4.047-.8.088-1.2.12a51.517,51.517,0,0,1-12.384-.5c-.108-.015-.213-.032-.319-.05a11.112,11.112,0,0,1-4.139-1.557,11.431,11.431,0,0,1-5.341-8.923c-.662-9.656-1.514-24.8-.659-28.91a3.19,3.19,0,0,1,.22-.733,7.975,7.975,0,0,1,2.783-2.633c.53-.352,1.107-.7,1.72-1.053,1.752-.994,3.77-1.959,5.642-2.786.99-.437,1.939-.836,2.786-1.182.018-.006.032-.014.05-.02a11.137,11.137,0,0,1,7.529-.361,34.463,34.463,0,0,1,8.054,3.786A11.408,11.408,0,0,1,2561.944,1196.793Z" transform="translate(-2479.676 -1141.707)" fill="#fff"/>
          <path id="Path_18916" data-name="Path 18916" d="M2533.846,1189.609c-.208,11.1.19,34.409.322,41.461.023,1.314.038,2.064.038,2.064h-12.4c-.647,0,.176-1.176,1.588-7.765s-.472-16.943-.472-16.943-.381-15.577.788-16.8c1.061-1.111,2.077-2.267,3-3.366.384-.454.75-.9,1.1-1.328,1.084-1.343,1.984-2.531,2.59-3.357.554-.754.87-1.208.87-1.208a6.034,6.034,0,0,1,2.3-.144c.615.144,1.017.545.639,1.493a3.279,3.279,0,0,0-.132.706c-.07.628-.125,1.607-.17,2.862C2533.885,1187.982,2533.864,1188.759,2533.846,1189.609Z" transform="translate(-2475.513 -1141.203)" fill="#00c3d9"/>
          <path id="Path_18917" data-name="Path 18917" d="M2624.7,1183.363s4.366,5.515,5.977,5.834c2.918.578,2.928,19.757,2.928,19.757s-1.881,10.354-.47,16.943,2.234,7.765,1.587,7.765h-12.4s.941-47.063,0-49.416S2624.7,1183.363,2624.7,1183.363Z" transform="translate(-2546.099 -1141.731)" fill="#00c3d9"/>
          <path id="Path_18918" data-name="Path 18918" d="M2544.746,1177.591l-1.049,2.519a.009.009,0,0,1,0,.006l-2.475,5.947-.308-.135-1.286-.572-4.752-2.1-3.226-1.428s3.149-.953,5.815-1.93a22.209,22.209,0,0,0,3.17-1.352,2.24,2.24,0,0,0,.351-.246C2542.159,1177.239,2544.392,1176.18,2544.746,1177.591Z" transform="translate(-2482.578 -1137.521)" fill="#1edff5"/>
          <path id="Path_18919" data-name="Path 18919" d="M2602.611,1177.588l3.526,8.471,9.572-4.235s-8.161-2.471-9.337-3.53S2602.964,1176.176,2602.611,1177.588Z" transform="translate(-2532.382 -1137.519)" fill="#1edff5"/>
          <path id="Path_18920" data-name="Path 18920" d="M2580.3,1234.136s-2.11.548-5.019,1.279a51.529,51.529,0,0,1-12.384-.5c-.131-7.052-.53-30.359-.322-41.461l.308.135,2.475-5.947a.009.009,0,0,0,0-.006,29,29,0,0,1-.674,4.4,25.32,25.32,0,0,1-1.605,4.5s.718,18.864.92,22.186a53.166,53.166,0,0,0,1.359,7.917s-1.409-.39-1.14,1.466.858,4.838,6.911,4.765S2580.3,1234.136,2580.3,1234.136Z" transform="translate(-2504.243 -1145.05)" fill="#28264a" opacity="0.089"/>
          <path id="Path_18921" data-name="Path 18921" d="M2548.6,1200.894l4.209,1.865-.059,17.447S2552.663,1203.965,2548.6,1200.894Z" transform="translate(-2494.475 -1154.353)" fill="#00aabe"/>
          <path id="Path_18922" data-name="Path 18922" d="M2623.943,1201.113v19.24s1.227-15.9,2.014-17.139,4.367,1.515,4.367,1.515l-4.271-4.466Z" transform="translate(-2547.353 -1153.91)" fill="#00aabe"/>
          <path id="Path_18923" data-name="Path 18923" d="M2620.394,1279.6c-4.388-.753-16.935,5.517-16.935,5.517s-2.557-5.062-4.061-4.137.357,2.1.357,2.1-6.5-.723-5.2,2.81,2.339,8.961,6.111,7.909,21.738-6.413,21.738-6.413S2626.842,1280.706,2620.394,1279.6Z" transform="translate(-2526.608 -1209.546)" fill="#f9b29b"/>
          <path id="Path_18924" data-name="Path 18924" d="M2377.2,1203.78s4.326,5.981,1.333,6.149a8.878,8.878,0,0,1-4.7-.843Z" transform="translate(-2371.82 -1156.379)" fill="#f9b29b"/>
          <g id="Group_48424" data-name="Group 48424" transform="translate(40.727)">
            <ellipse id="Ellipse_162" data-name="Ellipse 162" cx="6.627" cy="4.291" rx="6.627" ry="4.291" transform="translate(18.43 38.169)" fill="#5c69c7"/>
            <g id="Group_48423" data-name="Group 48423">
              <path id="Path_18925" data-name="Path 18925" d="M2540.994,1130.075s-4.418,4.418-2.719,5.183,2.039-.425,2.039-.425Z" transform="translate(-2527.684 -1104.651)" fill="#d89e9a"/>
              <path id="Path_18926" data-name="Path 18926" d="M2531.212,1077.816s2.561,7.635,6.712,3.094c4.168-4.538,12.235-13.238,6.814-18.031s-3.463-5.671-9.738-10.592-4.125-11.219-13.088-4.667c-8.945,6.562-13.984,8.957-13.61,4.543s-5.421-1.641-4.542,4.79,14.375,13.747,14.375,13.747Z" transform="translate(-2503.669 -1044.808)" fill="#28264a"/>
              <path id="Path_18927" data-name="Path 18927" d="M2559.771,1129.38s4.525,8.7-3.8,9.293c-3.116.222-5.841-1.539-5.937-6.08-10.8,2-8.253-8.959-8.253-8.959s1.152-10.424,8.723-8.723,5.71,2.934,5.482,4.73c-.072.568,1.14,3.119,2.271-.286s3.02.1,2.367,4.066C2559.953,1127.4,2559.771,1129.38,2559.771,1129.38Z" transform="translate(-2530.232 -1093.876)" fill="#f9b29b"/>
            </g>
            <path id="Path_18928" data-name="Path 18928" d="M2570.068,1170.766s5.257-.123,6.446-1.652c0,0-4.164,5.693-5.268,5.608C2571.246,1174.722,2569.993,1174.032,2570.068,1170.766Z" transform="translate(-2550.267 -1132.049)" fill="#d89e9a"/>
          </g>
        </g>
      </g>
    </g>
    <path id="Path_18938" data-name="Path 18938" d="M206.028,0C319.814,0,412.055,5.237,412.055,11.7s-92.242,11.7-206.028,11.7S0,18.156,0,11.7,92.242,0,206.028,0Z" transform="translate(1036.724 2560.34)" opacity="0.07" fill="url(#linear-gradient-7)" style="mix-blend-mode: multiply;isolation: isolate"/>
    <path id="Path_18939" data-name="Path 18939" d="M2880.042,776.576l8.616-20.35-21.932,2.714Z" transform="translate(-1835.304 1560.686)" opacity="0.5" fill="url(#linear-gradient-2)"/>
    <path id="Path_18940" data-name="Path 18940" d="M2880.042,776.576l8.616-20.35-21.932,2.714Z" transform="matrix(0.809, -0.588, 0.588, 0.809, -1335.193, 3529.147)" opacity="0.5" fill="url(#linear-gradient-2)"/>
    <path id="Path_18941" data-name="Path 18941" d="M2880.042,776.576l8.616-20.35-21.932,2.714Z" transform="matrix(0.438, -0.899, 0.899, 0.438, -543.759, 4453.198)" opacity="0.5" fill="url(#linear-gradient-2)"/>
  </g>
</svg>
