<svg xmlns="http://www.w3.org/2000/svg" xmlns:xlink="http://www.w3.org/1999/xlink" width="486.103" height="349.926" viewBox="0 0 486.103 349.926">
  <defs>
    <linearGradient id="linear-gradient" x1="0.316" y1="0.016" x2="0.834" y2="0.754" gradientUnits="objectBoundingBox">
      <stop offset="0" stop-color="#00c3d9"/>
      <stop offset="1" stop-color="#00c3d9"/>
    </linearGradient>
    <clipPath id="clip-path">
      <path id="Path_18932" data-name="Path 18932" d="M3904.508,525.963c47.061-21.7,77.729-53.794,97.751-88.244,37.289-64.162,36.533-136.069,35-160.315a14.191,14.191,0,0,0-8.149-11.961l-121.141-56.6a8.524,8.524,0,0,0-7.2,0L3779.64,265.456a14.157,14.157,0,0,0-8.148,11.947c-2.367,37.1-2.892,186.034,132.748,248.56A.3.3,0,0,0,3904.508,525.963Z" transform="translate(-3770.951 -208.043)" fill="#a4b7fc"/>
    </clipPath>
    <clipPath id="clip-path-2">
      <circle id="Ellipse_171" data-name="Ellipse 171" cx="75" cy="75" r="75" transform="translate(512 3616)" fill="#fff" stroke="#707070" stroke-width="1"/>
    </clipPath>
    <clipPath id="clip-path-3">
      <path id="Path_18932-2" data-name="Path 18932" d="M3941.7,614.5c60.166-27.738,99.375-68.774,124.972-112.818,47.673-82.03,46.706-173.961,44.742-204.959A18.143,18.143,0,0,0,4101,281.427l-154.875-72.364a10.9,10.9,0,0,0-9.2,0l-154.858,72.382a18.1,18.1,0,0,0-10.417,15.274c-3.026,47.434-3.7,237.839,169.714,317.778A.385.385,0,0,0,3941.7,614.5Z" transform="translate(-3770.951 -208.043)" fill="#a4b7fc"/>
    </clipPath>
    <linearGradient id="linear-gradient-3" x1="-12.593" y1="12.857" x2="-11.734" y2="12.857" gradientUnits="objectBoundingBox">
      <stop offset="0" stop-color="#596a87"/>
      <stop offset="0.391" stop-color="#4e6283"/>
      <stop offset="1" stop-color="#36507a"/>
    </linearGradient>
    <linearGradient id="linear-gradient-4" x1="-16.561" y1="13.202" x2="-17.848" y2="14.417" xlink:href="#linear-gradient-3"/>
    <linearGradient id="linear-gradient-5" x1="-21.037" y1="34.843" x2="-20.227" y2="34.843" xlink:href="#linear-gradient-3"/>
    <linearGradient id="linear-gradient-6" x1="-118.484" y1="112.684" x2="-119.829" y2="114.233" xlink:href="#linear-gradient-3"/>
    <linearGradient id="linear-gradient-7" x1="0.5" x2="0.5" y2="1" gradientUnits="objectBoundingBox">
      <stop offset="0" stop-color="#fc8032"/>
      <stop offset="1" stop-color="#ff4500"/>
    </linearGradient>
  </defs>
  <g id="IMG_3" transform="translate(-386.897 -3486.198)">
    <g id="Group_48439" data-name="Group 48439" transform="translate(0 -16.518)">
      <ellipse id="Ellipse_172" data-name="Ellipse 172" cx="200.5" cy="14.5" rx="200.5" ry="14.5" transform="translate(472 3822)" fill="#e7eaf2"/>
      <g id="Group_48438" data-name="Group 48438" transform="translate(679.51 3635.283) rotate(9)">
        <path id="Path_18642" data-name="Path 18642" d="M2408.078,949.842A98.806,98.806,0,0,0,2393.6,980.3a74.816,74.816,0,0,0-2.661,13.456l3.695-2a17.491,17.491,0,0,0,4.306,2c26.841,8.5,75.659-43.167,101.969-60.061,18.376-11.764,13.7-22.126,12.449-28.849-.668-3.482-.4-5.987,4.315-7.248,13.96-3.725-2.121-4.905,14.579-13.083,16.7-8.216,15.857-22.13-1.149-35.659-16.986-13.511-28.276-4.031-34.208,20.208-7.025,28.633-26.129,1.9-35.424,20.782s-11.155,23.538-32.681,39.082A90.663,90.663,0,0,0,2408.078,949.842Z" transform="translate(-2390.94 -842.669)" fill="#343f91"/>
        <path id="Path_18643" data-name="Path 18643" d="M2487.219,1173.074a98.832,98.832,0,0,0-14.478,30.453,74.924,74.924,0,0,0-2.661,13.456l3.694-2a17.551,17.551,0,0,0,4.306,2c.706-2.576.624-6.049-1.215-10.7-5.47-13.908,12.729-.834,12.4-18.138C2489.05,1176.36,2489.334,1178.915,2487.219,1173.074Z" transform="translate(-2449.379 -1086.648)" fill="#231f20" opacity="0.1"/>
        <g id="Group_48333" data-name="Group 48333" transform="translate(16.184 19.926)" opacity="0.1">
          <path id="Path_18644" data-name="Path 18644" d="M2573.484,919.472c-.6,8.974-7.814,15.06-15.224,19.088-4.866,2.645-10.047,4.774-14.575,8.008-5.34,3.815-8.331,9.187-11.466,14.79a47.783,47.783,0,0,1-9.949,12.743c-4.122,3.679-8.711,6.783-12.963,10.3-9.531,7.889-16.8,17.8-25.124,26.846a62.217,62.217,0,0,1-13.51,11.565c-5.244,3.14-13.644,4.041-16.565,9.874a.684.684,0,0,1-1.219-.619c1.906-3.807,5.566-5.4,9.368-6.865a47.933,47.933,0,0,0,15.466-9.413c8.249-7.491,14.664-16.754,22.422-24.724a115.056,115.056,0,0,1,12.387-10.945c4.907-3.775,10.038-7.443,13.929-12.323,3.668-4.6,5.85-10.131,9.181-14.951a32.19,32.19,0,0,1,10.278-9.356c9.789-5.849,25.292-10.323,26.2-23.957.058-.868,1.424-.94,1.365-.063Z" transform="translate(-2452.812 -918.848)" fill="#fff"/>
        </g>
        <g id="Group_48335" data-name="Group 48335" transform="translate(34.739 92.768)">
          <path id="Path_18645" data-name="Path 18645" d="M2523.747,1256.259s7.613,11.686,23.376.347,5.109,15.764,26.781,9.819,4.783-.643,36.953-18.537,43.863,5.641,53.489-19.15-8.742-33.295-36.8-30.878-24.628-2.981-42.287.941,1.815,19.286-20.154,19.667-34.934,23.341-37.244,28.544S2523.747,1256.259,2523.747,1256.259Z" transform="translate(-2523.747 -1197.321)" fill="#3b49b5"/>
          <g id="Group_48334" data-name="Group 48334" transform="translate(13.215 20.219)" opacity="0.1">
            <path id="Path_18646" data-name="Path 18646" d="M2689.69,1278.257c-10.024-1.335-20.241-2.609-30.34-1.328a44.816,44.816,0,0,0-14.361,4.152c-5.207,2.589-9.462,6.591-14.343,9.688-7.741,4.91-16.7,5.977-25.49,7.8-11.362,2.356-21.354,7.506-29.287,16.063-.772.833-2.151-.286-1.372-1.125a53.593,53.593,0,0,1,25.522-15.552c11.138-2.973,22.314-3.425,32.047-10.293,8.484-5.986,15.9-10.949,26.423-12.411,10.45-1.452,21.084-.13,31.464,1.252a.888.888,0,0,1-.264,1.755Z" transform="translate(-2574.267 -1274.618)" fill="#fff"/>
          </g>
        </g>
        <path id="Path_18647" data-name="Path 18647" d="M2442.01,1090.265a74.82,74.82,0,0,0-2.661,13.456l3.694-2c25.6,16.4,78.484-40.213,106.276-58.062,18.375-11.764,13.7-22.127,12.449-28.85-31.389-7.28-40.138,17.315-52.719,33.294-13.256,16.837-15.556-5.428-25.474,13.445-9.881,18.87-21.189-6.139-28.1,14.44C2452.921,1083.652,2447.691,1087.779,2442.01,1090.265Z" transform="translate(-2426.686 -968.812)" fill="#231f20" opacity="0.1"/>
        <path id="Path_18648" data-name="Path 18648" d="M2455.391,1108.612s1.075-8.454,19.838-2.362,27.273,33.871,39.173,8.519,15.384-7.729,40.33-28.389,7.337-34.524,28.928-36.746,39.832-23.821,4.137-35.183-44.694,15.034-57.953,31.876-15.564-5.432-25.458,13.438-21.2-6.15-28.114,14.447-32.979,15.577-35.968,22.523Z" transform="translate(-2427.391 -967.484)" fill="#38439f"/>
        <g id="Group_48336" data-name="Group 48336" transform="translate(20.988 63.238)" opacity="0.1">
          <path id="Path_18649" data-name="Path 18649" d="M2613.014,1085.8c-5.989-.058-12.349-.108-17.849,2.611-5.793,2.863-9.654,8.347-12.962,13.7-5.29,8.555-10.382,18.609-20.847,21.5-2.7.747-5.554,1.049-8.147,2.162a24.346,24.346,0,0,0-7.884,6.107c-3.35,3.568-6.46,7.547-10.887,9.847-9.849,5.116-20.445.278-30.726.4-12.231.15-22.274,6.944-31.463,14.336-.685.551-1.5-.55-.81-1.1,7.5-6.034,15.568-11.843,25.175-13.839a43.478,43.478,0,0,1,15.936.074c5.946.953,12.185,1.971,18.09.2,6.269-1.884,10.02-7.082,14.379-11.571a23.532,23.532,0,0,1,12.163-7.046c6.964-1.617,11.905-4.35,16.345-10.07,3.6-4.643,6.22-9.929,9.492-14.793,3.231-4.8,7.211-9.3,12.636-11.631,5.51-2.362,11.667-2.3,17.549-2.239.878.009.68,1.362-.188,1.354Z" transform="translate(-2471.178 -1084.428)" fill="#fff"/>
        </g>
      </g>
      <g id="Group_48436" data-name="Group 48436">
        <g id="Group_48432" data-name="Group 48432" transform="translate(527.968 3507.782)">
          <path id="Path_18929" data-name="Path 18929" d="M3908.912,536.445c140.1-64.588,139.553-218.4,137.124-256.755a14.658,14.658,0,0,0-8.417-12.355l-125.135-58.468a8.8,8.8,0,0,0-7.436,0l-125.121,58.483a14.625,14.625,0,0,0-8.417,12.341c-2.446,38.325-2.986,192.167,137.124,256.755A.311.311,0,0,0,3908.912,536.445Z" transform="translate(-3770.951 -208.043)" stroke="#fff" stroke-width="10" fill="url(#linear-gradient)"/>
          <g id="Group_48430" data-name="Group 48430" transform="translate(4.399 5.241)" clip-path="url(#clip-path)">
            <path id="Path_18930" data-name="Path 18930" d="M4032.924,360.982s-30.412,204.606-232.613,160.661L3845.519,655.2l148.774,1.046,121.649-166.042L4073.2,371.453Z" transform="translate(-3768.93 -294.53)" fill="#2e3192" opacity="0.11"/>
          </g>
        </g>
        <path id="Path_18954" data-name="Path 18954" d="M7102.277,3464.067l34.625,44.412,79.437-80.206" transform="translate(-6484.521 187.624)" fill="none" stroke="#fff" stroke-width="25"/>
      </g>
      <g id="Mask_Group_27" data-name="Mask Group 27" transform="translate(-17 2)" clip-path="url(#clip-path-2)">
        <g id="Group_48437" data-name="Group 48437" transform="translate(-10.629 -45.73)">
          <g id="Group_48432-2" data-name="Group 48432" transform="translate(527.968 3507.782)">
            <path id="Path_18929-2" data-name="Path 18929" d="M3947.33,627.9c179.108-82.574,178.416-279.219,175.309-328.254a18.739,18.739,0,0,0-10.761-15.8L3951.9,209.1a11.256,11.256,0,0,0-9.507,0l-159.963,74.769a18.7,18.7,0,0,0-10.761,15.778c-3.127,49-3.818,245.681,175.31,328.254A.4.4,0,0,0,3947.33,627.9Z" transform="translate(-3770.951 -208.043)" stroke="#fff" stroke-width="14" fill="url(#linear-gradient)"/>
            <g id="Group_48430-2" data-name="Group 48430" transform="translate(5.624 6.701)" clip-path="url(#clip-path-3)">
              <path id="Path_18930-2" data-name="Path 18930" d="M4097.7,360.982s-38.881,261.583-297.39,205.4l57.8,170.752,190.2,1.337,155.525-212.281-54.644-151.824Z" transform="translate(-3760.191 -276.025)" fill="#2e3192" opacity="0.11"/>
            </g>
          </g>
          <path id="Path_18954-2" data-name="Path 18954" d="M7102.277,3474.035l44.268,56.779L7248.1,3428.273" transform="translate(-6471.517 218.731)" fill="none" stroke="#fff" stroke-width="30"/>
        </g>
      </g>
      <g id="Group_48435" data-name="Group 48435" transform="translate(-1643.169 3994.547) rotate(-25)">
        <g id="Group_48434" data-name="Group 48434" transform="translate(1922.247 584.235)">
          <g id="Group_48433" data-name="Group 48433">
            <path id="Path_18944" data-name="Path 18944" d="M2194.508,640.22a78.854,78.854,0,0,0-152.637,39.064l-46.389,14.076,4.018,13.273,25.042-7.6,21.345-6.479c.047.114.094.228.127.334a78.863,78.863,0,0,0,148.493-52.67Zm-54.49,92.047a72.265,72.265,0,0,1-87.786-41.643c-.863-2.117-1.653-4.3-2.329-6.536s-1.239-4.479-1.695-6.721a72.264,72.264,0,1,1,91.81,54.9Z" transform="translate(-1902.715 -584.235)" fill="url(#linear-gradient-3)"/>
            <path id="Path_18945" data-name="Path 18945" d="M2177.407,640.749a72.264,72.264,0,0,0-140,35.229c.456,2.242,1.018,4.488,1.695,6.721s1.467,4.42,2.329,6.536a72.263,72.263,0,0,0,135.974-48.487Zm-49.533,85.684a67.632,67.632,0,0,1-82.141-38.976c-.808-1.982-1.553-4.019-2.176-6.118-.643-2.091-1.16-4.187-1.585-6.287a67.615,67.615,0,1,1,85.9,51.381Z" transform="translate(-1891.916 -582.846)" fill="url(#linear-gradient-4)"/>
            <path id="Path_18946" data-name="Path 18946" d="M2154.042,709.6a66.063,66.063,0,0,1-10.142,8c-.954.621-1.935,1.226-2.931,1.79a67.585,67.585,0,0,1-96.216-32.9c-.808-1.982-1.553-4.019-2.176-6.118-.644-2.091-1.16-4.187-1.585-6.287a67.576,67.576,0,0,1,46.651-78.045c1.323-.408,2.653-.759,3.959-1.068,1.122-.263,2.229-.5,3.343-.713a67.633,67.633,0,0,1,59.1,115.347Z" transform="translate(-1890.936 -581.87)" fill="#fafafa" opacity="0.25"/>
            <path id="Path_18947" data-name="Path 18947" d="M2031.092,691.831l-88.416,26.832a15.837,15.837,0,1,1-9.183-30.313l88.409-26.818a15.831,15.831,0,0,1,9.19,30.3Z" transform="translate(-1922.247 -563.804)" fill="url(#linear-gradient-5)"/>
            <path id="Path_18948" data-name="Path 18948" d="M2022.316,686.777,1933.908,713.6a12.629,12.629,0,1,1-.416-25.245l88.409-26.818a12.629,12.629,0,1,1,.414,25.245Z" transform="translate(-1922.247 -563.804)" fill="#36477e" opacity="0.5"/>
          </g>
          <path id="Path_18949" data-name="Path 18949" d="M2039.769,672.068l-21.345,6.479a49.373,49.373,0,0,0,6.869-5.994c5.45-5.475,3.354-9.781,10.781-11.5A76.827,76.827,0,0,0,2039.769,672.068Z" transform="translate(-1896.597 -563.747)" fill="url(#linear-gradient-6)"/>
          <path id="Path_18950" data-name="Path 18950" d="M2135.846,718.991a68.088,68.088,0,0,1-29.577,8.876l-47.412-119.472a67.527,67.527,0,0,1,23.665-12.754c1.322-.408,2.652-.759,3.958-1.068Z" transform="translate(-1885.814 -581.478)" fill="#fafafa" opacity="0.1"/>
          <path id="Path_18951" data-name="Path 18951" d="M2142.4,709.6a66.028,66.028,0,0,1-10.142,8L2083.3,594.25a67.525,67.525,0,0,1,12.86-1.145Z" transform="translate(-1879.294 -581.87)" fill="#fafafa" opacity="0.1"/>
          <path id="Path_18952" data-name="Path 18952" d="M2127.52,619.494s25.928,27.408,14.933,45.783-7.9-12.139-8.9-18.078C2131.2,633.156,2119.926,615.8,2127.52,619.494Z" transform="translate(-1868.192 -574.966)" fill="#fafafa" opacity="0.1"/>
          <path id="Path_18953" data-name="Path 18953" d="M2056.072,680.951s-18.262-20.851-9.673-34.032,5.46,9.135,6.024,13.523C2053.757,670.818,2061.542,683.88,2056.072,680.951Z" transform="translate(-1889.749 -568.615)" fill="#fafafa" opacity="0.1"/>
        </g>
      </g>
      <path id="Path_18955" data-name="Path 18955" d="M2880.042,776.576l8.616-20.35-21.932,2.714Z" transform="matrix(0.809, -0.588, 0.588, 0.809, -1974.975, 4589.147)" opacity="0.5" fill="url(#linear-gradient-7)"/>
      <path id="Path_18956" data-name="Path 18956" d="M2880.042,776.576l8.616-20.35-21.932,2.714Z" transform="translate(-1997.416 2012.053) rotate(20)" opacity="0.5" fill="url(#linear-gradient-7)"/>
    </g>
  </g>
</svg>
