<?xml version="1.0" encoding="UTF-8"?><svg id="a" xmlns="http://www.w3.org/2000/svg" width="640" height="140" viewBox="0 0 640 140"><g id="b"><g id="c"><path d="M288.33,70.37c0,24.43-14.81,35.73-33.35,35.73h-11.3v-14.6h10.44c11.15,0,18.6-6.11,18.6-21.16s-6.99-22.51-18.93-22.51-19.67,7.02-19.67,22.29v60.83h-15.45V35.22h15.45v8.25h2.2c4.87-6.49,12.59-10.21,20.7-9.99,17.04,0,31.3,12.21,31.3,36.89Zm-101.48-6.35l-10.29-1.01c-8.09-.73-12.21-3.05-12.21-7.63,0-5.59,5.44-8.83,13.22-8.83s13.22,3.82,13.68,9.16h14.84c-.7-13.68-11.42-22.23-28.49-22.23s-28.83,9.16-28.83,22.48c0,11.18,7.02,18.32,23.06,20l10.44,1.01c6.32,.58,10.6,1.92,10.6,7.94,0,5.44-4,9.41-14.41,9.41-9.62,0-14.35-4.37-16.03-10.2h-16.03c1.59,13.34,12.83,23.73,32.06,23.73,18.05,0,29.83-9.56,29.83-23.67,.03-12.49-8.21-18.81-21.44-20.15Zm161.27,20.06c-2.97,6.3-9.47,10.17-16.43,9.77-11.33,0-19.7-7.33-19.7-23.21s7.79-23.54,19.85-23.54c10.75,0,16.92,6.47,17.5,16.18h-27.79v11.21h42.94v-7.42c0-20.43-13.53-33.59-32.8-33.59-17.93,0-35.15,12.21-35.15,37.22s17.22,37.19,35.15,37.19c14.83,.46,27.99-9.42,31.7-23.79l-15.27-.03ZM104.74,33.48c-16.92,0-29.56,8.83-31.06,22.35h16.64c1.19-5.01,5.74-8.67,14.41-8.67,11.18,0,14.84,5.89,14.84,13.1v24.22c-5.1,6.46-12.81,10.33-21.04,10.57-7.66,0-13.04-3.54-13.04-10.29s4.12-10.29,12.03-10.29h12.21v-11.15h-12.49c-17.65,0-27.48,8.83-27.48,22.35,0,12.64,9.56,22.2,25.28,22.2,8.1-.14,15.93-2.88,22.35-7.82h2.2v6.11h15.42V58.76c0-17.5-11.91-25.28-30.29-25.28ZM0,106.06H15.42V9.05H0V106.06ZM64.83,35.22h-18.81l-22.51,29.56v9.16l23.06,32.06h19.15l-27.06-36.64,26.17-34.14Zm558.13,0l-12.64,28.06c-2.86,5.7-5.17,11.66-6.9,17.8h-2.2c-1.81-6.08-4.16-11.99-7.02-17.65l-12.67-28.22h-17.04l29.71,63.67-14.72,32.06h16.46l44.07-95.73h-17.04Zm-61.93,0h-18.81l-22.51,29.56v9.16l23.06,32.06h19.12l-27.06-36.64,26.2-34.14Zm-96.86,28.8l-10.29-1.01c-8.06-.73-12.21-3.05-12.21-7.63,0-5.59,5.44-8.83,13.22-8.83s13.25,3.82,13.68,9.16h14.87c-.61-13.68-11.33-22.23-28.43-22.23s-28.83,9.16-28.83,22.48c0,11.18,7.02,18.32,23.06,20l10.44,1.01c6.32,.58,10.6,1.92,10.6,7.94,0,5.44-4.03,9.41-14.41,9.41-9.62,0-14.35-4.37-16.03-10.2h-16.03c1.59,13.34,12.83,23.73,32.06,23.73,18.08,0,29.83-9.56,29.83-23.67,.12-12.49-8.12-18.81-21.53-20.15Zm31.85,42.08h15.42V9.05h-15.27l-.15,97.05Zm-101.66-62.63h-2.2v-8.25h-15.45V106.06h15.45v-37.07c0-12.64,5.83-20.03,17.35-20.03h9.77v-15.48h-5.65c-10.54,0-15.24,4-19.27,9.99Z" style="fill:#006d5c;"/></g></g></svg>