<svg id="Layer_1" data-name="Layer 1" xmlns="http://www.w3.org/2000/svg" xmlns:xlink="http://www.w3.org/1999/xlink" viewBox="0 0 407.71 277.9"><defs><style>.cls-1{fill:#fff;}.cls-2{fill:none;}.cls-3{fill:#2ebad2;}.cls-4{isolation:isolate;opacity:0.08;}.cls-5{opacity:0.46;}.cls-6{fill:url(#linear-gradient);}</style><linearGradient id="linear-gradient" x1="1241.53" y1="2.13" x2="1239.91" y2="1.48" gradientTransform="matrix(37.12, 0, 0, -57.57, -45816.76, 169.52)" gradientUnits="userSpaceOnUse"><stop offset="0" stop-color="#fff"/><stop offset="0.49" stop-color="#fff" stop-opacity="0"/></linearGradient></defs><g id="Group_48479" data-name="Group 48479"><g id="Group_48441" data-name="Group 48441"><g id="Group_48383" data-name="Group 48383"><path id="Path_18786" data-name="Path 18786" class="cls-1" d="M15.44,258.59a19.65,19.65,0,0,1-6.43-3l2.84-6.3A19.38,19.38,0,0,0,17.37,252a21.11,21.11,0,0,0,6.4,1A10.22,10.22,0,0,0,29,252a3.21,3.21,0,0,0,1.71-2.81,2.72,2.72,0,0,0-1-2.15,7.61,7.61,0,0,0-2.58-1.36q-1.57-.53-4.26-1.14a58.74,58.74,0,0,1-6.76-2,11,11,0,0,1-4.52-3.14,8.53,8.53,0,0,1-1.88-5.78,10,10,0,0,1,1.71-5.7,11.49,11.49,0,0,1,5.13-4.06A21.13,21.13,0,0,1,25,222.38a27.49,27.49,0,0,1,6.76.82,19.86,19.86,0,0,1,5.78,2.37l-2.58,6.35a20.2,20.2,0,0,0-10-2.83,9.49,9.49,0,0,0-5.19,1.14,3.49,3.49,0,0,0-1.68,3A3,3,0,0,0,20,236a30.28,30.28,0,0,0,5.91,1.78,58.69,58.69,0,0,1,6.76,2,11.21,11.21,0,0,1,4.52,3.1,8.31,8.31,0,0,1,1.88,5.72,9.94,9.94,0,0,1-1.73,5.66,11.57,11.57,0,0,1-5.19,4,21.38,21.38,0,0,1-8.41,1.5A29.74,29.74,0,0,1,15.44,258.59Z"/><path id="Path_18787" data-name="Path 18787" class="cls-1" d="M70.48,231.36v27.77H62.79v-3.2a10.63,10.63,0,0,1-8.68,3.61A14.39,14.39,0,0,1,47,257.79a12.57,12.57,0,0,1-5-5,16.61,16.61,0,0,1,0-15.07,12.48,12.48,0,0,1,5-5A14.39,14.39,0,0,1,54.11,231a10.57,10.57,0,0,1,8.32,3.36v-2.95Zm-9.91,19.49a8.78,8.78,0,0,0,0-11.2,7.22,7.22,0,0,0-10.17,0,8.81,8.81,0,0,0,0,11.2A7.22,7.22,0,0,0,60.57,250.85Z"/><path id="Path_18788" data-name="Path 18788" class="cls-1" d="M83.85,232H91v6.2H84.06v20.95H76V230.74a10.12,10.12,0,0,1,2.82-7.53,10.77,10.77,0,0,1,7.91-2.79,14.6,14.6,0,0,1,3.43.38,8.25,8.25,0,0,1,2.71,1.11l-2.1,5.85a5.51,5.51,0,0,0-3.26-1q-3.66,0-3.66,4Z"/><path id="Path_18789" data-name="Path 18789" class="cls-1" d="M110.56,252.45a9.27,9.27,0,0,0,3.12-2l4.29,4.64a14.37,14.37,0,0,1-11.46,4.49,18.08,18.08,0,0,1-8.31-1.83,13.41,13.41,0,0,1-5.58-5.08,14.08,14.08,0,0,1-2-7.38,14.3,14.3,0,0,1,1.94-7.36,13.61,13.61,0,0,1,5.32-5.11,15.75,15.75,0,0,1,7.61-1.83,15.57,15.57,0,0,1,7.22,1.68,12.9,12.9,0,0,1,5.19,4.85,14.26,14.26,0,0,1,1.94,7.51l-20.55,4a6.17,6.17,0,0,0,2.76,3.09,9.51,9.51,0,0,0,4.62,1A10.53,10.53,0,0,0,110.56,252.45Zm-10-13.45a7.78,7.78,0,0,0-2,5.42l13.52-2.63a6,6,0,0,0-2.32-3.46,7,7,0,0,0-4.23-1.29,6.62,6.62,0,0,0-5,2Z"/><path id="Path_18790" data-name="Path 18790" class="cls-1" d="M140.11,257.79a8.28,8.28,0,0,1-2.92,1.31,14,14,0,0,1-3.59.44,10.78,10.78,0,0,1-7.69-2.53,9.72,9.72,0,0,1-2.68-7.43V225.22h8V232h6.86v6.2h-6.87v11.3a3.87,3.87,0,0,0,.88,2.71,3.27,3.27,0,0,0,2.53.95,5.5,5.5,0,0,0,3.3-1Z"/><path id="Path_18791" data-name="Path 18791" class="cls-1" d="M170.71,231.36v23.13q0,7.63-3.87,11.35a15.65,15.65,0,0,1-11.25,3.72,27.62,27.62,0,0,1-7.41-1,16.88,16.88,0,0,1-5.86-2.84l3.2-5.78a13,13,0,0,0,4.28,2.27,16.46,16.46,0,0,0,5.11.82,8,8,0,0,0,5.88-1.86,7.68,7.68,0,0,0,1.86-5.67v-.93A10.41,10.41,0,0,1,159,257a12.38,12.38,0,0,1-4.54.83,11.88,11.88,0,0,1-8.67-3.12,12.56,12.56,0,0,1-3.21-9.37V231.36h8.06v12.75q0,6.76,5.62,6.76A6,6,0,0,0,160.9,249a8,8,0,0,0,1.75-5.6v-12Z"/><path id="Path_18792" data-name="Path 18792" class="cls-1" d="M178.45,223h14.71a21.55,21.55,0,0,1,10.12,2.3,16.73,16.73,0,0,1,6.81,6.4,19.26,19.26,0,0,1,0,18.73,16.73,16.73,0,0,1-6.81,6.4,21.55,21.55,0,0,1-10.12,2.3H178.45ZM193,255.83a17.64,17.64,0,0,0,8.31-1.88,13.77,13.77,0,0,0,5.51-5.22,15.93,15.93,0,0,0,0-15.33,13.68,13.68,0,0,0-5.51-5.21,17.52,17.52,0,0,0-8.31-1.88H182.27v29.52Z"/><path id="Path_18793" data-name="Path 18793" class="cls-1" d="M234.68,255.23a9.42,9.42,0,0,0,3.64-2.66l2.07,2.38a11.7,11.7,0,0,1-4.5,3.3,16.27,16.27,0,0,1-13.36-.64,12.83,12.83,0,0,1-5.06-4.93,14.08,14.08,0,0,1-1.81-7.12,14.63,14.63,0,0,1,1.73-7.13,12.58,12.58,0,0,1,4.78-4.9,13.59,13.59,0,0,1,6.91-1.75,12.85,12.85,0,0,1,6.53,1.65,12.42,12.42,0,0,1,4.65,4.59,13.84,13.84,0,0,1,1.83,6.71l-22.3,4.34a9.6,9.6,0,0,0,3.75,5.18,11,11,0,0,0,6.47,1.89A11.89,11.89,0,0,0,234.68,255.23Zm-10.68-19a9.18,9.18,0,0,0-3.51,3.67,11.21,11.21,0,0,0-1.27,5.39,8.71,8.71,0,0,0,.06,1.14l19.15-3.72a9.51,9.51,0,0,0-3.15-5.6,9.17,9.17,0,0,0-6.2-2.19,9.85,9.85,0,0,0-5.08,1.31Z"/><path id="Path_18794" data-name="Path 18794" class="cls-1" d="M261,257.48a6.81,6.81,0,0,1-2.53,1.42,9.86,9.86,0,0,1-3.14.49,7.19,7.19,0,0,1-8-6.35,6.7,6.7,0,0,1,0-1.55V226.05h3.66V232h8.21v3.1h-8.21v16.21a5.17,5.17,0,0,0,1.19,3.69,4.52,4.52,0,0,0,3.46,1.26,5.73,5.73,0,0,0,4-1.39Z"/><path id="Path_18795" data-name="Path 18795" class="cls-1" d="M281.08,255.23a9.42,9.42,0,0,0,3.64-2.66l2.07,2.38a11.74,11.74,0,0,1-4.49,3.3,16.29,16.29,0,0,1-13.37-.64,12.83,12.83,0,0,1-5.06-4.93,14.07,14.07,0,0,1-1.8-7.12,14.52,14.52,0,0,1,1.73-7.13,12.48,12.48,0,0,1,4.77-4.9,13.63,13.63,0,0,1,6.92-1.75,12.9,12.9,0,0,1,6.53,1.65,12.39,12.39,0,0,1,4.64,4.59,13.63,13.63,0,0,1,1.83,6.71l-22.29,4.34a9.58,9.58,0,0,0,3.74,5.18,11,11,0,0,0,6.47,1.89A11.85,11.85,0,0,0,281.08,255.23Zm-10.68-19a9.18,9.18,0,0,0-3.51,3.67,11.21,11.21,0,0,0-1.27,5.39,8.71,8.71,0,0,0,.06,1.14l19.14-3.72a9.44,9.44,0,0,0-3.14-5.6,9.19,9.19,0,0,0-6.2-2.19A9.83,9.83,0,0,0,270.4,236.24Z"/><path id="Path_18796" data-name="Path 18796" class="cls-1" d="M298.11,257.63a12.67,12.67,0,0,1-5-4.92,15,15,0,0,1,0-14.27,12.71,12.71,0,0,1,5-4.91,14.69,14.69,0,0,1,7.2-1.75,13.89,13.89,0,0,1,6.27,1.37,10.37,10.37,0,0,1,4.36,4L313.21,239a8.57,8.57,0,0,0-3.41-3,10.1,10.1,0,0,0-4.49-1,10.62,10.62,0,0,0-5.29,1.31,9.24,9.24,0,0,0-3.66,3.75,12.26,12.26,0,0,0,0,11.07,9.27,9.27,0,0,0,3.66,3.71,10.63,10.63,0,0,0,5.29,1.32,10.38,10.38,0,0,0,4.49-1,8.38,8.38,0,0,0,3.41-3l2.73,1.86a10.32,10.32,0,0,1-4.39,4,13.73,13.73,0,0,1-6.24,1.37A14.57,14.57,0,0,1,298.11,257.63Z"/><path id="Path_18797" data-name="Path 18797" class="cls-1" d="M334.17,257.48a7,7,0,0,1-2.53,1.42,9.92,9.92,0,0,1-3.15.49,7.19,7.19,0,0,1-7.95-6.35,7.3,7.3,0,0,1,0-1.55V226.05h3.66V232h8.21v3.1H324.2v16.21a5.22,5.22,0,0,0,1.19,3.69,4.52,4.52,0,0,0,3.46,1.26,5.77,5.77,0,0,0,4-1.39Z"/><path id="Path_18798" data-name="Path 18798" class="cls-1" d="M338.86,225.28a2.54,2.54,0,0,1-.77-1.86,2.42,2.42,0,0,1,.77-1.8,2.61,2.61,0,0,1,1.9-.78,2.68,2.68,0,0,1,1.9.75,2.42,2.42,0,0,1,.78,1.78,2.7,2.7,0,0,1-4.6,1.9Zm.05,6.71h3.66v27.14h-3.66Z"/><path id="Path_18799" data-name="Path 18799" class="cls-1" d="M373.7,232l-12.08,27.15h-3.76l-12-27.15h3.82l10.16,23.13L370.08,232Z"/><path id="Path_18800" data-name="Path 18800" class="cls-1" d="M392.46,255.23a9.6,9.6,0,0,0,3.64-2.66l2.06,2.38a11.74,11.74,0,0,1-4.49,3.3,16.29,16.29,0,0,1-13.37-.64,12.87,12.87,0,0,1-5.05-4.93,14,14,0,0,1-1.81-7.12,14.52,14.52,0,0,1,1.73-7.13,12.55,12.55,0,0,1,4.77-4.9,13.63,13.63,0,0,1,6.92-1.75,12.9,12.9,0,0,1,6.53,1.65A12.39,12.39,0,0,1,398,238a13.74,13.74,0,0,1,1.84,6.71l-22.3,4.34a9.63,9.63,0,0,0,3.74,5.18,11.05,11.05,0,0,0,6.48,1.89A11.89,11.89,0,0,0,392.46,255.23Zm-10.69-19a9.22,9.22,0,0,0-3.5,3.67A11.09,11.09,0,0,0,377,245.3a8.7,8.7,0,0,0,.05,1.14l19.15-3.72a9.44,9.44,0,0,0-3.14-5.6,9.19,9.19,0,0,0-6.2-2.19,9.83,9.83,0,0,0-5.08,1.31Z"/></g><g id="Group_48440" data-name="Group 48440"><g id="Group_48384" data-name="Group 48384"><path id="Path_18801" data-name="Path 18801" class="cls-2" d="M231.25,97.12a32.86,32.86,0,0,1-32.81,32.82v15h0a47.79,47.79,0,0,0,0-95.57h0v15A32.85,32.85,0,0,1,231.25,97.12Z"/><path id="Path_18802" data-name="Path 18802" class="cls-3" d="M231.25,97.12A32.85,32.85,0,0,0,198.44,64.3v65.64A32.86,32.86,0,0,0,231.25,97.12Z"/><path id="Path_18803" data-name="Path 18803" class="cls-3" d="M276.4,47.6a8.32,8.32,0,0,0-4.78-7L200.54,7.36a5,5,0,0,0-2.1-.47V49.33h0a47.79,47.79,0,0,1,0,95.57h0v48.52s.05,0,.08,0C278.1,156.74,277.79,69.37,276.4,47.6Z"/><path id="Path_18804" data-name="Path 18804" class="cls-3" d="M198.43,64.3a32.82,32.82,0,1,0,0,65.64h0Z"/><path id="Path_18805" data-name="Path 18805" class="cls-4" d="M198.43,64.3a32.82,32.82,0,1,0,0,65.64h0Z"/><path id="Path_18806" data-name="Path 18806" class="cls-3" d="M196.32,7.36,125.25,40.57a8.32,8.32,0,0,0-4.78,7c-.88,13.71-1.31,53.43,18.34,90.12l19.31-15a47.76,47.76,0,0,1,40.31-73.39V6.89A5,5,0,0,0,196.32,7.36Z"/><path id="Path_18807" data-name="Path 18807" class="cls-4" d="M196.32,7.36,125.25,40.57a8.32,8.32,0,0,0-4.78,7c-.88,13.71-1.31,53.43,18.34,90.12l19.31-15a47.76,47.76,0,0,1,40.31-73.39V6.89A5,5,0,0,0,196.32,7.36Z"/><path id="Path_18808" data-name="Path 18808" class="cls-3" d="M168.05,134l-21.38,16.6a125.65,125.65,0,0,0,51.69,42.85s0,0,.08,0V144.9A47.54,47.54,0,0,1,168.05,134Z"/><path id="Path_18809" data-name="Path 18809" class="cls-4" d="M168.05,134l-21.38,16.6a125.65,125.65,0,0,0,51.69,42.85s0,0,.08,0V144.9A47.54,47.54,0,0,1,168.05,134Z"/></g><g id="Group_48385" data-name="Group 48385" class="cls-5"><path id="Path_18810" data-name="Path 18810" class="cls-6" d="M206.12,19.36c4,9.3,9.53,19.31,13.58,29.61A16.56,16.56,0,0,1,227,54.85c7.39,10.3,13.91,20.73,16.74,33.23a15.87,15.87,0,0,1,.34,2.28,179.29,179.29,0,0,1,18.82,30.92A183.51,183.51,0,0,0,273,49.45a8.3,8.3,0,0,0-4.78-7L202.81,11.86C203.92,14.35,205,16.86,206.12,19.36Z"/></g></g></g></g></svg>