<svg id="Layer_1" data-name="Layer 1" xmlns="http://www.w3.org/2000/svg" xmlns:xlink="http://www.w3.org/1999/xlink" viewBox="0 0 495.51 97.17"><defs><style>.cls-1{fill:#fff;}.cls-2{fill:none;}.cls-3{fill:#2ebad2;}.cls-4{isolation:isolate;opacity:0.08;}.cls-5{opacity:0.46;}.cls-6{fill:url(#linear-gradient);}</style><linearGradient id="linear-gradient" x1="1237.98" y1="616.42" x2="1236.36" y2="615.77" gradientTransform="matrix(16.25, 0, 0, -25.21, -20042.83, 15562.73)" gradientUnits="userSpaceOnUse"><stop offset="0" stop-color="#fff"/><stop offset="0.49" stop-color="#fff" stop-opacity="0"/></linearGradient></defs><g id="Group_48386" data-name="Group 48386"><g id="Group_48383" data-name="Group 48383"><path id="Path_18786" data-name="Path 18786" class="cls-1" d="M100.56,69.1a19.23,19.23,0,0,1-6.44-3L97,59.76a19.23,19.23,0,0,0,5.54,2.74,20.83,20.83,0,0,0,6.41,1,10.38,10.38,0,0,0,5.28-1.06,3.19,3.19,0,0,0,1.71-2.82,2.67,2.67,0,0,0-1-2.15,7.64,7.64,0,0,0-2.58-1.37c-1.06-.34-2.48-.73-4.27-1.14a59.06,59.06,0,0,1-6.78-2,11.13,11.13,0,0,1-4.53-3.15,8.53,8.53,0,0,1-1.88-5.8,10.1,10.1,0,0,1,1.71-5.71,11.39,11.39,0,0,1,5.14-4.06,21.06,21.06,0,0,1,8.41-1.5,27.71,27.71,0,0,1,6.78.82A20.22,20.22,0,0,1,122.68,36l-2.59,6.36a20.17,20.17,0,0,0-10-2.83,9.42,9.42,0,0,0-5.2,1.14,3.46,3.46,0,0,0-1.68,3,2.94,2.94,0,0,0,1.94,2.77A30.58,30.58,0,0,0,111,48.23a59.06,59.06,0,0,1,6.78,2,11.21,11.21,0,0,1,4.52,3.1A8.32,8.32,0,0,1,124.22,59a9.87,9.87,0,0,1-1.73,5.67,11.75,11.75,0,0,1-5.2,4.06,21.16,21.16,0,0,1-8.43,1.5A29.46,29.46,0,0,1,100.56,69.1Z"/><path id="Path_18787" data-name="Path 18787" class="cls-1" d="M155.72,41.81V69.65H148V66.44a10.64,10.64,0,0,1-8.69,3.62,14.47,14.47,0,0,1-7.11-1.76,12.56,12.56,0,0,1-5-5,16.61,16.61,0,0,1,0-15.1,12.56,12.56,0,0,1,5-5,14.47,14.47,0,0,1,7.11-1.76,10.59,10.59,0,0,1,8.33,3.36V41.81Zm-9.93,19.53a8.81,8.81,0,0,0,0-11.22,7.23,7.23,0,0,0-10.19,0,8.81,8.81,0,0,0,0,11.22A7.23,7.23,0,0,0,145.79,61.34Z"/><path id="Path_18788" data-name="Path 18788" class="cls-1" d="M169.12,42.44h7.14v6.2h-6.93v21h-8.07V41.19a10.16,10.16,0,0,1,2.82-7.55A10.77,10.77,0,0,1,172,30.85a14.75,14.75,0,0,1,3.44.38,8.3,8.3,0,0,1,2.72,1.11l-2.12,5.86a5.47,5.47,0,0,0-3.26-1c-2.44,0-3.67,1.34-3.67,4Z"/><path id="Path_18789" data-name="Path 18789" class="cls-1" d="M195.89,63A9.34,9.34,0,0,0,199,60.9l4.3,4.66a14.47,14.47,0,0,1-11.49,4.5,18.08,18.08,0,0,1-8.33-1.84,13.44,13.44,0,0,1-5.58-5.09,14.07,14.07,0,0,1-2-7.4,14.31,14.31,0,0,1,1.94-7.37,13.59,13.59,0,0,1,5.33-5.12,16.59,16.59,0,0,1,14.87-.16,12.91,12.91,0,0,1,5.2,4.87,14.09,14.09,0,0,1,1.94,7.52l-20.59,4a6.16,6.16,0,0,0,2.77,3.1,9.52,9.52,0,0,0,4.63,1A10.53,10.53,0,0,0,195.89,63Zm-10-13.48a7.86,7.86,0,0,0-2,5.43l13.56-2.64a6.11,6.11,0,0,0-2.33-3.46,7,7,0,0,0-4.24-1.3,6.65,6.65,0,0,0-5,2Z"/><path id="Path_18790" data-name="Path 18790" class="cls-1" d="M225.51,68.3a8.45,8.45,0,0,1-2.93,1.32,15,15,0,0,1-3.59.44,10.87,10.87,0,0,1-7.71-2.54,9.75,9.75,0,0,1-2.69-7.45V35.66h8.07v6.77h6.87v6.21h-6.88V60a3.9,3.9,0,0,0,.88,2.72,3.28,3.28,0,0,0,2.54,1,5.54,5.54,0,0,0,3.31-1Z"/><path id="Path_18791" data-name="Path 18791" class="cls-1" d="M256.18,41.81V65q0,7.65-3.88,11.38A15.65,15.65,0,0,1,241,80.09a27,27,0,0,1-7.43-1,17,17,0,0,1-5.87-2.84l3.21-5.8a13,13,0,0,0,4.3,2.28,16.78,16.78,0,0,0,5.12.83,8.09,8.09,0,0,0,5.89-1.87A7.72,7.72,0,0,0,248.1,66v-.93a10.52,10.52,0,0,1-3.67,2.38,12.39,12.39,0,0,1-4.55.83,11.9,11.9,0,0,1-8.69-3.13A12.59,12.59,0,0,1,228,55.78v-14h8.07V54.59q0,6.78,5.64,6.78a6.11,6.11,0,0,0,4.66-1.89,7.93,7.93,0,0,0,1.75-5.61V41.81Z"/><path id="Path_18792" data-name="Path 18792" class="cls-1" d="M263.94,33.43h14.74a21.49,21.49,0,0,1,10.14,2.31,16.74,16.74,0,0,1,6.83,6.41,19.36,19.36,0,0,1,0,18.78,16.8,16.8,0,0,1-6.83,6.41,21.6,21.6,0,0,1-10.14,2.3H263.94Zm14.54,32.9a17.57,17.57,0,0,0,8.33-1.88,13.76,13.76,0,0,0,5.52-5.23,16,16,0,0,0,0-15.36,13.76,13.76,0,0,0-5.52-5.23,17.57,17.57,0,0,0-8.33-1.88H267.77V66.33Z"/><path id="Path_18793" data-name="Path 18793" class="cls-1" d="M320.3,65.74a9.54,9.54,0,0,0,3.64-2.67L326,65.45a11.63,11.63,0,0,1-4.5,3.31,16.33,16.33,0,0,1-13.4-.64,12.79,12.79,0,0,1-5.06-4.94A14.05,14.05,0,0,1,301.24,56,14.45,14.45,0,0,1,303,48.9,12.47,12.47,0,0,1,307.75,44a13.61,13.61,0,0,1,6.94-1.76,13.11,13.11,0,0,1,6.54,1.65,12.42,12.42,0,0,1,4.66,4.61,13.77,13.77,0,0,1,1.83,6.72l-22.34,4.35a9.59,9.59,0,0,0,3.75,5.2,11,11,0,0,0,6.49,1.88A12,12,0,0,0,320.3,65.74Zm-10.71-19a9.34,9.34,0,0,0-3.52,3.67,11.31,11.31,0,0,0-1.27,5.41,8.71,8.71,0,0,0,.06,1.14l19.19-3.72a9.42,9.42,0,0,0-3.16-5.61,9.14,9.14,0,0,0-6.21-2.2,9.89,9.89,0,0,0-5.09,1.31Z"/><path id="Path_18794" data-name="Path 18794" class="cls-1" d="M346.71,68a6.93,6.93,0,0,1-2.54,1.42,9.92,9.92,0,0,1-3.15.49,7.2,7.2,0,0,1-8-6.36,7.31,7.31,0,0,1,0-1.55V36.49h3.67v5.95H345v3.1h-8.23V61.78a5.23,5.23,0,0,0,1.19,3.7,4.52,4.52,0,0,0,3.47,1.27,5.83,5.83,0,0,0,4-1.4Z"/><path id="Path_18795" data-name="Path 18795" class="cls-1" d="M366.8,65.74a9.65,9.65,0,0,0,3.65-2.67l2.07,2.38a11.7,11.7,0,0,1-4.5,3.31,16.33,16.33,0,0,1-13.4-.64,12.88,12.88,0,0,1-5.07-4.94A14.16,14.16,0,0,1,347.74,56a14.56,14.56,0,0,1,1.74-7.14A12.47,12.47,0,0,1,354.26,44a13.57,13.57,0,0,1,6.93-1.76,13.15,13.15,0,0,1,6.55,1.65,12.4,12.4,0,0,1,4.65,4.61,13.78,13.78,0,0,1,1.84,6.72l-22.35,4.35a9.69,9.69,0,0,0,3.75,5.2,11,11,0,0,0,6.49,1.88A11.89,11.89,0,0,0,366.8,65.74Zm-10.71-19a9.25,9.25,0,0,0-3.51,3.67,11.2,11.2,0,0,0-1.27,5.41,8.7,8.7,0,0,0,.05,1.14l19.19-3.72a9.45,9.45,0,0,0-3.15-5.61,9.17,9.17,0,0,0-6.21-2.2A9.9,9.9,0,0,0,356.09,46.7Z"/><path id="Path_18796" data-name="Path 18796" class="cls-1" d="M383.86,68.14a12.68,12.68,0,0,1-5-4.94,15,15,0,0,1,0-14.3,12.87,12.87,0,0,1,5-4.91,14.7,14.7,0,0,1,7.22-1.76,13.94,13.94,0,0,1,6.29,1.37,10.42,10.42,0,0,1,4.37,4L399,49.46a8.57,8.57,0,0,0-3.41-3,10.07,10.07,0,0,0-4.5-1,10.6,10.6,0,0,0-5.31,1.32,9.27,9.27,0,0,0-3.67,3.75,12.31,12.31,0,0,0,0,11.09,9.41,9.41,0,0,0,3.67,3.73,10.81,10.81,0,0,0,5.31,1.32,10.47,10.47,0,0,0,4.5-1,8.31,8.31,0,0,0,3.41-3l2.74,1.87a10.38,10.38,0,0,1-4.4,4,14.08,14.08,0,0,1-6.26,1.37A14.58,14.58,0,0,1,383.86,68.14Z"/><path id="Path_18797" data-name="Path 18797" class="cls-1" d="M420,68a6.93,6.93,0,0,1-2.54,1.42,10,10,0,0,1-3.16.49,7.21,7.21,0,0,1-8-6.36,6.7,6.7,0,0,1,0-1.55V36.49H410v5.95h8.22v3.1H410V61.78a5.18,5.18,0,0,0,1.19,3.7,4.5,4.5,0,0,0,3.47,1.27,5.83,5.83,0,0,0,4-1.4Z"/><path id="Path_18798" data-name="Path 18798" class="cls-1" d="M424.71,35.72a2.51,2.51,0,0,1-.77-1.86,2.43,2.43,0,0,1,.77-1.81,2.62,2.62,0,0,1,1.91-.78,2.68,2.68,0,0,1,1.9.75,2.43,2.43,0,0,1,.78,1.79,2.71,2.71,0,0,1-4.61,1.9Zm.05,6.72h3.67v27.2h-3.67Z"/><path id="Path_18799" data-name="Path 18799" class="cls-1" d="M459.63,42.44,447.52,69.65h-3.77L431.69,42.44h3.83l10.19,23.17L456,42.44Z"/><path id="Path_18800" data-name="Path 18800" class="cls-1" d="M478.43,65.74a9.65,9.65,0,0,0,3.65-2.67l2.07,2.38a11.7,11.7,0,0,1-4.5,3.31,16.32,16.32,0,0,1-13.4-.64,12.81,12.81,0,0,1-5.07-4.94A14.05,14.05,0,0,1,459.37,56a14.56,14.56,0,0,1,1.73-7.14A12.49,12.49,0,0,1,465.89,44a13.55,13.55,0,0,1,6.93-1.76,13.11,13.11,0,0,1,6.54,1.65A12.42,12.42,0,0,1,484,48.49a13.77,13.77,0,0,1,1.83,6.72l-22.34,4.35a9.64,9.64,0,0,0,3.75,5.2,11,11,0,0,0,6.49,1.88A11.93,11.93,0,0,0,478.43,65.74Zm-10.71-19a9.25,9.25,0,0,0-3.51,3.67,11.2,11.2,0,0,0-1.27,5.41,8.7,8.7,0,0,0,.05,1.14l19.19-3.72A9.45,9.45,0,0,0,479,47.59a9.17,9.17,0,0,0-6.21-2.2,9.9,9.9,0,0,0-5.1,1.31Z"/></g><g id="Group_48384" data-name="Group 48384"><path id="Path_18801" data-name="Path 18801" class="cls-2" d="M58.41,47.25A14.42,14.42,0,0,1,44,61.65v6.57h0a21,21,0,1,0,0-41.94h0v6.57A14.42,14.42,0,0,1,58.41,47.25Z"/><path id="Path_18802" data-name="Path 18802" class="cls-3" d="M58.41,47.25A14.42,14.42,0,0,0,44,32.85v28.8A14.42,14.42,0,0,0,58.41,47.25Z"/><path id="Path_18803" data-name="Path 18803" class="cls-3" d="M78.22,25.52a3.65,3.65,0,0,0-2.09-3.08L44.93,7.86a2.24,2.24,0,0,0-.92-.2V26.28h0a21,21,0,1,1,0,41.94h0V89.51h0C79,73.41,78.83,35.07,78.22,25.52Z"/><path id="Path_18804" data-name="Path 18804" class="cls-3" d="M44,32.85a14.4,14.4,0,1,0,0,28.8h0Z"/><path id="Path_18805" data-name="Path 18805" class="cls-4" d="M44,32.85a14.4,14.4,0,1,0,0,28.8h0Z"/><path id="Path_18806" data-name="Path 18806" class="cls-3" d="M43.08,7.86,11.89,22.44A3.62,3.62,0,0,0,9.8,25.52c-.38,6-.57,23.44,8.05,39.55l8.47-6.58A21,21,0,0,1,44,26.28V7.66A2,2,0,0,0,43.08,7.86Z"/><path id="Path_18807" data-name="Path 18807" class="cls-4" d="M43.08,7.86,11.89,22.44A3.62,3.62,0,0,0,9.8,25.52c-.38,6-.57,23.44,8.05,39.55l8.47-6.58A21,21,0,0,1,44,26.28V7.66A2,2,0,0,0,43.08,7.86Z"/><path id="Path_18808" data-name="Path 18808" class="cls-3" d="M30.67,63.42,21.3,70.71A55.08,55.08,0,0,0,44,89.51h0V68.22A20.86,20.86,0,0,1,30.67,63.42Z"/><path id="Path_18809" data-name="Path 18809" class="cls-4" d="M30.67,63.42,21.3,70.71A55.08,55.08,0,0,0,44,89.51h0V68.22A20.86,20.86,0,0,1,30.67,63.42Z"/></g><g id="Group_48385" data-name="Group 48385" class="cls-5"><path id="Path_18810" data-name="Path 18810" class="cls-6" d="M47.38,13.13c1.77,4.08,4.19,8.47,6,13a7.26,7.26,0,0,1,3.19,2.58,40.32,40.32,0,0,1,7.35,14.58,8.62,8.62,0,0,1,.15,1,78.64,78.64,0,0,1,8.25,13.57,80.39,80.39,0,0,0,4.46-31.51,3.62,3.62,0,0,0-2.09-3.08L45.93,9.84C46.42,10.93,46.9,12,47.38,13.13Z"/></g></g></svg>