<?xml version="1.0" encoding="UTF-8"?><svg id="a" xmlns="http://www.w3.org/2000/svg" width="640" height="140" xmlns:xlink="http://www.w3.org/1999/xlink" viewBox="0 0 640 140"><defs><style>.e{fill:#fdfefe;}.f{fill:#2f3040;}.g{fill:#0d86ff;}.h{fill:url(#d);}</style><linearGradient id="d" x1="0" y1="167.65" x2="102.6" y2="167.65" gradientTransform="translate(0 -97.65)" gradientUnits="userSpaceOnUse"><stop offset="0" stop-color="#0f99ff"/><stop offset="1" stop-color="#19c9ff"/></linearGradient></defs><g id="b"><g id="c"><path d="M214.09,66.12v32.23h-11.24v-28.54c0-8.62-4.43-13.41-11.93-13.41-7.02-.32-12.97,5.1-13.29,12.12-.02,.47-.02,.94,.01,1.41v28.41h-11.19v-28.54c0-8.62-4.45-13.41-11.96-13.41-7.02-.31-12.96,5.13-13.27,12.15-.02,.46-.02,.93,.01,1.39v28.41h-11.27V47.12h11.14v6.26c3.6-5.08,9.55-7.96,15.77-7.63,7.13-.32,13.9,3.16,17.81,9.13,4.45-7.3,12.39-9.13,18.75-9.13,12.18,0,20.83,8.39,20.83,20.35l-.18,.03Zm59.98,32.23h-11.24v-6.08c-3.84,4.95-9.84,7.75-16.1,7.5-14.37,0-25.62-11.32-25.62-26.99s11.29-27.02,25.62-27.02c6.24-.21,12.21,2.58,16.05,7.5v-6.21h11.19l.1,51.28Zm-41.46-25.62c0,9.01,5.83,16.43,15.47,16.43s15.47-7.07,15.47-16.43-6.21-16.43-15.47-16.43-15.44,7.4-15.44,16.41l-.03,.03Zm95.09-18.8l-7.12,7.63c-3.23-3.36-7.68-5.27-12.34-5.29-8.62,0-15.26,6.74-15.26,16.43s6.54,16.46,15.26,16.46c4.72-.15,9.21-2.07,12.59-5.37l6.89,7.63c-4.86,5.43-11.87,8.43-19.15,8.19-16.33,0-26.99-11.63-26.99-26.99s10.66-27.02,26.99-27.02c7.29-.28,14.33,2.71,19.18,8.17l-.05,.15Z" style="fill:#0d86ff;"/><path d="M344.59,66.52h5.62l16.92-19.54h14.07l-21.5,24.14,21.7,27.14h-14.22l-17.07-21.6h-5.52v21.67h-11.37V20.28h11.27l.1,46.25Z" style="fill:#2f3040;"/><path d="M429.27,72.6c0,1.45,0,2.9-.2,4.17h-37.93c.75,7.75,7.49,13.52,15.26,13.08,5.4-.11,10.62-2.01,14.83-5.39l5.57,7.99c-5.88,4.95-13.4,7.54-21.09,7.25-15.26,0-26.25-10.71-26.25-26.99s10.46-26.91,25.44-26.91c14.45-.03,24.32,10.84,24.37,26.81Zm-38.16-4.32h26.58c-1.2-7.99-5.88-12.72-13-12.72-7.99,0-12.44,5.09-13.61,12.72h.03Zm92.19,4.32c0,1.45,0,2.9-.23,4.17h-37.93c.71,7.78,7.47,13.58,15.26,13.13,5.4-.11,10.62-2,14.83-5.39l5.65,7.94c-5.9,4.94-13.42,7.52-21.11,7.22-15.26,0-26.23-10.71-26.23-26.99s10.43-26.94,25.44-26.94c14.42,.03,24.32,10.89,24.32,26.86Zm-38.16-4.32h26.63c-1.22-7.99-5.88-12.72-13.02-12.72-7.99,0-12.41,5.09-13.61,12.72Zm98.47,4.4c0,15.67-11.29,26.99-25.62,26.99-6.24,.25-12.22-2.52-16.05-7.45v27.52h-11.01V47.06h11.12v6.08c3.87-4.91,9.86-7.65,16.1-7.38,14.37,0,25.62,11.32,25.62,27.02l-.15-.1Zm-42.43,0c0,9.36,6.21,16.43,15.47,16.43s15.47-7.45,15.47-16.43-5.85-16.41-15.47-16.41-15.47,7.07-15.47,16.43v-.03Zm96.51,0c0,1.45,0,2.87-.23,4.17h-37.85c.75,7.75,7.49,13.51,15.26,13.05,5.42-.1,10.66-2.01,14.88-5.42l5.62,7.96c-5.89,4.94-13.41,7.52-21.09,7.22-15.39,0-26.23-10.71-26.23-26.99s10.43-26.99,25.44-26.99,24.17,10.91,24.22,26.89l-.03,.1Zm-38.16-4.35h26.63c-1.22-7.96-5.9-12.72-13.02-12.72-7.91,0-12.41,5.09-13.61,12.72Zm80.18-21.14l-2.67,11.09c-2.68-1.24-5.6-1.88-8.55-1.88-7.12,0-12.21,5.09-12.21,13.76v28.21h-10.89V47.06h11.09v5.77c3.42-4.77,9.05-7.46,14.91-7.12,2.93-.09,5.86,.4,8.6,1.45l-.28,.03Z" style="fill:#2f3040;"/><path d="M102.59,70.26v14.3c-.13,4.3-1.04,8.54-2.67,12.52-.83,2.14-1.89,4.19-3.15,6.11-1.65,2.62-3.59,5.04-5.77,7.22-4.32,4.16-9.55,7.28-15.26,9.11-3.39,1.11-6.94,1.71-10.51,1.76-9.23,0-18.47,.13-27.7,0-8.08-.09-15.91-2.82-22.28-7.78-1.83-1.34-3.53-2.84-5.09-4.48-3.06-3.37-5.51-7.25-7.22-11.47-1.59-3.76-2.51-7.78-2.72-11.85-.41-7.48,0-14.93-.2-22.39v-8.85c.57-7.45,3.3-14.58,7.86-20.5,1.5-1.98,3.21-3.79,5.09-5.42,1.78-1.65,3.72-3.12,5.8-4.38,1.79-.96,3.63-1.81,5.52-2.54,4.53-1.93,9.4-2.93,14.32-2.93h26.81c4.02,.05,7.99,.79,11.75,2.21,1.34,.53,2.65,1.14,3.92,1.83,1.4,.69,2.75,1.48,4.07,2.29,1.78,1.1,3.43,2.39,4.94,3.84,6.03,5.49,10.16,12.76,11.78,20.76,.55,2.9,.8,5.85,.74,8.8v11.85ZM21.19,58.18h-.18v-2.54c0-.56,0-.81-.74-.79h-5.19c-.51,0-.66,.15-.66,.69v29.28c0,.66,.23,.74,.81,.74h5.09c.64,0,.86-.13,.84-.81v-16.41c-.22-4.13,2.89-7.69,7.02-8.01,2.49-.45,5.02,.54,6.56,2.54,1.17,1.66,1.73,3.67,1.6,5.7v16.26c0,.64,.15,.84,.84,.81h5.09c.69,0,.86-.18,.86-.86v-16.28c-.05-1.76,.44-3.49,1.4-4.96,1.34-1.97,3.55-3.17,5.93-3.23,2.43-.39,4.87,.59,6.36,2.54,.99,1.38,1.51,3.04,1.48,4.73v17.17c0,.56,0,.79,.74,.74h5.09c.74,0,.86-.25,.86-.89v-11.32c0-.59,.13-.81,.74-.74h2.93c.45-.04,.88,.18,1.12,.56,3.13,3.99,6.26,7.94,9.39,11.91,.25,.37,.67,.58,1.12,.56h6.87c.26,.08,.53,.08,.79,0-.01-.16-.09-.3-.2-.41l-7.63-9.74c-1.45-1.81-2.87-3.61-4.35-5.39-.39-.32-.45-.9-.13-1.29h0c.06-.08,.12-.14,.2-.19,.84-.89,1.63-1.83,2.54-2.75l7.5-8.45c.8-.77,1.52-1.62,2.14-2.54h-8.06c-.28,0-.54,.16-.69,.41-2.95,3.41-5.93,6.84-8.85,10.18-.48,.76-1.37,1.17-2.26,1.04-.74-.08-1.48-.08-2.21,0-.66,0-.86-.15-.86-.84,0-2.13-.59-4.21-1.7-6.03-1.71-2.89-4.66-4.83-7.99-5.27-5.21-.81-10.18,0-13.61,4.43-.33,.41-.74,.51-1.09,0-.47-.68-1.05-1.29-1.7-1.81-2.94-2.39-6.77-3.39-10.51-2.75-1.44,.16-2.83,.61-4.1,1.32-1.18,.7-2.23,1.62-3.08,2.7h-.1Zm29.38,48.64c2.55,.09,5.11-.08,7.63-.51,2.95-.46,5.83-1.27,8.6-2.39,2.06-.81,4.04-1.81,5.9-3,1.49-.98,1.95-2.95,1.04-4.48-.87-1.62-2.86-2.26-4.5-1.45-.48,.23-.97,.51-1.48,.79-8.08,4.29-17.51,5.28-26.3,2.77-2.75-.83-5.38-1.99-7.86-3.43-1.42-.76-3.18-.44-4.25,.76-.97,1.2-1.07,2.9-.23,4.2,.89,1.08,2.05,1.91,3.36,2.42,1.78,.95,3.66,1.72,5.6,2.29,4.02,1.38,8.24,2.08,12.49,2.06v-.03Zm14.5-46.7v-22.28c0-.61-.15-.79-.79-.79-1.81,0-3.62,0-5.42,0-.59,0-.79,0-.79,.74v12.34c-.05,.42,.18,.82,.56,.99,2.62,1.45,4.6,3.81,5.57,6.64,.17,.82,.47,1.61,.86,2.34v.03Z" style="fill:url(#d);"/><path d="M21.29,58.18c.84-1.12,1.89-2.07,3.08-2.8,1.26-.73,2.65-1.2,4.1-1.37,3.75-.62,7.59,.41,10.53,2.82,.66,.51,1.23,1.12,1.7,1.81,.36,.53,.76,.43,1.09,0,3.56-4.5,8.39-5.24,13.63-4.43,3.33,.46,6.27,2.45,7.94,5.37,1.09,1.82,1.67,3.9,1.68,6.03,0,.69,.23,.89,.86,.84,.74-.08,1.48-.08,2.21,0,.9,.12,1.79-.28,2.29-1.04l8.85-10.18c.16-.23,.41-.38,.69-.41h7.81c-.6,.93-1.31,1.78-2.11,2.54-2.54,2.85-5.09,5.65-7.5,8.45-.81,.92-1.6,1.88-2.54,2.75-.42,.28-.54,.85-.26,1.27h0l.18,.21,4.35,5.39,7.76,9.74c0,.13,.23,.23,.2,.41-.26,.09-.53,.09-.79,0h-6.64c-.45,.03-.89-.18-1.14-.56l-9.39-11.91c-.23-.39-.67-.61-1.12-.56h-2.95c-.61,0-.74,.2-.74,.74v11.37c0,.64-.13,.92-.84,.89h-5.09c-.61,0-.74-.2-.74-.74v-17.22c.03-1.7-.49-3.35-1.48-4.73-1.48-1.97-3.93-2.95-6.36-2.54-2.38,.05-4.58,1.26-5.9,3.23-1.01,1.5-1.52,3.28-1.45,5.09v16.18c0,.69-.15,.89-.86,.86-1.7,0-3.39,0-5.09,0-.66,0-.84-.18-.84-.81v-16.26c.14-2.02-.42-4.02-1.58-5.67-1.55-2.01-4.09-2.99-6.59-2.54-4.12,.26-7.26,3.81-7,7.93v16.49c0,.69-.22,.84-.86,.81h-5.16c-.59,0-.81,0-.81-.74v-29.46c0-.53,.18-.69,.69-.69h5.21c.64,0,.74,.23,.74,.79v2.54l.23,.1Z" style="fill:#fdfefe;"/><path d="M50.57,106.79c-4.25,.03-8.47-.66-12.49-2.04-1.93-.52-3.79-1.23-5.57-2.14-1.33-.53-2.49-1.41-3.36-2.54-.82-1.28-.73-2.94,.23-4.12,1.04-1.23,2.79-1.58,4.22-.84,2.5,1.43,5.15,2.57,7.91,3.38,8.78,2.53,18.21,1.54,26.28-2.75,.51-.25,.97-.56,1.48-.79,1.6-.71,3.48-.11,4.38,1.4,.91,1.5,.51,3.45-.92,4.48-1.87,1.2-3.86,2.21-5.93,3.03-2.77,1.12-5.65,1.92-8.6,2.39-2.52,.43-5.08,.61-7.63,.53Z" style="fill:#fdfefe;"/><path d="M65.07,60.09c-.38-.74-.66-1.52-.81-2.34-.98-2.83-2.96-5.2-5.57-6.66-.38-.17-.61-.57-.56-.99v-12.34c0-.61,.2-.74,.76-.74h5.42c.64,0,.79,.2,.79,.81v22.26h-.03Z" style="fill:#fdfefe;"/></g></g></svg>