<?xml version="1.0" encoding="UTF-8"?><svg id="a" xmlns="http://www.w3.org/2000/svg" width="640" height="140" viewBox="0 0 640 140"><g><path d="M302.86,78.83l-1.2,1.95c-3.74,5.99-8.98,8.98-15.42,8.98-11.08,0-19.31-8.38-19.31-19.31s8.38-19.31,19.31-19.31c6.59,0,11.38,2.84,15.42,8.98l1.2,1.95,16.77-9.88-1.5-2.1c-8.08-11.68-18.41-17.22-32.04-17.22-25.6,0-39.37,19.46-39.37,37.73s13.77,37.73,39.37,37.73c13.02,0,25.3-6.59,32.04-17.37l1.5-2.25-16.77-9.88Z" style="fill:#c01818;"/><path d="M351.36,8.17l5.54,13.32-38.18,86.53h23.05l6.89-17.07h34.58l6.89,17.07h23.2L372.02,8.17h-20.66Zm5.24,62.88l9.58-23.5,9.28,23.5h-18.86Z" style="fill:#c01818;"/><path d="M450.47,27.63c2.54,0,4.19,.45,5.69,1.05l2.25,.9,8.38-18.41-2.25-.75c-3.74-1.5-8.98-2.1-12.73-2.1-9.13,0-16.77,2.99-21.86,8.68-4.49,4.94-7.04,11.83-7.04,19.46v8.08h-8.98v18.86h8.98v44.76h20.21V63.26h13.17v-18.86h-13.17v-8.83c0-3.89,2.55-7.93,7.34-7.93Z" style="fill:#c01818;"/><polygon points="151.35 7.57 151.35 107.88 173.36 108.03 173.36 50.54 194.77 66.41 216.03 50.54 216.03 108.03 238.04 108.03 238.04 7.57 194.77 40.21 151.35 7.57" style="fill:#c01818;"/><path d="M501.97,32.87h0c-25.45,0-39.22,19.31-39.22,37.58s13.77,37.58,39.22,37.58c11.68-.15,22.61-5.39,31.14-15.12l-16.47-8.98c-4.19,4.34-9.43,6.59-15.12,6.59-8.38,0-15.72-5.54-17.67-12.87h55.09v-4.94c.15-27.4-21.56-39.67-36.98-39.82Zm-17.67,28.44c2.69-6.89,8.38-10.78,15.72-10.78s13.32,3.89,16.32,10.93l-32.04-.15Z" style="fill:#c01818;"/><path d="M584.76,33.02h0c-25.45,0-39.22,19.31-39.22,37.58s13.77,37.58,39.22,37.58c11.68-.15,22.61-5.39,31.14-15.12l-16.47-8.98c-4.19,4.34-9.43,6.59-15.12,6.59-8.38,0-15.72-5.54-17.67-12.87h55.09v-4.94c.15-27.4-21.56-39.82-36.98-39.82Zm-17.67,28.29c2.69-6.89,8.38-10.93,15.72-10.78,7.49,0,13.32,3.89,16.32,10.93l-32.04-.15Z" style="fill:#c01818;"/><polygon points="619.19 31.23 622.48 31.23 622.48 40.21 624.28 40.21 624.28 31.23 627.72 31.23 627.72 29.58 619.19 29.58 619.19 31.23" style="fill:#c01818;"/><polygon points="637.46 29.58 634.61 37.81 631.62 29.58 629.07 29.58 628.92 29.58 628.92 40.21 630.72 40.21 630.72 31.97 633.71 40.21 635.21 40.21 638.2 31.97 638.2 40.21 640 40.21 640 29.58 637.46 29.58" style="fill:#c01818;"/><polygon points="0 107.43 54.34 132.58 54.34 108.03 22.31 93.2 22.31 42.3 54.34 57.13 54.34 32.57 0 7.42 0 107.43" style="fill:#c01818;"/></g><polygon id="b" points="54.34 32.57 108.84 7.42 108.84 107.43 54.34 132.58 54.34 108.03 86.53 93.2 86.53 42.3 54.34 57.13 54.34 32.57" style="fill:#75160d;"/></svg>