<?xml version="1.0" encoding="UTF-8"?><svg id="a" xmlns="http://www.w3.org/2000/svg" width="640" height="140" viewBox="0 0 640 140"><path d="M624.82,47.62c0-4.15,3.36-7.59,7.59-7.59s7.59,3.43,7.59,7.59-3.36,7.59-7.59,7.59-7.59-3.43-7.59-7.59h0Zm1.43,0c0,3.44,2.72,6.23,6.16,6.23s6.16-2.79,6.16-6.23-2.79-6.23-6.16-6.23-6.16,2.79-6.16,6.23Zm5.01,4.29h-1.79v-8.66h3.44c1.72,0,3.08,.86,3.08,2.72,0,1.29-.72,2.07-1.65,2.5l1.79,3.44h-1.93l-1.58-3.15h-1.36v3.15Zm1.5-6.94h-1.5v2.15h1.5c.64,0,1.36-.29,1.36-1.07,0-.86-.71-1.07-1.36-1.07Zm-363.16,62.42l-30.92-46.46v46.46h-13.82V40.03h15.96l29.21,43.95V40.03h13.82V107.4h-14.24Zm45.82-46.96c-13.96,0-25.2,10.38-25.2,24.12s11.1,23.91,25.06,23.91,25.13-10.31,25.13-24.2c-.07-13.74-11.17-23.84-24.98-23.84h0Zm-.14,35.65c-6.3,0-11.38-4.79-11.38-11.81s5.01-11.67,11.24-11.67,11.38,4.8,11.38,11.67c.07,7.02-4.94,11.81-11.24,11.81h0Zm59.85-34.65v13.17c-1.79-.36-3.72-.36-4.3-.36-6.44,0-10.95,4.51-10.95,13.03v20.12h-13.17V61.44h12.74v6.73h.14c2.51-5.22,7.16-7.23,11.88-7.23,1.07,0,2.72,.21,3.65,.5h0Zm38.44-21.4v26.7h-.14c-4.72-5.58-11.1-6.08-13.74-6.08-13.17,0-22.05,12.1-22.05,23.77,0,12.38,8.52,23.91,21.83,23.91,3.08,0,9.95-.43,14.32-6.73h.14v5.87h13.03V40.03h-13.39Zm-11.02,56.05c-6.3,0-11.38-4.8-11.38-11.81s5.08-11.6,11.38-11.6,11.38,4.72,11.38,11.6c-.07,7.02-5.08,11.81-11.38,11.81Zm52.9,11.31l-24.41-67.36h15.11l17.47,51.19,17.54-51.19h14.82l-24.48,67.37h-16.03Zm71.3-67.36h-25.06V107.4h13.96v-23.77h10.52c14.1,0,24.62-7.16,24.62-22.05s-10.59-21.55-24.05-21.55Zm-1.14,30.64h-9.95v-17.47h9.88c5.8,0,11.24,2.22,11.24,8.8,0,6.23-5.66,8.66-11.17,8.66h0Zm76.96,36.73l-31-46.46v46.46h-13.74V40.03h15.96l29.21,43.95V40.03h13.82V107.4h-14.24Z" style="fill:#2c3038;"/><path d="M16.61,139.4C6.16,125.02,0,107.26,0,88,0,39.68,39.09,.52,87.34,.52s87.34,39.16,87.34,87.55c0,19.19-6.16,36.94-16.61,51.4l-41.95-68.29-4.08,6.87,4.08,19.04-28.85-49.4-17.75,30.14,4.15,19.26-15.1-25.84L16.61,139.4Z" style="fill:#4580ff;"/></svg>