<?xml version="1.0" encoding="UTF-8"?><svg id="a" xmlns="http://www.w3.org/2000/svg" width="640" height="140" viewBox="0 0 640 140"><g><path d="M185.06,107.12V34h18.31v9.59h2.68c1.18-2.55,3.36-4.98,6.66-7.29,3.24-2.3,8.16-3.49,14.76-3.49,5.73,0,10.71,1.31,14.95,3.92,4.3,2.62,7.6,6.17,9.96,10.77,2.37,4.55,3.55,9.9,3.55,16.01v43.66h-18.56v-42.16c0-5.48-1.37-9.65-4.05-12.39s-6.54-4.11-11.58-4.11c-5.73,0-10.15,1.87-13.26,5.67-3.18,3.8-4.73,9.09-4.73,15.82v37.18l-18.68-.06h0Z" style="fill:#1e1f1d; fill-rule:evenodd;"/><path d="M303.88,92.67c5.73,0,10.4-1.87,14.14-5.54s5.6-8.97,5.6-15.82v-1.49c0-6.85-1.87-12.14-5.54-15.82s-8.41-5.54-14.2-5.54-10.4,1.87-14.14,5.54-5.6,8.97-5.6,15.82v1.49c0,6.85,1.87,12.14,5.6,15.82,3.67,3.67,8.41,5.54,14.14,5.54Zm0,16.5c-7.29,0-13.83-1.49-19.62-4.42s-10.4-7.22-13.7-12.83c-3.36-5.6-4.98-12.33-4.98-20.18v-2.37c0-7.85,1.68-14.57,4.98-20.18,3.36-5.6,7.91-9.9,13.7-12.83s12.33-4.42,19.62-4.42,13.83,1.49,19.62,4.42,10.34,7.22,13.7,12.83c3.36,5.6,4.98,12.33,4.98,20.18v2.37c0,7.85-1.68,14.57-4.98,20.18-3.36,5.6-7.91,9.9-13.7,12.83-5.85,2.93-12.33,4.42-19.62,4.42Z" style="fill:#1e1f1d; fill-rule:evenodd;"/><path d="M351.9,107.12V34h18.31v8.22h2.68c1.06-2.93,2.99-4.92,5.48-6.29,2.49-1.37,5.29-1.93,8.66-1.93h8.78v15.32h-9.15c-5.36,.12-8.59,2.12-11.65,4.67-3.05,2.49-4.55,6.35-4.55,11.58v41.6l-18.56-.06h0Z" style="fill:#1e1f1d; fill-rule:evenodd;"/><path d="M421.89,107.12c-4.8,0-8.72-1.49-11.71-4.48s-4.48-6.97-4.48-12.02V49.32h-18.31v-15.32h18.31V11.27h18.56v22.73h20.05v15.32h-20.05v38.05c0,2.93,1.37,4.42,4.11,4.42h14.14v15.32h-20.62Z" style="fill:#1e1f1d; fill-rule:evenodd;"/><path d="M485.85,92.67c5.73,0,10.4-1.87,14.14-5.54,3.74-3.67,5.6-8.97,5.6-15.82v-1.49c0-6.85-1.87-12.14-5.54-15.82s-8.41-5.54-14.2-5.54-10.4,1.87-14.14,5.54-5.6,8.97-5.6,15.82v1.49c0,6.85,1.87,12.14,5.6,15.82,3.74,3.67,8.47,5.54,14.14,5.54Zm0,16.5c-7.29,0-13.83-1.49-19.62-4.42s-10.4-7.22-13.7-12.83c-3.36-5.6-5.04-12.33-5.04-20.18v-2.37c0-7.85,1.68-14.57,5.04-20.18,3.36-5.6,7.91-9.9,13.7-12.83s12.33-4.42,19.62-4.42,13.83,1.49,19.62,4.42,10.34,7.22,13.7,12.83c3.36,5.6,4.98,12.33,4.98,20.18v2.37c0,7.85-1.68,14.57-4.98,20.18-3.36,5.6-7.91,9.9-13.7,12.83s-12.33,4.42-19.62,4.42h0Z" style="fill:#1e1f1d; fill-rule:evenodd;"/><path d="M533.86,107.12V34h18.31v9.59h2.68c1.18-2.55,3.36-4.98,6.66-7.29,3.24-2.3,8.16-3.49,14.76-3.49,5.73,0,10.71,1.31,14.95,3.92,4.3,2.62,7.6,6.17,9.96,10.77s3.55,9.9,3.55,16.01v43.66h-18.56v-42.16c0-5.48-1.37-9.65-4.05-12.39-2.68-2.74-6.54-4.11-11.58-4.11-5.73,0-10.15,1.87-13.26,5.67s-4.73,9.09-4.73,15.82v37.18l-18.68-.06h-.01Z" style="fill:#1e1f1d; fill-rule:evenodd;"/></g><path d="M155.97,70c0,37.86-30.83,68.69-68.69,68.69S18.59,107.86,18.59,70,49.35,1.31,87.28,1.31c10.46,0,20.43,2.37,29.27,6.54l-11.4,14.7c-5.54-2.12-11.58-3.24-17.87-3.24-26.72,0-48.7,20.74-50.57,47.02-.06,.56-.06,1.06-.06,1.62,0,.69-.06,1.37-.06,2.12,0,27.96,22.73,50.69,50.69,50.69s50.69-22.73,50.69-50.69c0-3.74-.44-7.41-1.18-10.9l13.26-17.06c3.8,8.47,5.92,17.94,5.92,27.9" style="fill:#fbde2a; fill-rule:evenodd;"/><path d="M141.96,28.46l-52.19,67.26-33.13-29.64,12.02-13.45,18.75,16.75L129.19,15.57c4.8,3.74,9.09,8.03,12.77,12.89" style="fill:#1e1f1d; fill-rule:evenodd;"/><path d="M611.71,42.54v-8.59h3.05l1.62,7.1h.37l1.62-7.1h3.05v8.59h-1.62v-7.1h-.37l-1.62,7.1h-2.49l-1.62-7.1h-.37v7.1h-1.62Zm-5.6,0v-7.1h-2.8v-1.49h7.22v1.49h-2.8v7.1h-1.62Z" style="fill:#1e1f1d; fill-rule:evenodd;"/></svg>