<?xml version="1.0" encoding="UTF-8"?><svg id="a" xmlns="http://www.w3.org/2000/svg" width="640" height="140" xmlns:xlink="http://www.w3.org/1999/xlink" viewBox="0 0 640 140"><defs><style>.l{fill:#373944;}.m{fill:url(#b);}.n{fill:url(#h);}.o{fill:url(#d);}.p{fill:#1e811f;}.q{fill:#56b14e;}.r{fill:url(#j);}</style><linearGradient id="b" x1="-61.39" y1="56.16" x2="-61.38" y2="54.06" gradientTransform="translate(2500.39 1438.71) scale(38.63 -25.58)" gradientUnits="userSpaceOnUse"><stop offset="0" stop-color="#56b14e"/><stop offset=".54" stop-color="#4a9e41"/><stop offset="1" stop-color="#357c2a"/></linearGradient><linearGradient id="d" x1="-67.35" y1="63.49" x2="-67.35" y2="65.59" gradientTransform="translate(3312.39 2735.33) scale(47.28 -40.92)" gradientUnits="userSpaceOnUse"><stop offset="0" stop-color="#4a9e41"/><stop offset="1" stop-color="#56b14e"/></linearGradient><linearGradient id="h" x1="-1102.03" y1="51.25" x2="-1102.07" y2="52.73" gradientTransform="translate(16150.7 1346.19) scale(14.54 -24.1)" gradientUnits="userSpaceOnUse"><stop offset="0" stop-color="#56b14e"/><stop offset=".3" stop-color="#4a9e41"/><stop offset=".35" stop-color="#45973c"/><stop offset=".52" stop-color="#3c8732"/><stop offset=".72" stop-color="#367e2b"/><stop offset="1" stop-color="#357c2a"/></linearGradient><linearGradient id="j" x1="-1102.03" y1="51.25" x2="-1102.07" y2="52.73" gradientTransform="translate(16150.7 1346.19) scale(14.54 -24.1)" gradientUnits="userSpaceOnUse"><stop offset="0" stop-color="#56b14e" stop-opacity=".15"/><stop offset="1" stop-color="#9bf893" stop-opacity=".26"/></linearGradient></defs><g><path d="M256.89,30.73c-.4,0-.7,.2-1.09,.2-.5,0-.7,.2-.89,.2v21.57c0,1.09,.7,1.79,2.19,1.79,.4,0,.7-.2,1.09-.2,.3,0,.5-.2,.7-.2l.2-21.57c0-1.09-.89-1.79-2.19-1.79Z" style="fill:#373944;"/><path d="M328.25,50.81c-.7,.3-1.09,.5-1.79,.7-.7,0-1.29,.2-1.99,.2-1.29,0-2.39-.2-3.28-.89-.89-.7-1.29-1.79-1.09-2.88v-13.12h7.26c1.09,0,1.49-.7,1.49-1.79,0-.2-.2-.7-.2-.89,0-.3,0-.5-.2-.7h-8.35v-5.67c0-1.09-.89-1.79-2.19-1.79-.4,0-.6,.2-1.09,.2s-.7,.2-.89,.2v23.85c-.2,1.99,.7,3.98,2.19,5.27,1.69,1.09,3.68,1.49,5.67,1.49,1.09,0,2.39-.2,4.08-.6,.6-.3,1.29-.89,1.29-1.79,0-.4,0-.89-.2-1.09-.3-.3-.5-.5-.7-.7Z" style="fill:#373944;"/><path d="M227.97,25.76c-2.68-1.89-5.96-2.78-9.24-2.58-1.39,0-2.68,0-3.98,.2-1.29,0-2.39,.3-3.48,.7-.6,0-1.09,.3-1.29,.7s-.4,.89-.4,1.29v26.64c0,1.09,.7,1.79,2.19,1.79,.4,0,.7-.2,1.09-.2,.5,0,.7-.2,.89-.2v-10.73h4.97c3.28,.2,6.66-.89,9.24-2.88,2.19-1.99,3.28-4.57,3.08-7.45,.2-2.68-.89-5.27-3.08-7.26Zm-3.18,12.32c-1.79,1.39-3.98,1.99-6.16,1.79l-4.77,.1v-12.92c.6-.2,1.29-.4,2.39-.4,.8-.2,1.69-.2,2.58-.2,1.99,0,4.17,.4,5.96,1.49,1.49,1.39,2.39,3.08,2.19,5.07,.2,1.99-.7,3.78-2.19,5.07Z" style="fill:#373944;"/><path d="M245.86,30.43c-1.79,0-3.28,.3-5.07,.7-1.29,.4-2.39,.8-3.48,1.49-.6,.2-1.09,.89-1.49,1.29-.2,.5-.4,1.09-.4,1.79v17c0,1.09,.7,1.79,2.19,1.79,.4,0,.7-.2,1.09-.2,.3,0,.5-.2,.7-.2v-18.79c.89-.4,1.79-.89,2.88-1.09,1.59-.2,2.88-.4,4.17-.4h1.49c.4,0,.89,.2,1.29,.2,.2-.3,.4-.5,.4-.7,.2-.2,.2-.7,.2-.89,0-1.29-1.39-1.99-3.98-1.99Z" style="fill:#373944;"/><path d="M256.79,21.19c-.7,0-1.29,.2-1.79,.7-.5,.5-.7,1.09-.7,1.79-.2,.8,.2,1.29,.5,1.79,.7,.5,1.29,.7,1.99,.7s1.39-.3,1.79-.7c.5-.5,.7-1.09,.7-1.79s-.2-1.29-.7-1.79c-.5-.5-1.09-.7-1.79-.7Z" style="fill:#373944;"/><path d="M352.51,42.26c.2-.4,.4-.8,.4-1.49,0-1.59-.2-2.88-.89-3.98-.4-1.29-1.29-2.39-2.19-3.28-.89-1.09-1.99-1.79-3.28-2.19-1.29-.5-2.88-.7-4.17-.7-1.49,0-3.08,.2-4.37,.89-1.29,.6-2.39,1.29-3.48,2.39-1.09,1.09-1.99,2.39-2.39,3.68-.7,1.59-.89,3.28-.89,5.07-.4,3.28,.89,6.86,3.28,9.24,2.68,2.19,5.96,3.28,9.24,3.08,1.09,0,1.99,0,3.08-.2,.6-.2,1.49-.5,2.39-.89,.7-.2,1.39-.7,1.79-1.09,.5-.2,.7-.89,.7-1.29,0-.89-.4-1.59-1.09-1.99-.6,.6-1.69,1.09-2.58,1.49-1.09,.5-2.39,.7-3.68,.7-4.87,0-7.65-2.19-8.55-6.56l15.41-2.19c.4-.3,.89-.3,1.29-.7Zm-17.2-.2c0-2.19,.7-4.37,2.19-6.16,1.39-1.49,3.08-2.19,5.07-2.19,1.79-.2,3.58,.4,4.57,1.79,1.09,1.29,1.99,2.78,1.99,4.57l-13.82,1.99Z" style="fill:#373944;"/><path d="M306.09,32.42c-2.19-1.29-4.67-2.19-7.06-1.99-1.29,0-2.68,0-3.38,.1-1.09,.2-2.19,.7-3.08,1.09-.4,.2-.89,.5-1.09,.89-.4,.2-.4,.7-.4,1.09-.2,.4,0,.89,.2,1.09,.3,.5,.5,.7,.7,.89,1.09-.4,2.19-.89,3.28-1.29,1.39-.5,2.68-.7,3.98-.7,1.59-.2,3.08,.2,4.17,1.09,1.09,.8,1.69,2.39,1.49,3.68v1.79l-7.26,.7c-2.19,0-4.37,.7-6.16,1.99-1.49,1.39-2.39,3.08-2.19,5.07,0,1.99,.8,3.98,2.58,5.27,2.19,1.39,4.67,1.99,7.26,1.79,1.49,0,3.08,0,4.57-.4,1.29-.4,2.19-.89,3.28-1.29,.4-.2,.89-.7,1.29-1.09,.4-.7,.4-1.09,.4-1.79v-11.83c.3-2.48-.8-4.67-2.58-6.16Zm-1.59,17.99c-.7,.5-1.29,.7-1.99,.89-1.09,.2-2.39,.4-3.48,.4-1.59,0-3.08-.2-4.47-1.29-1.09-.7-1.49-1.79-1.49-2.88,0-.8,.4-1.89,1.29-2.58,1.39-.7,2.68-1.09,3.98-1.09l6.16-.7v7.26Z" style="fill:#373944;"/><path d="M284.12,30.63c-.7,0-1.29,0-2.19-.2-.89,3.08-1.99,6.36-3.08,9.64s-2.39,6.76-3.68,10.04h-.2c-.2-.5-.7-1.09-.89-1.99-.2-.6-.7-1.49-.89-2.39-.2-.6-.7-1.49-.89-2.39-.3-.7-.5-1.29-.7-1.99l-3.08-8.95c-.2-.6-.5-1.09-.89-1.49-.2-.2-.89-.4-1.29-.4-.2,0-.7,0-1.09,.2-.2,.2-.7,.5-.89,.89,.2,1.09,.7,2.19,1.09,3.48,.4,1.39,.6,2.48,1.29,3.98s1.09,2.88,1.79,4.37c.7,1.59,1.39,2.88,1.79,4.17,.6,1.29,1.09,2.39,1.49,3.48s.89,1.69,1.09,2.39c.4,.7,1.09,1.09,2.39,1.09,.4,0,.89-.2,1.29-.2,.2-.2,.7-.2,.89-.4,.7-1.09,1.09-2.19,1.99-3.68,.5-1.49,1.09-3.08,1.79-4.37,.7-1.29,1.09-2.88,1.79-4.37,.4-1.39,1.09-2.88,1.29-3.98,.4-1.29,.89-2.39,1.09-3.28,.2-.7,.4-1.29,.4-1.99,.3-.4,0-.89-.4-1.29-.4-.2-.89-.4-1.29-.4Z" style="fill:#373944;"/></g><g><path d="M402,32.22c-2.19-1.29-4.67-2.19-7.26-1.99-1.59,0-3.38,.3-4.87,.7-1.29,.4-2.39,.8-3.48,1.49-.6,.2-1.09,.89-1.49,1.29-.2,.5-.4,1.09-.4,1.79v17.2c0,1.09,.7,1.79,2.19,1.79,.4,0,.7-.2,1.09-.2,.3,0,.5-.2,.7-.2v-18.88c.8-.4,1.69-.89,2.58-1.09,1.09-.2,2.19-.4,3.48-.4,1.59,0,2.88,.4,4.17,1.29,1.09,1.09,1.69,2.68,1.49,4.17l.2,13.52c0,1.09,.7,1.79,2.19,1.79,.4,0,.6-.2,1.09-.2s.7-.2,.89-.2v-15.31c.3-2.58-.8-5.07-2.58-6.56Z" style="fill:#1e811f;"/><path d="M424.27,50.61c-.7,.3-1.09,.5-1.79,.7-.7,0-1.29,.2-1.99,.2-1.29,0-2.39-.2-3.28-.89-.89-.7-1.29-1.79-1.09-2.88v-12.92h7.26c1.09,0,1.49-.7,1.49-1.79,0-.2-.2-.7-.2-.89,0-.3,0-.5-.2-.7h-8.35v-5.67c0-1.09-.89-1.79-2.19-1.79-.4,0-.7,.2-1.09,.2-.5,0-.7,.2-.89,.2v23.85c-.2,1.99,.7,3.98,2.19,5.27,1.69,1.09,3.68,1.49,5.67,1.49,1.09,0,2.39-.2,4.08-.8,.6-.3,1.29-.89,1.29-1.79,0-.4,0-.89-.2-1.09-.3-.3-.5-.5-.7-.7Z" style="fill:#1e811f;"/><path d="M375.96,25.26c0-1.09-.7-1.79-2.19-1.79-.5,0-.89,0-.89,.2-.5,0-.7,.2-.89,.2v28.82c0,1.09,.7,1.79,2.19,1.79,.4,0,.7-.2,1.09-.2,.3,0,.5-.2,.7-.2h0V25.26Z" style="fill:#1e811f;"/><path d="M540.36,51.3c-.3-.3-.5-.5-.7-.7-.7,.3-1.09,.5-1.79,.7-.7,0-1.29,.2-1.99,.2-1.29,0-2.39-.2-3.28-.89-.89-.7-1.29-1.79-1.09-2.88v-12.92h7.26c1.09,0,1.49-.7,1.49-1.79,0-.2-.2-.7-.2-.89,0-.3,0-.5-.2-.7h-8.35v-5.67c0-1.09-.89-1.79-2.19-1.79-.4,0-.7,.2-1.09,.2-.5,0-.7,.2-.89,.2v23.85c-.2,1.99,.7,3.98,2.19,5.27,1.69,1.09,3.68,1.49,5.67,1.49,1.39,0,2.48-.2,4.08-.8,.6-.3,1.29-.89,1.29-1.79,0-.4,.1-.8-.2-1.09Z" style="fill:#1e811f;"/><path d="M445.84,33.21c-.89-1.09-1.99-1.79-3.28-2.19-1.29-.5-2.88-.7-4.17-.7-1.49,0-3.08,.2-4.37,.89-1.29,.6-2.39,1.29-3.48,2.39s-1.99,2.39-2.39,3.68c-.7,1.59-.89,3.28-.89,5.07-.4,3.28,.89,6.86,3.28,9.24,2.68,2.19,5.96,3.28,9.24,3.08,1.09,0,1.99,0,3.08-.2,.6-.2,1.49-.5,2.39-.89,.7-.2,1.39-.7,1.79-1.09,.5-.2,.7-.89,.7-1.29,0-.89-.4-1.59-1.09-1.99-.6,.6-1.69,1.09-2.58,1.49-1.09,.5-2.39,.7-3.68,.7-4.87,0-7.65-2.19-8.55-6.56l15.41-1.99c.4-.3,.89-.3,1.29-.7,.2-.4,.4-.8,.4-1.49,0-1.59-.5-2.88-.89-4.17-.4-1.29-1.29-2.39-2.19-3.28Zm-14.31,8.85c0-2.19,.7-4.37,2.19-6.16,1.39-1.49,3.08-2.19,5.07-2.19,1.79-.2,3.28,.4,4.57,1.79,1.09,1.29,1.99,2.78,1.99,4.57l-13.82,1.99Z" style="fill:#1e811f;"/><path d="M491.46,32.22c-2.19-1.29-4.67-2.19-7.26-1.99-1.59,0-3.38,.3-4.87,.7-1.29,.4-2.39,.8-3.48,1.49-.6,.2-1.09,.89-1.49,1.29-.2,.5-.4,1.09-.4,1.79v17.2c0,1.09,.7,1.79,2.19,1.79,.4,0,.7-.2,1.09-.2,.3,0,.5-.2,.7-.2v-18.88c.8-.4,1.69-.89,2.58-1.09,1.09-.2,2.19-.4,3.48-.4,1.59,0,2.88,.4,4.17,1.29,1.09,1.09,1.69,2.68,1.49,4.17l.2,13.52c0,1.09,.7,1.79,2.19,1.79,.4,0,.6-.2,1.09-.2s.7-.2,.89-.2v-15.31c.3-2.58-.8-5.07-2.58-6.56Z" style="fill:#1e811f;"/><path d="M518.09,33.21c-.89-1.09-1.99-1.79-3.28-2.19-1.29-.5-2.88-.7-4.17-.7-1.49,0-3.08,.3-4.37,.89-1.29,.6-2.39,1.29-3.48,2.39-1.09,1.09-1.99,2.39-2.39,3.68-.7,1.59-.89,3.28-.89,5.07-.4,3.28,.89,6.86,3.28,9.24,2.68,2.19,5.96,3.28,9.24,3.08,1.09,0,1.99,0,3.08-.2,.6-.2,1.49-.5,2.39-.89,.7-.2,1.39-.7,1.79-1.09,.5-.2,.7-.89,.7-1.29,0-.89-.4-1.59-1.09-1.99-.6,.6-1.69,1.09-2.58,1.49-1.09,.5-2.39,.7-3.68,.7-4.87,0-7.65-2.19-8.55-6.56l15.41-1.99c.4-.3,.89-.3,1.29-.7,.2-.4,.4-.8,.4-1.49,0-1.59-.5-2.88-.89-4.17s-1.29-2.39-2.19-3.28Zm-14.21,8.85c0-2.19,.7-4.37,2.19-6.16,1.39-1.49,3.08-2.19,5.07-2.19,1.79-.2,3.48,.4,4.57,1.79,1.09,1.29,1.99,2.78,1.99,4.57l-13.82,1.99Z" style="fill:#1e811f;"/><path d="M465.42,30.43c-1.79,0-3.28,.3-5.07,.7-1.29,.4-2.39,.8-3.48,1.49-.6,.2-1.09,.89-1.49,1.29-.2,.5-.4,1.09-.4,1.79v17c0,1.09,.7,1.79,2.19,1.79,.4,0,.7-.2,1.09-.2,.3,0,.5-.2,.7-.2h0v-18.79c.89-.4,1.79-.89,2.88-1.09,1.59-.2,2.88-.4,4.17-.4h1.49c.4,0,.89,.2,1.29,.2,.2-.3,.4-.5,.4-.7,.2-.2,.2-.7,.2-.89,0-1.29-1.39-1.99-3.98-1.99Z" style="fill:#1e811f;"/></g><g><path id="c" d="M129.72,.42h-1.49c-22.96,0-41.65,18.59-41.65,41.65h0v11.13c0,1.79,1.49,3.28,3.28,3.28h8.95c1.79,0,3.28-1.49,3.28-3.28h0v-11.83c0-14.51,11.63-26.04,26.04-26.04h1.29c14.51,0,26.04,11.63,26.04,26.04v11.83c0,1.79,1.49,3.28,3.28,3.28h8.95c1.79,0,3.28-1.49,3.28-3.28h0v-11.13C171.37,19.01,152.78,.42,129.72,.42h0Z" style="fill:url(#b);"/><path id="e" d="M159.34,139.58h-11.63c-3.98,0-7.45-2.19-9.24-5.67h-21.27c-1.79,3.48-5.27,5.67-9.24,5.67h-11.63c-4.17,0-7.65-2.39-9.44-6.16-6.16-1.79-10.34-7.26-10.34-13.62v-53.27c0-2.39,.7-5.07,1.99-7.06,0-5.47,4.37-9.64,9.84-9.64h18.88c2.58,0,5.07,1.09,6.76,2.88h28.92c1.79-1.79,4.37-2.88,6.76-2.88h18.88c5.47,0,9.84,4.37,9.84,9.84h0c1.09,2.19,1.79,4.57,1.79,7.06v53.27c0,6.76-5.07,12.72-11.63,13.82-1.59,3.58-5.27,5.76-9.24,5.76Zm-30.91-69.28h-1.29c-6.36,.7-10.73,6.36-10.04,12.72,.4,3.28,2.19,6.36,5.07,8.15,.7,.4,.89,1.09,.7,1.79l-2.88,19.08c0,.4,0,1.09,.4,1.49s.89,.7,1.29,.7h13.32c.4,0,1.09-.2,1.29-.7,.4-.4,.4-.89,.4-1.49l-2.88-19.08c0-.7,.2-1.29,.7-1.79,5.27-3.48,6.56-10.73,3.08-16-1.69-2.88-5.17-4.87-9.14-4.87Z" style="fill:url(#d);"/><path id="f" d="M121.67,33.92c0-2.58-2.19-4.57-4.87-4.57s-4.57,2.19-4.57,4.57c0,2.58,2.19,4.57,4.57,4.57,2.68,.1,4.87-2.09,4.87-4.57h0m18.39-4.77c-2.58,0-4.57,2.19-4.57,4.57,0,2.58,2.19,4.57,4.57,4.57,2.58,0,4.57-2.19,4.57-4.57h0c.2-2.39-1.99-4.57-4.57-4.57m-5.07,12.42c-3.68,3.28-9.44,3.28-13.12,0-.4-.4-1.29-.4-1.79,0s-.4,1.29,0,1.79c4.57,4.37,11.83,4.37,16.4,0,.4-.4,.4-1.29,0-1.79-.2-.4-.8-.4-1.49,0h0" style="fill:#56b14e;"/><g id="g" transform="translate(547.365 350.858)"><path id="i" d="M135.16,118.66h-13.32c-3.48,0-6.36-2.88-6.36-6.36v-.89l2.58-17.49c-6.56-5.67-7.45-15.8-1.79-22.36,2.58-3.28,6.36-5.07,10.54-5.67h1.79c8.75,0,16,7.26,16,16,0,4.57-1.99,8.95-5.67,12.03l2.58,17.49c.4,3.48-1.99,6.56-5.27,7.26h-1.09Zm-6.56-48.4h-1.29c-6.36,.89-10.73,6.56-10.04,12.92,.4,3.28,2.19,6.36,5.07,8.15,.7,.4,.89,1.09,.7,1.79l-2.88,19.08c-.2,1.09,.4,1.99,1.49,1.99h13.52c.4,0,1.09-.2,1.29-.7,.4-.4,.4-.89,.4-1.29l-2.78-19.18c0-.7,.2-1.29,.89-1.79,5.27-3.48,6.56-10.73,3.08-16-2.19-2.98-5.76-4.97-9.44-4.97h0Z" style="fill:url(#h);"/><path id="k" d="M135.16,118.66h-13.32c-3.48,0-6.36-2.88-6.36-6.36v-.89l2.58-17.49c-6.56-5.67-7.45-15.8-1.79-22.36,2.58-3.28,6.36-5.27,10.54-5.67h1.79c8.75,0,16,7.26,16,16,0,4.57-1.99,8.95-5.67,12.03l2.58,17.49c.4,3.48-1.99,6.56-5.27,7.26h-1.09Zm-6.56-48.4h-1.29c-6.36,.89-10.73,6.56-10.04,12.92,.4,3.28,2.19,6.36,5.07,8.15,.7,.4,.89,1.09,.7,1.79l-2.88,19.08c0,.4,0,1.09,.4,1.29,.2,.4,.89,.7,1.29,.7h13.32c1.09,0,1.79-.89,1.79-1.79v-.2l-2.88-19.18c0-.7,.2-1.29,.7-1.79,5.27-3.48,6.56-10.73,3.08-16-1.99-2.98-5.57-4.97-9.24-4.97Z" style="fill:url(#j);"/></g></g><g><path d="M375.72,124.57c-1.99,1.29-4.17,2.39-6.36,3.28-2.58,.89-5.67,1.29-8.55,1.29-5.67,.2-11.13-1.99-15.11-5.96-3.68-3.98-5.67-9.64-5.67-17.29,0-3.48,.4-6.76,1.49-10.04,.89-2.68,2.19-5.07,4.17-7.26,1.79-1.79,3.98-3.28,6.36-4.37,2.68-1.09,5.27-1.49,8.15-1.49s5.96,.4,8.55,1.49c2.19,.89,4.17,1.99,6.16,3.28,.89-.5,1.49-1.09,2.19-1.99,.7-.89,.89-1.99,.89-3.08s-.4-2.19-1.09-3.38c-1.09-1.39-2.48-2.19-3.98-2.88-1.79-.89-3.98-1.59-5.96-1.99-2.58-.5-5.27-.7-7.85-.7-3.98,0-7.95,.89-11.63,2.19s-7.06,3.58-9.64,6.16c-2.88,2.78-5.07,6.36-6.56,10.04-1.69,4.37-2.39,9.14-2.39,14.01s.6,9.64,2.39,14.21c1.49,3.68,3.68,7.16,6.56,10.04,2.58,2.68,5.96,4.67,9.64,5.96,3.88,1.29,7.85,1.99,12.03,1.99,3.28,0,6.56-.2,9.84-1.09,2.19-.6,4.17-1.49,6.16-2.58,.89-.4,1.69-1.29,2.39-2.19,.5-.8,.7-1.69,.7-2.58,0-1.09-.2-2.19-.89-3.08-.5-.7-1.09-1.59-1.99-1.99Z" style="fill:#373944;"/><path d="M430.99,128.44h-29.12v-18.39h22.96c1.09,0,2.19-.4,2.88-1.09,.89-1.09,1.09-2.19,1.09-3.48,0-.89-.2-1.49-.4-2.39-.2-.7-.5-1.39-.89-1.79h-25.64v-16.9h26.04c1.09,0,2.19-.4,2.88-1.29,.89-1.09,1.09-2.19,1.09-3.48,0-.89-.2-1.49-.4-2.39-.2-.7-.5-1.39-.89-1.79h-33.5c-1.59,0-3.08,.4-4.17,1.49-1.09,1.09-1.49,2.68-1.49,4.17v50.19c-.3,1.59,.4,3.08,1.49,4.17s2.68,1.49,4.17,1.49l31.21,.2c1.09,.2,2.19-.2,2.88-1.09,.89-1.09,1.09-2.19,1.09-3.48,0-.89-.2-1.49-.4-2.39-.2-.7-.5-1.39-.89-1.79Z" style="fill:#373944;"/><path d="M318.57,124.57c-1.99,1.29-4.17,2.39-6.36,3.28-2.58,.89-5.67,1.29-8.55,1.29-5.67,.2-11.13-1.99-15.11-5.96-3.68-3.98-5.67-9.64-5.67-17.29,0-3.48,.4-6.76,1.49-10.04,.89-2.68,2.19-5.07,4.17-7.26,1.79-1.79,3.98-3.28,6.36-4.37,2.68-1.09,5.27-1.49,8.15-1.49s5.96,.4,8.55,1.49c2.19,.89,4.17,1.99,6.16,3.28,.89-.5,1.49-1.09,2.19-1.99,.7-.89,.89-1.99,.89-3.08-.2-1.09-.7-2.19-1.29-3.38-1.09-1.39-2.48-2.19-3.98-2.88-1.79-.89-3.98-1.59-5.96-1.99-2.58-.5-5.27-.7-7.85-.7-3.98,0-7.95,.89-11.63,2.19s-7.06,3.58-9.64,6.16c-2.88,2.78-5.07,6.36-6.56,10.04-1.69,4.37-2.39,9.14-2.39,14.01s.6,9.64,2.39,14.21c1.49,3.68,3.68,7.16,6.56,10.04,2.78,2.68,6.16,4.67,9.84,5.96,3.88,1.29,7.85,1.99,12.03,1.99,3.28,0,6.56-.2,9.84-1.09,2.19-.6,4.17-1.49,6.16-2.58,.89-.4,1.69-1.29,2.39-2.19,.5-.8,.7-1.69,.7-2.58,0-1.09-.2-2.19-.89-3.08-.5-.7-1.09-1.59-1.99-1.99Z" style="fill:#373944;"/><path d="M255.66,106.78c-1.79-5.27-3.48-10.24-5.27-15.11-1.79-4.77-3.38-9.14-4.87-13.12-.5-1.39-1.59-2.48-3.08-2.88-1.79-.7-3.48-.89-5.27-.89-1.49,0-2.88,.3-4.37,.7-1.09,.2-1.99,.7-3.08,1.09-1.39,3.58-3.08,7.65-4.87,12.52-1.99,4.87-3.68,9.64-5.47,14.71-1.79,4.97-3.58,9.64-5.07,14.21-1.49,4.37-2.78,8.05-3.68,10.93-.5,.89-.7,1.69-.89,2.39-.2,.7-.2,1.49-.2,2.19-.3,1.29,.4,2.58,1.49,3.28,1.29,.89,2.68,1.09,4.17,1.09,.89,0,1.49,0,2.39-.2,.7-.3,1.29-.5,1.99-.7l5.07-15.6h24.95l3.68,12.23c.2,1.29,1.09,2.39,1.99,3.48,1.09,.89,2.68,1.29,3.98,1.09,1.09,0,2.39-.3,3.48-.7,.89-.5,1.69-1.09,2.39-1.79-1.29-3.98-2.88-8.55-4.37-13.62-1.59-4.97-3.28-10.04-5.07-15.31Zm-28.43,5.86c.8-2.58,1.69-5.07,2.58-7.65,.8-2.58,1.69-5.07,2.58-7.65,.8-2.39,1.69-4.87,2.58-7.26,.89-2.19,1.49-4.37,2.19-6.16h.5c.5,1.49,1.09,3.48,1.79,5.67l2.39,7.06c.8,2.58,1.69,4.97,2.58,7.85,.8,2.68,1.69,5.57,2.58,8.15h-19.78Z" style="fill:#373944;"/><path d="M522.82,101.01l-5.96-1.79c-2.68-.7-4.87-1.79-7.06-3.28-1.49-1.19-2.19-2.88-2.19-4.87,0-2.48,1.09-4.67,3.08-5.96,2.39-1.49,5.47-2.39,8.55-2.19,2.98,0,6.06,.4,8.95,1.29,2.39,.7,4.57,1.79,6.56,3.28,.89-.5,1.49-1.09,2.19-1.99,.7-.89,.89-1.99,.89-3.08,0-1.29-.6-2.58-1.49-3.48-1.29-1.39-2.68-2.19-4.17-2.88-1.99-.89-3.98-1.39-6.16-1.79-2.39-.5-5.07-.7-7.65-.7-5.67-.5-11.43,1.29-16,4.57-3.98,3.08-6.16,7.65-5.96,12.72,0,2.19,.4,4.37,1.09,6.36,.7,1.69,1.79,3.28,3.08,4.57,1.39,1.49,3.08,2.58,4.87,3.48,1.99,1.09,4.17,1.89,6.36,2.58l7.65,2.39c2.88,.6,5.27,1.89,7.45,3.68,1.69,1.59,2.39,3.78,2.39,5.96,0,2.58-1.09,4.97-3.08,6.76-2.68,1.89-6.16,2.78-9.44,2.58-3.58,0-6.86-.6-9.74-2.09-2.39-1.09-4.57-2.39-6.56-4.17-1.09,.4-1.99,1.29-2.88,2.19-.89,1.09-1.29,2.19-1.29,3.48,0,1.49,.6,2.78,1.49,3.68,1.29,1.29,2.88,2.39,4.37,3.08,1.99,1.09,4.37,1.79,6.56,2.19,2.88,.7,5.67,.89,8.55,.89,3.48,0,6.76-.4,10.04-1.29,2.88-.6,5.27-1.89,7.45-3.68,1.99-1.79,3.48-3.78,4.57-5.96,1.09-2.39,1.49-4.87,1.49-7.45,.2-4.57-1.59-8.95-4.87-12.03-3.68-3.38-8.25-5.76-13.12-7.06Z" style="fill:#373944;"/><path d="M468.85,101.01l-5.96-1.79c-2.68-.7-4.87-1.79-7.06-3.28-1.49-1.19-2.19-2.88-2.19-4.87,0-2.48,1.09-4.67,3.08-5.96,2.39-1.49,5.47-2.39,8.55-2.19,2.98,0,6.06,.4,8.95,1.29,2.39,.7,4.57,1.79,6.56,3.28,.89-.5,1.49-1.09,2.19-1.99,.7-.89,.89-1.99,.89-3.08,0-1.29-.6-2.58-1.49-3.48-1.29-1.39-2.68-2.19-4.17-2.88-1.99-.89-3.98-1.39-6.16-1.79-2.39-.5-5.07-.7-7.65-.7-5.67-.5-11.43,1.29-16,4.57-3.98,3.08-6.16,7.65-5.96,12.72,0,2.19,.4,4.37,1.09,6.36,.7,1.69,1.79,3.28,3.08,4.57,1.39,1.49,3.08,2.58,4.87,3.48,1.99,1.09,4.17,1.89,6.36,2.58l7.65,2.39c2.88,.6,5.27,1.89,7.45,3.68,1.69,1.59,2.39,3.78,2.39,5.96,0,2.58-1.09,4.97-3.08,6.76-2.68,1.89-6.16,2.78-9.44,2.58-3.48,0-6.96-.6-9.74-2.09-2.39-1.09-4.57-2.39-6.56-4.17-1.09,.4-1.99,1.29-2.88,2.19-.89,1.09-1.29,2.19-1.29,3.48,0,1.49,.6,2.78,1.49,3.68,1.29,1.29,2.88,2.39,4.37,3.08,1.99,1.09,4.37,1.79,6.56,2.19,2.88,.7,5.67,.89,8.55,.89,3.48,0,6.76-.4,10.04-1.29,2.88-.6,5.27-1.89,7.45-3.68,1.99-1.79,3.48-3.78,4.57-5.96,1.09-2.39,1.49-4.87,1.49-7.45,.2-4.57-1.59-8.95-4.87-12.03-3.68-3.38-8.25-5.76-13.12-7.06Z" style="fill:#373944;"/><path d="M562.78,78.45c-.5-.89-1.09-1.69-1.79-2.39-.8-.89-1.69-1.39-2.58-1.79-2.19-.89-4.37-.89-6.56,0-1.09,.5-1.89,1.09-2.58,1.79-.89,.6-1.39,1.49-1.79,2.39-.5,1.09-.7,1.99-.7,3.08s.2,1.99,.89,3.08c.7,1.99,2.19,3.28,4.17,4.17,2.19,.89,4.37,.89,6.56,0,1.09-.5,1.89-1.09,2.58-1.79,.89-.6,1.39-1.49,1.79-2.39,.89-1.99,.89-4.17,0-6.16Zm-2.09,5.47c-.2,.7-.6,1.29-1.29,1.99-.5,.6-1.29,1.09-1.99,1.29-1.79,.7-3.48,.7-5.27,0-.7-.2-1.39-.6-1.99-1.29-.6-.7-1.09-1.29-1.29-1.99-.2-.6-.4-1.49-.4-2.39s.3-1.79,.4-2.68c.2-.7,.6-1.29,1.29-1.99,.5-.6,1.29-1.09,1.99-1.29,1.79-.7,3.48-.7,5.27,0,.7,.2,1.29,.6,1.99,1.29,.6,.7,1.09,1.29,1.29,1.99,.7,1.59,.7,3.58,0,5.07Z" style="fill:#373944;"/><path d="M557.51,81.03c.7-.89,.5-2.39-.4-3.08-.6-.5-1.49-.7-2.39-.7h-.89c-.2,.2-.7,.2-.89,.2-.5,.3-.7,.5-.7,.7v5.96c0,.5,0,.7,.2,.7,.3,.2,.5,.2,.7,.2h.89v-2.58l.89-.6,1.29,1.99c.2,.5,.7,.7,1.09,.7,.3,0,.5,0,.7-.2,0,0,.2-.2,.2-.4l-1.79-2.19c.4,0,.89-.3,1.09-.7Zm-2.68,0h-.99v-1.99h.8c.4,0,.89,0,1.09,.2,.2,0,.4,.5,.4,.7,0,.7-.4,1.09-1.29,1.09Z" style="fill:#373944;"/></g></svg>