<?xml version="1.0" encoding="UTF-8"?><svg id="a" xmlns="http://www.w3.org/2000/svg" width="640" height="140" viewBox="0 0 640 140"><path d="M628.25,78.39V37.2c0-1.25,.23-1.79,1.65-1.72,2.86,.12,5.73,.09,8.59,0,1.18,0,1.52,.31,1.51,1.49-.06,7.37,0,14.72,0,22.07v36.06c0,1.28-.26,1.73-1.64,1.69-3.59-.1-7.19-.09-10.78,0-1.06,.12-2.07-.46-2.49-1.44-7.58-13.3-15.19-26.59-22.84-39.86-.3-.51-.44-1.14-1.02-1.45-.41,.59-.21,1.21-.21,1.8v39.26c0,1.29-.29,1.74-1.65,1.68-2.69-.11-5.4-.11-8.09,0-1.5,.06-1.97-.31-1.97-1.9,.07-12.8,0-25.61,0-38.42v-19.21c0-1.35,.27-1.85,1.72-1.81,3.6,.11,7.2,.09,10.79,0,1.01-.11,1.97,.45,2.37,1.38,7.58,13.37,15.2,26.72,22.85,40.04,.22,.63,.65,1.16,1.21,1.51Z" style="fill:#595360;"/><path d="M535.39,66.15v-28.82c0-1.55,.45-1.84,1.89-1.82,7.93,.06,15.85,0,23.78,0,2.93-.04,5.84,.42,8.61,1.38,7.84,2.84,12.35,10.26,11.79,19.38-.68,11.29-8.27,18.51-19.62,18.62-4.43,.04-8.85,.04-13.26,0-1.12,0-1.41,.31-1.4,1.4,0,6.29,0,12.59,.06,18.88,0,1.38-.42,1.69-1.7,1.65-2.86-.1-5.73-.1-8.6,0-1.22,0-1.49-.38-1.48-1.53-.05-9.76-.07-19.45-.07-29.14Zm11.72-10.83v7.75c0,.71,.07,1.16,1.02,1.15,4.89-.06,9.78,0,14.67-.14,2.26,.03,4.37-1.13,5.55-3.06,1.93-3.26,2.1-7.27,.43-10.67-1.45-3.18-4.45-3.88-7.63-3.9h-12.65c-1.19,0-1.38,.46-1.35,1.48,0,2.42-.04,4.89-.04,7.35v.03Z" style="fill:#595360;"/><path d="M503.15,82.47l9.57-32.3c1.32-4.46,2.68-8.92,3.94-13.39,.29-1.02,.68-1.35,1.72-1.33,3.06,.07,6.19,.11,9.27,0,1.58-.06,1.73,.38,1.28,1.77-5.24,15.88-10.45,31.76-15.63,47.63-1.17,3.57-2.39,7.14-3.5,10.71-.1,.78-.82,1.33-1.6,1.23h-.04c-3.32-.07-6.63-.06-9.95,0-.83,.13-1.61-.43-1.75-1.25-6.39-19.55-12.82-39.09-19.29-58.63-.35-1.02-.3-1.46,1.02-1.43,3.09,.1,6.19,.1,9.27,0,.99-.2,1.96,.44,2.17,1.43,.01,.06,.02,.11,.03,.17,4.29,14.63,8.67,29.24,13.03,43.86,.06,.41,.21,.83,.47,1.52Z" style="fill:#595360;"/><path d="M161.27,66.15v-28.81c0-1.41,.23-1.93,1.82-1.91,8.31,.09,16.63,0,24.95,.07,5.21,.05,10.07,1.42,13.77,5.3,5.5,5.75,6.12,12.68,3.96,19.92-2.04,6.82-7.2,10.31-14.04,11.51-3.91,.68-7.85,.26-11.78,.34-3.14,.06-6.29,.07-9.45,0-1.26,0-1.61,.35-1.6,1.61,.06,6.97,0,13.92,.06,20.89,0,1.42-.39,1.88-1.79,1.76-1.4-.12-2.81-.12-4.21,0-1.35,.11-1.69-.36-1.68-1.68,.02-9.7-.01-19.37-.01-29.01Zm7.63-12.11v9.93c0,1.02,.27,1.48,1.41,1.47,5.56,0,11.12,.07,16.68,0,7.74-.17,11.62-3.27,12.24-10.1,.56-6.36-1.75-10.72-8.59-12.17-.82-.18-1.66-.28-2.5-.29-5.95,0-11.9,0-17.85-.06-1.19,0-1.38,.49-1.37,1.5,0,3.18-.02,6.44-.02,9.7v.02Z" style="fill:#9c56b8;"/><path d="M454.64,76.09h-17.34c-1.33,0-1.76,.32-1.54,1.72,1.18,6.42,6.08,11.51,12.46,12.92,6.76,1.28,12.5-1.24,15.93-7.08,.28-.67,.97-1.09,1.69-1.02,1.8,.06,3.6,.08,5.4,0,1.18,0,1.45,.22,1.02,1.39-3.15,7.8-8.81,12.35-17.2,13.56-12.29,1.76-23.26-5.41-26.4-17.34-3.43-12.81,4.17-25.97,16.98-29.39,.48-.13,.97-.24,1.46-.34,8.57-1.69,17.93,2.64,22.71,10.55,2.53,4.21,3.89,9.02,3.93,13.93,0,1.37-.77,1.1-1.51,1.1h-17.58Zm-3.95-6.88h13.26c1.11,0,1.34-.3,1.02-1.38-2.04-6.25-7.93-10.86-14.13-10.87-6.58,.19-12.35,4.48-14.42,10.73-.44,1.32-.06,1.53,1.14,1.52h13.13Z" style="fill:#9c56b8;"/><path d="M361.37,58.22c0-2.21,.06-3.95,0-5.68-.05-1.1,.44-1.32,1.41-1.28,1.51,.08,3.03,.08,4.54,0,1.11-.06,1.44,.32,1.42,1.42v42.45c0,1.29-.29,1.81-1.66,1.69-1.52-.09-3.03-.09-4.55,0-.9,0-1.17-.33-1.15-1.18,.05-1.79,0-3.57,0-5.32-.56-.17-.7,.21-.9,.45-7.61,9.27-19.92,8.85-27.73,3.06-8-5.97-10.97-14.28-9.45-23.89,1.43-9.12,6.56-15.7,15.47-18.69,8.25-2.76,15.49-.74,21.42,5.66,.31,.29,.59,.62,1.17,1.32Zm-30.87,15.98c0,.79,0,1.57,.12,2.36,.06,.56,.17,1.11,.32,1.65,1.6,5.95,5.1,10.2,11.16,11.91,5.55,1.53,10.33-.19,14.28-4.17,6.59-6.95,6.29-17.93-.66-24.52-.12-.11-.24-.22-.36-.33-5.88-5.33-14.97-4.89-20.3,.99-.4,.44-.78,.91-1.12,1.4-2.29,3.1-3.5,6.86-3.44,10.71Z" style="fill:#9c56b8;"/><path d="M381.32,63.01v-19.91c0-1.24,.3-1.7,1.59-1.6,1.57,.09,3.15,.09,4.72,0,1.02-.05,1.38,.26,1.34,1.32-.07,2.31,.06,4.61-.05,6.91-.06,1.31,.39,1.58,1.62,1.57,9.05,0,18.1,0,27.13-.06,1.51,0,2.16,.32,1.96,1.92s.72,3.95-.41,5.02c-1.13,1.07-3.22,.27-4.9,.27h-23.78c-1.02,0-1.64,0-1.63,1.38,.07,6.58,0,13.15,.07,19.72,.06,5.46,4.08,10.06,9.48,10.85,6.44,.87,11.58-2.13,13.26-7.73,.54-2.13,.71-4.33,.51-6.51,0-1.2,.21-1.74,1.56-1.64,1.61,.12,3.25,0,4.89,0,.56,0,1.14-.08,1.17,.79,.24,6.41-.56,12.54-5.56,17.19-6.12,5.69-13.36,6.75-20.99,3.95s-11.3-8.55-11.81-16.47c-.42-6.01-.06-12.08-.17-16.93Z" style="fill:#9c56b8;"/><path d="M298.65,86.82c.54-1.47,1.02-2.87,1.55-4.26,3.41-9.85,6.83-19.71,10.2-29.58,.42-1.24,.95-1.84,2.36-1.69,1.46,.13,2.92,.13,4.38,0,1.47-.1,1.86,.22,1.31,1.73-3.34,9.06-6.62,18.03-9.86,27.03-1.88,5.16-3.78,10.31-5.62,15.5-.18,.82-.98,1.36-1.82,1.21-1.74-.09-3.48-.09-5.22,0-1.18,.08-1.67-.4-2.04-1.45-4.82-13.32-9.66-26.63-14.51-39.96-.46-1.26-1.56-3.06-1.1-3.68,.75-.95,2.58-.32,3.95-.34q3.68,0,4.89,3.48c3.56,10.16,7.11,20.32,10.67,30.48,.08,.61,.39,1.16,.88,1.53Z" style="fill:#9c56b8;"/><path d="M222.83,56.04c5.35-5.56,11.47-6.84,18.2-5.19,6.93,1.65,11.65,7.65,12.24,15.2,.14,1.79,.14,3.58,.26,5.38,.06,.89-.29,1.18-1.16,1.15-1.74-.05-3.49-.06-5.22,0-.96,0-1.26-.29-1.25-1.24,.12-1.85,.01-3.7-.31-5.53-1.26-5.62-5.27-8.83-10.97-8.7-5.56,.02-10.31,3.98-11.33,9.45-.16,1.22-.23,2.45-.2,3.68v24.94c0,1.35-.39,1.76-1.7,1.67-1.52-.09-3.03-.09-4.55,0-.92,0-1.28-.22-1.28-1.21V52.49c0-.72,.1-1.17,1.02-1.14,1.74,.05,3.49,0,5.23,0,.83,0,1.09,.34,1.08,1.1-.07,.99-.05,2.03-.05,3.59Z" style="fill:#9c56b8;"/><path d="M270.53,74.04v21.24c0,1.13-.26,1.61-1.48,1.53-1.46-.12-2.93-.12-4.39,0-1.36,.11-1.68-.39-1.67-1.69V52.81c0-1.15,.3-1.6,1.5-1.52,1.51,.1,3.03,.1,4.55,0,1.21-.08,1.49,.37,1.49,1.52-.02,7.08,0,14.15,0,21.23Z" style="fill:#9c56b8;"/><path d="M270.59,40.11c-.06,1.4,.39,3.23-.33,4.08s-2.74,.3-4.18,.33q-3.12,0-3.12-3.06v-4.55c0-.95,.19-1.46,1.31-1.41,1.73,.08,3.48,.05,5.22,0,.8,0,1.1,.27,1.02,1.02v3.54l.08,.05Z" style="fill:#9c56b8;"/><path d="M95.76,22.87l-25.06-4.66c-.83-.17-1.68-.17-2.51,0l-25.24,4.66c-1.6,.3-2.79,1.66-2.87,3.29v31.14c-.08,18.03,18.3,29.4,26.02,33.47,2.16,1.14,4.72,1.2,6.94,.17,7.72-3.72,25.41-14.22,25.41-33.56V26.26c-.03-1.61-1.13-3-2.69-3.39Z" style="fill:#f6edd7;"/><path d="M39.3,75c-.4,.08-.81,.11-1.21,.09-2.03-.03-3.98-.8-5.47-2.17-2.81-2.72-4.35-6.5-4.25-10.41,0-2.24,.47-4.46,1.39-6.51,1.13-2.51,2.52-4.43,5.1-5.38v6.86l.17,.08v1.83c.05,5.49,1.52,10.86,4.27,15.61Zm60.09,0c.4,.08,.81,.11,1.22,.09,2.02-.03,3.97-.8,5.46-2.17,2.81-2.72,4.35-6.5,4.25-10.41-.04-2.25-.55-4.47-1.51-6.51-1.13-2.51-2.6-4.43-5.2-5.38v6.94l.08,1.83c-.09,5.48-1.57,10.85-4.3,15.61Z" style="fill:#ae55b8;"/><path d="M19.44,67.02c0-8.07,5.46-14.58,12.24-14.58,.45,4.32,.66,8.67,.63,13.02,0,8.06,6.12,16.13-.61,16.13s-12.24-6.5-12.24-14.57h-.02Zm99.91,0c0-8.07-5.47-14.58-12.24-14.58-.44,4.32-.64,8.67-.6,13.02,0,8.06-6.12,16.13,.6,16.13s12.24-6.5,12.24-14.57Z" style="fill:#87478f;"/><path d="M107.12,83.32c-1.54,.14-3.06-.47-4.08-1.63-1.49-1.97-.71-4.73,.27-8.24,.83-2.59,1.32-5.27,1.44-7.99-.04-4.43,.17-8.86,.61-13.26l.19-1.53h1.53c7.7,0,13.97,7.31,13.97,16.32s-6.22,16.33-13.92,16.33Zm1.56-29c-.17,2.04-.43,5.97-.43,11.14-.13,3.03-.67,6.04-1.6,8.93-.52,1.84-1.3,4.61-.85,5.2,.07,.09,.44,.27,1.32,.27,5.78,0,10.5-5.75,10.5-12.83,0-6.44-3.89-11.77-8.94-12.7ZM31.66,83.32c-7.69,0-13.95-7.31-13.95-16.32s6.26-16.32,13.95-16.32h1.54l.18,1.53c.46,4.41,.67,8.83,.62,13.26,.14,2.72,.63,5.4,1.47,7.99,1.02,3.51,1.75,6.27,.27,8.24-1.02,1.17-2.54,1.77-4.08,1.62Zm-1.55-29c-5.1,.93-8.94,6.26-8.94,12.7,0,7.08,4.7,12.83,10.49,12.83,.89,0,1.25-.17,1.33-.27,.44-.59-.34-3.37-.85-5.2-.94-2.89-1.48-5.89-1.6-8.93,0-5.17-.27-9.07-.43-11.14Z" style="fill:#ae55b8;"/><path d="M70.06,71.87c-3.91,0-6.51-3.12-6.51-7.2v-9.27c-3.47-2.04-4.76-5.21-4.76-9.28-.06-6.32,5.02-11.48,11.33-11.54h.05c6.2,0,11.22,5.02,11.23,11.22,0,.11,0,.21,0,.32,.11,3.57-1.69,6.92-4.71,8.81v9.71c-.09,4.19-2.69,7.23-6.62,7.23Z" style="fill:#59505e;"/><path d="M70.06,37.18c4.77,.03,8.62,3.91,8.59,8.69,0,.08,0,.17,0,.25-.16,3.16-1.93,6.01-4.69,7.55v11.01c0,2.52-1.39,4.6-3.9,4.6s-3.91-2.04-3.91-4.6v-10.76c-3.47-1.56-4.76-4.43-4.76-7.8-.12-4.8,3.67-8.8,8.47-8.92,.07,0,.13,0,.2,0m0-5.2c-7.72,.07-13.93,6.39-13.85,14.12v.02c0,4.51,1.31,8.16,4.77,10.67v7.89c0,5.47,3.82,9.8,9.11,9.8s9.15-4.34,9.15-9.8v-8.5c3.1-2.4,4.84-6.15,4.68-10.06,.19-7.61-5.83-13.94-13.44-14.13-.14,0-.28,0-.42,0Z" style="fill:#edd7d2;"/><path d="M137.31,88.18c0-.08,.08-.26,.08-.35,.08-.31,.11-.63,.09-.95,.1-.84,.16-1.68,.17-2.52,.01-.93-.08-1.86-.27-2.77-1.36-9.88-9.8-17.24-19.77-17.26-3.41,0-6.76,.9-9.71,2.6,.51-2.48,.8-5.01,.87-7.54v-1.83l-.17-.08,.22-30.7c0-6.24-3.12-11.02-8.24-12.83l-.17-.09-28.85-5.55c-1.35-.27-2.73-.27-4.08,0l-26.52,4.86c-7.62,1.21-11.11,8.67-11.11,13.62V61.12s.6,3.82,.95,5.55c-2.89-1.6-6.14-2.44-9.45-2.43-11.08,.06-20.02,9.1-19.95,20.18v.9c0,19.94,29.66,30.52,68.87,30.52,27.14,0,49.09-5.55,60.01-15.61,3.69-3.07,6.18-7.34,7.03-12.06ZM34.96,26.86c0-2.6,1.92-7.89,6.77-8.67l26.52-4.86c.74-.17,1.51-.17,2.25,0l28.36,5.55c1.83,.69,4.69,2.6,4.69,7.98l-.17,34.27h.17c-.86,16.74-13.61,24.89-24.8,32.57-2.52,2.01-5.62,3.14-8.84,3.21-3.64,0-8.84-2.35-12.92-5.29-6.68-4.68-12.83-9.45-17.78-18.3-2.6-4.59-4.25-8.23-4.25-13.95l-.08-1.91V26.85h.08Z" style="fill:#ae55b8;"/><ellipse cx="64.5" cy="127.11" rx="64.5" ry="4.78" style="fill:#edd7d2;"/></svg>