<svg xmlns="http://www.w3.org/2000/svg" xmlns:xlink="http://www.w3.org/1999/xlink" width="228" height="207" viewBox="0 0 228 207">
  <defs>
    <clipPath id="clip-path">
      <rect id="Rectangle_11453" data-name="Rectangle 11453" width="228" height="207" rx="14" transform="translate(1301 605)" fill="#fff" stroke="#707070" stroke-width="1"/>
    </clipPath>
    <linearGradient id="linear-gradient" x1="0.845" y1="0.27" x2="0.185" y2="0.521" gradientUnits="objectBoundingBox">
      <stop offset="0" stop-color="#00c2d9"/>
      <stop offset="1" stop-color="#119dce"/>
    </linearGradient>
  </defs>
  <g id="Group_51849" data-name="Group 51849" transform="translate(-1301 -598)">
    <g id="Mask_Group_92" data-name="Mask Group 92" transform="translate(0 -7)" clip-path="url(#clip-path)">
      <path id="Path_23612" data-name="Path 23612" d="M161,0c88.918,0,161,39.847,161,89s-72.082,89-161,89S0,138.153,0,89,72.082,0,161,0Z" transform="translate(1235.016 667.922) rotate(-16)" fill="#f4f4f6"/>
      <ellipse id="Ellipse_209" data-name="Ellipse 209" cx="161" cy="89.5" rx="161" ry="89.5" transform="matrix(0.978, -0.208, 0.208, 0.978, 1238.494, 646.609)" fill="url(#linear-gradient)"/>
    </g>
    <g id="Group_51848" data-name="Group 51848">
      <path id="Polygon_1" data-name="Polygon 1" d="M5.5,0,11,10H0Z" transform="matrix(0.799, 0.602, -0.602, 0.799, 1317.117, 747.541)" fill="#fff" opacity="0.205"/>
      <path id="Polygon_2" data-name="Polygon 2" d="M8.108,0l8.108,14.742H0Z" transform="translate(1501.006 620.278) rotate(103)" fill="#fff" opacity="0.205"/>
      <path id="Polygon_3" data-name="Polygon 3" d="M4.5,0,9,8.182H0Z" transform="translate(1518.55 653.597) rotate(129)" fill="#fff" opacity="0.205"/>
    </g>
  </g>
</svg>
