<?xml version="1.0" encoding="UTF-8"?><svg id="a" xmlns="http://www.w3.org/2000/svg" width="58.86" height="70.14" viewBox="0 0 58.86 70.14"><path d="M58.74,15.31h0c-.07-1.15-.76-2.16-1.79-2.65L30.22,.17C29.97,.06,29.7,0,29.43,0c-.27,0-.54,.06-.79,.17L1.91,12.66c-1.03,.49-1.72,1.5-1.79,2.64-.52,8.19-.67,41.03,29.31,54.84,29.98-13.79,29.83-46.65,29.31-54.83Z" style="fill:#2ebad2;"/><path id="b" d="M.12,15.3c.07-1.14,.76-2.15,1.79-2.64L28.64,.17c.25-.11,.52-.17,.79-.17V70.14C-.55,56.34-.4,23.49,.12,15.3Z" style="fill:#2aabc2;"/></svg>