<?xml version="1.0" encoding="UTF-8"?><svg id="a" xmlns="http://www.w3.org/2000/svg" width="640" height="140" viewBox="0 0 640 140"><g><path d="M85.53,1.43H52.88C31.9,2.54,23.07,14.79,20.67,21.21,11.49,48.8,5.71,84.41,1.63,110.15l-.24,1.5L.02,123.89c-.09,2.04,.12,4.08,.61,6.05,2.59,7.47,10.37,13.76,27.52,7.5h0c16.2-7.05,35.37-15.8,55.14-25.62,11.27-6.5,27.77-21.43,28.57-40.3-.15-14-.63-28.67-1.58-42.94h0v-.11c0-1.17-.15-2.53-.24-3.93-.16-2.72-.33-5.63-.52-7.85-.25-1.42-.61-2.82-1.09-4.18-2.72-6.11-8.16-9.06-13.81-10.48-3.02-.41-6.06-.62-9.1-.61Zm-1.24,28.49c.02-1.58-1.25-2.87-2.83-2.88-.01,0-.03,0-.04,0-18.25,0-33.05,14.8-33.05,33.05h0v10.9c0,9.81-7.96,17.77-17.77,17.77-1.63,0-2.96,1.33-2.97,2.97v8.99c0,1.59,1.29,2.88,2.88,2.88h0c18.24,0,33.03-14.78,33.05-33.02v-10.88c0-9.81,7.96-17.77,17.77-17.77,1.63,0,2.95-1.33,2.95-2.97v-9.03Z" style="fill:#178a9e; fill-rule:evenodd;"/><path d="M81.42,27.03c1.58,0,2.86,1.27,2.87,2.84,0,0,0,.02,0,.03v8.99c0,1.63-1.32,2.96-2.95,2.97h0c-9.81,0-17.77,7.96-17.77,17.77v10.94c0,18.25-14.79,33.05-33.05,33.06h0c-1.59,0-2.88-1.29-2.88-2.88h0v-8.99c0-1.63,1.33-2.96,2.97-2.97h0c9.81,0,17.77-7.96,17.77-17.77v-10.88c-.03-18.25,14.74-33.07,32.99-33.1h.05Z" style="fill:#fff;"/></g><g><path d="M609.64,41.8c-.02,8.38,6.76,15.2,15.14,15.22,8.38,.02,15.2-6.76,15.22-15.14,.02-8.38-6.76-15.2-15.14-15.22-.03,0-.07,0-.1,0-8.35,.01-15.12,6.79-15.12,15.14Zm3.5,0c.12-6.43,5.43-11.54,11.86-11.42,6.43,.12,11.54,5.43,11.42,11.86-.12,6.35-5.31,11.43-11.66,11.42-6.43,0-11.63-5.23-11.62-11.66,0-.07,0-.14,0-.2Zm14.15,8.08h4.32l-3.27-6.35c1.93-.78,3.18-2.65,3.17-4.73-.08-3-2.57-5.37-5.57-5.3h-6.55v16.31h3.9v-5.66h1.19l2.81,5.72Zm-4.04-8.85v-4.24h1.9c1.18-.16,2.27,.66,2.44,1.85s-.66,2.27-1.85,2.44c-.2,.03-.39,.03-.59,0l-1.9-.04Z" style="fill:#222e3a;"/><path d="M600.93,58.47h-19.44l-19,20.37V26.68h-14.87V113.26h14.87v-14.47l6.06-6.47,14.53,20.94h18.19l-22.45-31.73,22.11-23.06Z" style="fill:#222e3a;"/><path d="M542.12,58.31c-1.11-.1-2.18,0-3.4,0-4.63,0-12.13,1.11-15.46,8.35v-8.35h-14.15v54.93h14.65v-25.02c0-11.78,6.18-16.17,13.68-16.17h4.75l-.08-13.74Z" style="fill:#222e3a;"/><path d="M452.51,97.23c0,8.33,7.09,16.01,18.73,16.01,8.08,0,13.3-2.34,16.17-6.57l.49,6.57h12.93v-34.76c0-10.71-6.45-20.21-23.75-20.21-14.63,0-22.51,9.18-23.38,17.5l13.08,2.71c.44-4.65,4.04-8.65,10.43-8.65s9.2,3.13,9.2,6.91c0,1.84-.99,2.02-4.04,2.45l-13.42,2.02c-9.22,1.23-16.43,6.53-16.43,16.03Zm21.85,5.3c-4.77,0-7.11-3.01-7.11-6.16,0-4.04,3.01-6.06,6.77-6.69l12.31-1.84v3.72c.02,9.4-5.74,10.97-11.94,10.97h-.02Z" style="fill:#222e3a;"/><path d="M412.09,81.07c.32-6.06,4.04-10.69,10.11-10.69,7.07,0,10.11,4.79,10.11,10.91v31.95h14.69v-34.52c0-12.03-6.41-20.33-20.21-20.33-5.19,0-11.16,.4-14.69,4.65V26.68h-14.69V113.26h14.69v-32.19Z" style="fill:#222e3a;"/><path d="M347.78,97.42c.67,5.94,6.22,15.82,22.72,15.82,14.37,0,21.38-8.41,21.38-16.88,0-7.62-5.46-13.86-16.17-15.99l-7.78-1.58c-3.01-.53-5.01-2.02-5.01-4.67,0-2.95,3.11-5.17,7.01-5.17,6.22,0,8.57,3.9,9.01,6.97l12.37-2.65c-.67-5.6-5.9-15.02-21.5-15.02-11.8,0-20.49,7.72-20.49,17.04,0,7.3,4.79,13.34,15.38,15.56l7.24,1.58c4.22,.85,5.9,2.77,5.9,5.09,0,2.75-2.34,5.17-7.24,5.17-6.47,0-9.7-3.8-10.11-7.92l-12.71,2.63Z" style="fill:#222e3a;"/><path d="M332.84,48.55v-.22c.01-4.94,4.03-8.94,8.97-8.93h3.19v-12.71h-7.24c-11.18,0-19.6,8.37-19.6,20.33v11.32h-8.99v13.74h8.99v41.19h14.67v-41.21h12.13v-13.74h-12.13v-9.76h0Z" style="fill:#222e3a; fill-rule:evenodd;"/><path d="M303.66,58.31c-1.09-.1-2.16,0-3.38,0-4.63,0-12.13,1.11-15.48,8.35v-8.35h-14.19v54.93h14.65v-25.02c0-11.78,6.16-16.17,13.68-16.17h4.73l-.02-13.74Z" style="fill:#222e3a;"/><path d="M248.89,113.24h13.42V58.27h-14.63v32.03c0,6.35-3.94,9.36-10.45,9.36s-9.9-4.89-9.9-11.01v-30.32h-14.63v33.37c0,11.92,7.5,21.6,20.57,21.6,5.74,0,12.13-.79,15.18-5.9l.44,5.84Z" style="fill:#222e3a;"/><path d="M205.94,47.86c-1.82-9.22-9.6-21.18-29.87-21.18-15.78,0-29.1,11.06-29.1,25.59,0,12.35,8.61,20.76,21.91,23.4l11.68,2.3c5.58,.81,9.81,5.45,10.11,11.08,0,5.76-4.83,10.11-13.54,10.11-11.8,0-17.56-7.26-18.19-15.34l-15.1,3.92c1.31,11.64,11.1,25.61,33.25,25.61,19.44,0,30.15-12.69,30.15-25.26,0-11.52-8.08-22.57-23.32-25.46l-11.66-2.2c-6.06-1.15-9.07-4.71-9.07-9.22,0-5.42,5.17-10.37,13.08-10.37,10.61,0,14.37,7.03,15.2,11.52l14.49-4.49Z" style="fill:#222e3a;"/></g></svg>