<?xml version="1.0" encoding="UTF-8"?><svg id="a" xmlns="http://www.w3.org/2000/svg" width="640" height="140" viewBox="0 0 640 140"><path d="M161.24,48.54h-21.34V30.72h64v17.82h-21.33v62.75h-21.33V48.54Z" style="fill:#504847;"/><path d="M208.68,70.63c0-26.61,15.06-41.42,37.4-41.42s37.4,15.06,37.4,41.42-15.06,42.17-37.4,42.17-37.4-15.57-37.4-42.17Zm53,0c0-14.56-6-23.1-15.56-23.1s-15.56,8.54-15.56,23.1,6,23.84,15.56,23.84,15.52-9.28,15.52-23.84h.04Z" style="fill:#504847;"/><path d="M310.84,48.54h-21.34V30.72h64v17.82h-21.33v62.75h-21.33V48.54Z" style="fill:#504847;"/><path d="M398.69,94.22h-22.59l-4,17.07h-21.85l24.59-80.57h25.86l24.6,80.57h-22.59l-4.02-17.07Zm-4-16.56l-1.25-5.53c-2-7.78-4-17.57-6-25.6h-.51c-1.75,8.28-3.76,17.82-5.77,25.6l-1.26,5.53h14.79Z" style="fill:#504847;"/><path d="M432.83,30.72h21.33v62.75h30.63v17.82h-52l.04-80.57Z" style="fill:#504847;"/><path d="M551.05,86.19h-30.12l-8,25.1h-10.57l27.86-82.29h11.78l27.87,82.33h-11l-7.82-25.14Zm-2.76-8.53l-3.77-12.55c-3-9.29-5.77-18.33-8.28-27.87h-.5c-2.51,9.54-5.27,18.58-8,27.87l-4,12.55h24.55Z" style="fill:#504847;"/><path d="M573.64,29h11.3l13.3,44.43c3,9.79,4.77,17.57,8,27.36h.5c3-9.79,5-17.57,8-27.36l13.37-44.43h10.79l-26.1,82.33h-12.3l-26.86-82.33Z" style="fill:#504847;"/><path d="M58.83,88h-8.83v-15.62c-7.24-4.82-9.2-14.6-4.38-21.84,2.93-4.4,7.88-7.04,13.17-7.02,8,0,0-32.63,0-32.63L1.1,35.74s1.75,72.54,57.73,93.62c9.29-26.85,0-41.36,0-41.36Z" style="fill:#e73848;"/><path d="M58.83,10.64V43.27c8.7-.03,15.78,6.99,15.81,15.69,0,.04,0,.08,0,.12,.03,5.24-2.61,10.14-7,13v15.62h-8.81v41.41c56-21.08,57.73-93.62,57.73-93.62L58.83,10.64Z" style="fill:#c52a34;"/></svg>